<?xml version="1.0" encoding="UTF-8"?>
<svg width="70px" height="58px" viewBox="0 0 70 58" version="1.1" xmlns="http://www.w3.org/2000/svg" xmlns:xlink="http://www.w3.org/1999/xlink">
    <!-- Generator: Sketch 63.1 (92452) - https://sketch.com -->
    <title>Logo Boda</title>
    <desc>Alejandra y Alejandro, Octubre 2020</desc>
    <g id="Page-1" stroke="none" stroke-width="1" fill="none" fill-rule="evenodd">
        <g id="web-A&amp;A" transform="translate(-477.000000, -25.000000)" fill="#211915">
            <g id="Group-15" transform="translate(477.000000, 25.000000)">
                <path d="M63.0846,51.5886 L46.1886,11.7976 L45.9836,11.2326 L45.4876,11.7886 C45.4876,11.7886 42.4156,21.0576 43.0766,20.9896 C43.6886,20.9256 44.5466,23.0316 45.5046,25.3536 L50.5666,38.4086 L50.8406,39.0986 L55.6966,51.3376 C56.7916,53.3456 55.8336,54.7896 55.2176,55.6056 C54.8756,55.9816 54.3966,56.2956 53.6446,56.5466 C52.2766,56.9856 51.9346,57.0486 51.5926,57.0486 L69.9246,57.0486 C68.7616,56.9856 67.7366,56.9226 65.6156,55.1656 C64.5896,54.2246 63.7006,53.0316 63.0846,51.5886" id="Fill-11"></path>
                <path d="M34.1702,42.1855 C34.3592,41.2645 34.8422,40.2335 35.6062,39.5705 C36.0022,39.2275 36.5512,39.0315 36.9392,38.6835 C37.3772,38.2915 37.8072,38.1135 38.4412,38.1125 C39.3402,38.1105 40.0822,37.6945 40.7572,37.1895 C41.4572,36.6665 41.8652,35.8515 40.5382,35.8215 C38.7832,35.7815 37.9302,37.0875 36.8162,38.0855 C36.6462,38.2375 35.3622,38.8905 35.3652,38.8825 C35.8252,37.8425 36.3072,36.8865 36.7042,35.8085 C37.1402,34.6235 37.4162,33.3625 38.2412,32.3065 C38.6352,31.8015 39.1392,31.4095 39.5122,30.8525 C41.2422,28.2695 41.6752,25.5025 41.3912,22.4095 C40.3862,23.3895 39.3152,24.1015 38.7282,25.2195 C37.7362,27.1075 36.9802,29.0435 37.0972,31.1885 C37.1262,31.7195 37.2112,32.2865 37.0572,32.7805 C36.7772,33.6815 36.4822,34.5945 36.1332,35.4755 C35.9602,35.9115 35.5942,36.8455 35.1452,37.0065 C33.9782,34.0405 35.0162,30.8165 33.1692,28.0475 C33.0002,27.7935 32.8152,27.5425 32.5672,27.3505 C32.2012,27.0665 31.7252,26.9215 31.4442,26.5575 C31.0202,27.2135 31.0382,28.0975 31.1942,28.8245 C31.3552,29.5775 31.6882,30.2885 32.0192,30.9915 C32.1462,31.2605 32.2722,31.5295 32.3982,31.7975 C32.6632,32.3605 33.0822,32.5905 33.4592,33.0305 C33.7712,33.3955 33.9582,33.9255 34.1222,34.3575 C34.5882,35.5775 34.7792,36.8825 34.9112,38.1645 C34.9752,38.7935 34.5192,39.4755 34.2682,40.1215 C34.0282,40.7395 33.7612,41.3505 33.4712,41.9505 C33.2102,42.4905 32.9432,43.0275 32.6592,43.5935 C32.6792,42.9885 32.6352,42.3575 31.4632,39.3885 C30.9852,38.1785 29.7982,37.2235 28.8512,36.3535 C28.0642,35.6305 26.9562,35.3725 26.3152,34.4685 C25.2692,32.9965 23.8002,31.7635 22.7322,30.3065 C21.7192,28.9235 19.6752,26.9065 21.1532,25.0765 C21.5002,24.6475 21.6162,24.1145 21.5062,23.6185 C21.4402,23.3205 21.2932,23.0365 21.0662,22.7955 C20.2872,21.9695 19.5302,21.9325 18.4642,22.6665 C18.0172,22.9745 17.9082,23.8885 18.3322,24.5935 C19.2292,26.0875 20.4862,27.4085 20.4842,29.2355 C19.7152,29.2465 18.9782,28.9495 18.2652,28.6565 C17.5832,28.3755 16.9002,28.0955 16.2172,27.8155 C16.0552,27.7485 15.8922,27.6815 15.7442,27.5875 C15.4892,27.4245 15.2782,27.1555 15.0822,26.8635 L19.4182,15.9845 C20.6992,12.7455 21.6422,11.1565 22.2492,11.1565 C22.8562,11.1565 23.6642,12.3635 24.6082,14.7145 L29.5962,27.9285 L29.8662,28.6275 C29.8662,28.6275 30.3112,29.7775 30.3112,29.7775 C30.1742,29.4315 30.2432,28.8575 30.2092,28.4825 C30.1772,28.1445 30.1252,27.8525 30.1482,27.5175 C30.1932,26.8545 30.3472,26.0835 30.6892,25.5085 C30.9442,25.0795 31.2522,25.2105 31.6552,25.4605 C32.3772,25.9085 32.9532,26.6215 33.4942,27.2655 C33.9742,27.8355 34.3862,28.6425 34.6752,29.3285 C35.0702,30.2655 34.7412,31.3165 35.0762,32.2635 C35.0762,32.2635 35.1082,32.1795 35.1392,32.0765 C35.2592,31.6875 35.6002,30.9255 35.6592,30.7205 C35.8372,30.0985 35.9652,29.4625 36.1342,28.8375 C36.2182,28.5295 36.3152,28.2325 36.4222,27.9385 L25.2822,0.9915 L25.0802,0.4205 L14.5182,26.0175 C14.4852,25.9745 14.4522,25.9325 14.4182,25.8925 C13.8892,25.2775 13.3612,24.6605 12.8682,24.0155 C11.8982,22.7455 11.0672,21.3605 10.6322,19.8125 C10.3902,18.9535 10.4342,18.2445 11.0372,17.6125 C11.4482,17.1835 11.4192,16.7505 11.1932,16.2745 C10.8122,15.4705 10.1052,15.0105 9.3062,14.8225 C8.9542,14.7395 8.3822,15.0065 8.1162,15.3005 C7.8502,15.5945 7.6512,16.1875 7.7692,16.5315 C7.9372,17.0195 8.3592,17.4795 8.7832,17.8095 C9.5462,18.4005 10.1782,19.8685 9.9642,20.9185 C9.7992,20.9025 9.2992,21.2015 9.1382,21.1515 C7.6922,20.7065 6.4932,20.4305 5.0502,19.9745 C4.3502,19.7525 3.8202,18.9645 3.4742,18.2465 C3.3372,17.9625 3.0702,17.6895 2.7942,17.5335 C2.1382,17.1625 1.4452,16.8905 0.6932,17.3435 C0.0162,17.7515 0.0202,18.3875 0.1302,19.0345 C0.1972,19.4345 0.3352,19.8295 0.4932,20.2055 C0.7802,20.8855 1.8212,21.3205 2.3032,21.0025 C3.3432,20.3165 4.4362,20.0915 5.6422,20.5695 C6.3072,20.8315 6.9932,21.0735 7.6912,21.2155 C9.0082,21.4845 10.1422,21.9875 11.0412,23.0505 C12.0752,24.2725 13.1922,25.4245 14.2752,26.6055 L14.0652,27.1145 C13.2702,27.0405 12.4892,27.0415 12.2292,25.9715 C12.1812,25.7755 11.9522,25.6055 11.7772,25.4595 C10.9862,24.7985 9.5302,24.9255 8.9102,25.6985 C8.3742,26.3665 8.5782,27.6275 9.3242,28.2515 C9.9832,28.8025 11.2672,28.6845 12.0312,28.0345 C12.2242,27.8695 12.5412,27.6595 12.7332,27.7125 C13.0572,27.8035 13.3802,27.8975 13.7042,27.9895 L9.0372,39.3005 C7.1492,43.9375 4.3182,46.6065 1.1492,46.7965 L14.4962,46.7965 C9.6432,46.4785 8.0932,43.3665 9.9132,39.4905 L14.2942,28.6275 L14.5112,28.2195 C15.3732,28.4685 16.2342,28.7215 17.0932,28.9795 C18.4252,29.3805 19.7672,29.4535 21.0262,30.0485 C21.8342,30.4295 22.8452,31.5865 23.4312,32.2445 C24.0972,32.9935 24.2742,33.7905 24.9382,34.5405 C24.8852,34.6125 24.8322,34.6845 24.7792,34.7565 C24.7832,34.7525 23.6342,34.4795 23.5232,34.4635 C23.0742,34.4005 22.6192,34.3525 22.1832,34.2225 C21.7502,34.0935 21.3492,33.8785 21.0342,33.5505 C20.6852,33.1865 20.4942,32.6855 19.9832,32.5075 C19.7232,32.4165 19.4402,32.4075 19.1642,32.4295 C18.5212,32.4815 18.0892,32.9755 17.8972,33.5695 C17.6862,34.2225 17.9522,34.8605 18.3712,35.3665 C19.4182,36.6335 21.1962,34.8735 22.5632,35.3295 C22.9462,35.4565 23.3752,35.4375 23.7752,35.5255 C24.7912,35.7495 25.8242,35.9295 26.8062,36.2605 C27.6442,36.5435 29.0062,37.3425 29.5722,38.0405 C29.7732,38.2885 29.9272,38.5705 30.0802,38.8505 C30.5922,39.7895 31.2992,40.6925 31.6802,41.6835 C31.9282,42.3275 32.0892,43.7915 32.0462,44.8145 C31.9382,45.0305 31.8272,45.2495 31.7132,45.4795 C31.3012,41.4945 29.0242,39.3905 26.6642,37.9815 C26.3022,39.5075 26.6382,40.9305 27.2892,42.2785 C27.6412,43.0085 28.0772,43.6695 28.7542,44.1805 C29.3952,44.6635 30.2932,44.8815 30.7862,45.5225 C31.1072,45.9385 30.8522,46.4755 30.6812,47.1445 C30.4452,48.0655 29.7972,49.6685 29.7972,49.6685 C27.8812,54.2505 24.9142,56.8605 21.6992,57.0485 L35.2432,57.0485 C30.6642,56.7575 28.8022,54.0775 30.0472,50.6255 C30.1452,50.3695 30.2522,50.1065 30.3812,49.8315 C30.8582,48.8095 33.2192,44.5895 33.6422,43.3595 C33.7672,43.8655 35.2312,43.9715 35.6902,44.0245 C38.5142,44.3495 41.0522,44.0385 43.5762,42.5475 C45.1362,41.6265 46.5432,40.4425 47.9422,39.2625 C45.5862,40.2175 43.0702,39.8415 40.6112,40.0665 C38.3602,40.2715 36.0062,40.6675 34.1702,42.1855" id="Fill-13"></path>
            </g>
        </g>
    </g>
</svg>