<?xml version="1.0" encoding="utf-8"?>
<!-- Generator: Adobe Illustrator 17.1.0, SVG Export Plug-In . SVG Version: 6.00 Build 0)  -->
<!DOCTYPE svg PUBLIC "-//W3C//DTD SVG 1.1//EN" "http://www.w3.org/Graphics/SVG/1.1/DTD/svg11.dtd">
<svg version="1.1" id="Capa_1" xmlns="http://www.w3.org/2000/svg" xmlns:xlink="http://www.w3.org/1999/xlink" x="0px" y="0px"
	 viewBox="0 0 32.5 45.1" enable-background="new 0 0 32.5 45.1" xml:space="preserve">
<g>
	<g>
		<g>
			<path fill="#B4B5B7" d="M17.3,14.8c-0.6,0-1-0.4-1-1v-1c0-0.6,0.4-1,1-1s1,0.4,1,1v1C18.3,14.4,17.8,14.8,17.3,14.8z"/>
		</g>
		<g>
			<path fill="#B4B5B7" d="M16.3,37v-1c0-0.6,0.4-1,1-1s1,0.4,1,1v1c0,0.6-0.4,1-1,1S16.3,37.6,16.3,37z M16.3,31v-1
				c0-0.6,0.4-1,1-1s1,0.4,1,1v1c0,0.6-0.4,1-1,1S16.3,31.6,16.3,31z M16.3,25v-1c0-0.6,0.4-1,1-1s1,0.4,1,1v1c0,0.6-0.4,1-1,1
				S16.3,25.6,16.3,25z M16.3,19v-1c0-0.6,0.4-1,1-1s1,0.4,1,1v1c0,0.6-0.4,1-1,1S16.3,19.6,16.3,19z M16.3,8V7c0-0.6,0.4-1,1-1
				s1,0.4,1,1v1c0,0.6-0.4,1-1,1S16.3,8.6,16.3,8z"/>
		</g>
	</g>
	<polyline fill="none" stroke="#B4B5B7" stroke-linejoin="round" stroke-miterlimit="10" points="27.3,30.5 17.3,41.3 17.3,41.3 
		7.3,30.7 	"/>
</g>
</svg>
