<?xml version="1.0" encoding="utf-8"?>
<!-- Generator: Adobe Illustrator 17.1.0, SVG Export Plug-In . SVG Version: 6.00 Build 0)  -->
<!DOCTYPE svg PUBLIC "-//W3C//DTD SVG 1.1//EN" "http://www.w3.org/Graphics/SVG/1.1/DTD/svg11.dtd">
<svg version="1.1" id="Capa_1" xmlns="http://www.w3.org/2000/svg" xmlns:xlink="http://www.w3.org/1999/xlink" x="0px" y="0px"
	 viewBox="0 0 37.2 27.6" enable-background="new 0 0 37.2 27.6" xml:space="preserve">
<g>
	<g>
		
			<line fill="none" stroke="#B4B5B7" stroke-width="2" stroke-linecap="round" stroke-miterlimit="10" x1="6.5" y1="13.4" x2="7.5" y2="13.4"/>
		<g>
			<path fill="#B4B5B7" d="M30.3,14.4h-1c-0.6,0-1-0.4-1-1s0.4-1,1-1h1c0.6,0,1,0.4,1,1S30.8,14.4,30.3,14.4z M24.3,14.4h-1
				c-0.6,0-1-0.4-1-1s0.4-1,1-1h1c0.6,0,1,0.4,1,1S24.8,14.4,24.3,14.4z M18.3,14.4h-1c-0.6,0-1-0.4-1-1s0.4-1,1-1h1
				c0.6,0,1,0.4,1,1S18.8,14.4,18.3,14.4z M12.3,14.4h-1c-0.6,0-1-0.4-1-1s0.4-1,1-1h1c0.6,0,1,0.4,1,1S12.8,14.4,12.3,14.4z"/>
		</g>
	</g>
	<polyline fill="none" stroke="#B4B5B7" stroke-linejoin="round" stroke-miterlimit="10" points="24,4 35,13.9 35,14 24.3,24 	"/>
</g>
</svg>
