<?xml version="1.0" encoding="utf-8"?>
<!-- Generator: Adobe Illustrator 17.1.0, SVG Export Plug-In . SVG Version: 6.00 Build 0)  -->
<!DOCTYPE svg PUBLIC "-//W3C//DTD SVG 1.1//EN" "http://www.w3.org/Graphics/SVG/1.1/DTD/svg11.dtd">
<svg version="1.1" id="Capa_1" xmlns="http://www.w3.org/2000/svg" xmlns:xlink="http://www.w3.org/1999/xlink" x="0px" y="0px"
	 viewBox="0 0 57.4 85.5" enable-background="new 0 0 57.4 85.5" xml:space="preserve">
<g>
	<g>
		<path fill="#454344" d="M39.7,35.3c0,0.1,0,0.2-0.1,0.3c0.4,0.1,0.8,0.2,1.1,0.3c0.6,0.2,0.7,0.7,0.3,1.1
			c-0.1,0.1-0.2,0.2-0.3,0.3c0.1,0.2,0.2,0.4,0.3,0.6c0.2,0.3,0.1,0.5-0.2,0.7c-1,0.6-1.6,0.5-2.4-0.3c-0.5-0.5-1.1-0.3-1.7-0.4
			c-0.1,0.3-0.3,0.5-0.4,0.8c0.3,0.1,0.7,0.2,1,0.4c0.3,0.2,0.4,0.5,0.7,0.7c0.3,0,0.6,0,0.9,0.1c0.4,0.2,0.5,0.5,0.3,0.9
			c-0.2,0.4-0.6,0.7-1.1,0.7c-0.7,0-1.4,0-2.1-0.2c-0.8-0.2-0.8-0.2-1.2,0.5c-0.3,0.5-0.7,1.1-1.1,1.6c0.2,0.1,0.4,0.1,0.5,0.2
			c0.5,0.4,0.9,0.3,1.4,0.1c1.3-0.5,2.5-1.2,3.5-2.2c1.5-1.4,2.9-2.8,4.4-4.3c0.2-0.2,0.5-0.4,0.7-0.6c0.3-0.2,0.6,0.1,0.5,0.4
			c-0.2,0.7-0.5,1.3-1,1.9c-1.1,1.5-2.6,2.4-4.1,3.3c-1.5,0.9-3.1,1.5-4.8,2c-0.3,1-0.8,1.3-1.8,1.4c-0.8,0-1.3,0.4-1.8,0.9
			c-0.2,0.2-0.4,0.5-0.6,0.8c0.3,0.1,0.4,0,0.6-0.1c0.3-0.3,0.6-0.3,0.9,0c0.3-0.2,0.5-0.5,0.8-0.7c0.2,0.3,0.5,0.4,0.6,0.7
			c0.1,0.2,0.1,0.4,0,0.6c-0.2,0.3-0.1,0.6,0.1,0.9c0.4-0.3,0.4-0.8,0.5-1.3c0.1-0.4,0.2-0.8,0.3-1.3c0-0.2,0.1-0.3,0.2-0.4
			c0.4-0.4,0.8-0.7,1-1.2c0.1-0.3,0.4-0.3,0.7-0.1c0.2,0.2,0.5,0.3,0.8,0.3c0.4,0,0.5,0.3,0.4,0.7c0,0.2-0.1,0.3-0.2,0.5
			c-0.3,0.3-0.5,0.7-0.5,1.1c0.5-0.1,0.8-0.4,0.8-1c0-0.3,0.1-0.6,0.1-0.9c0.1-0.7,0.4-0.9,1.1-0.9c0.3,0,0.5-0.3,0.9,0.1
			c0.5,0.5,0.6,0.5,0.2,1.2c0.5-0.2,0.9-0.4,1-1c0-0.3,0.2-0.6,0.4-0.9c0.4-0.7,0.7-0.7,1.3,0c0.5-0.5,1.1-0.6,1.6,0
			c0.2-0.1,0.4-0.2,0.6-0.3c0.1,0.2,0.3,0.4,0.4,0.6c-0.4,0.3-0.9,0.6-1.3,0.9c-0.1,0.1-0.1,0.2-0.2,0.4c-0.3,0.5-0.6,0.7-1.2,0.6
			c-0.3-0.1-0.6-0.2-0.9-0.3c-0.4-0.2-0.8-0.2-1.2,0.1c0.2,0.5,0.4,0.9,0.6,1.4c0.1,0.2-0.1,0.4-0.2,0.6c-0.2,0.2-0.5,0.3-0.9,0.2
			c-0.6-0.2-1.3-0.4-1.9-0.6c-0.4-0.2-0.6,0-1,0.1c-0.3,0.1-0.3,0.4-0.4,0.7c0.3,0,0.6,0,0.9,0c0.2,0,0.4,0.2,0.5,0.3
			c0.1,0.2-0.1,0.4-0.3,0.5c-0.5,0.2-0.8,0.6-1.2,0.8c-0.6,0.2-1.3,0-1.9-0.3c-0.2-0.1-0.3-0.2-0.4-0.3c-0.3-0.1-0.3-0.1-0.7,0.2
			c0.2,0,0.3,0,0.4,0c0.4,0.1,0.5,0.3,0.4,0.7c-0.1,0.3-0.2,0.5-0.3,0.8c0.2,0.1,0.5,0.2,0.7,0.3c0.3,0.2,0.3,0.6-0.1,0.7
			c-0.4,0.1-0.8,0-1.1,0c-0.1,0-0.3-0.1-0.4-0.1c-0.7,0.5-1.3,0.2-2-0.2c0,0-0.1,0-0.1,0.1c-0.4,1-0.7,1.1-1.5,0.4
			c-0.1-0.1-0.1-0.2-0.1-0.3c-1.1,0.9-2.1,1.7-3.1,2.5c-0.1,0.1-0.2,0.2-0.2,0.2c-0.1,0.6-0.2,1.1-0.2,1.6c0.1-0.1,0.3-0.1,0.5-0.2
			c1.4-0.7,2.8-1.3,4.3-1.9c1.1-0.5,2.2-0.7,3.4-0.7c0.3,0,0.5-0.1,0.8-0.1c0.2,0,0.5,0,0.7,0.1c0,0.5-0.3,0.6-0.6,0.7
			c-1.1,0.4-2.2,0.8-3.3,1.2c-1.3,0.5-2.5,0.9-3.8,1.3c-0.1,0-0.2,0.1-0.4,0.2c2.2-0.3,4.3-0.7,6.4-1c2.1-0.3,4.2-0.7,6.2-1.4
			c0.2,0.5-0.1,0.7-0.4,0.9c-1,0.9-2.2,1.4-3.6,1.6c-2.9,0.4-5.7,0.8-8.6,1.2c-0.8,0.1-1.6,0.2-2.3,0.6c-0.2,0.1-0.5,0.2-0.8,0.1
			c-0.4-0.1-0.7,0-1,0.1c-0.6,0.2-1.1,0.5-1.7,0.8c0.6-0.1,1.3-0.2,1.9-0.2c1.2,0,2.4,0.1,3.6,0.1c0.7,0,1.5,0.1,2.2,0.2
			c0.6,0.1,1.1,0.3,1.7,0.5c0.1,0,0.2,0.2,0.4,0.3c-0.3,0.1-0.4,0.2-0.6,0.2c-0.5,0-1,0-1.5,0c-2.4-0.2-4.9-0.4-7.3-0.6
			c-0.5,0-1,0-1.4,0.1c-0.2,0.5-0.4,0.9-0.6,1.4c-0.1,0.1-0.2,0.3-0.3,0.4c-0.5,0.2-0.6,0.7-0.6,1.1c-0.4,2.5-1.1,5-1.9,7.4
			c-0.2,0.7-0.2,0.7-0.7,1.1c-0.2-0.3-0.1-0.6,0-0.8c0.4-1.4,0.8-2.7,1.1-4.1c0.3-1.2,0.6-2.5,0.9-3.7c0-0.2,0.1-0.3,0-0.5
			c-0.2,0.3-0.4,0.6-0.6,1c-1.3,2.3-2.2,4.7-2.7,7.3c-0.1,0.7-0.2,1.4-0.2,2.2c0,0.3,0,0.6-0.3,0.8c-0.3-0.4-0.3-0.8-0.3-1.2
			c0.1-1.3,0.3-2.6,0.6-3.8c0.4-1.3,0.8-2.6,1.3-3.9c-0.7,1-1.3,2-2,3c0-0.2,0-0.5,0.1-0.7c0.6-1,1.3-2,2-3c0.1-0.1,0.1-0.4,0.2-0.5
			c0.4-0.5,0.7-1,1.1-1.5c-0.2-0.3-0.2-0.6,0-1c0.3-0.5,0.5-1.1,1.2-1.3c0.6-0.2,0.9-1.3,0.7-2.1c-0.2-0.6-0.4-1.2-0.7-1.8
			c-0.1-0.2-0.3-0.4-0.5-0.6c-0.5-0.4-0.8-0.8-0.4-1.5c-0.5-0.5-1.1-1-1.6-1.5c-1.7-1.6-3.4-3.3-4.6-5.3c-0.4-0.6-0.6-1.2-1-1.9
			c0-0.1,0-0.2-0.1-0.4c0.2,0.1,0.3,0.1,0.5,0.2c0.1,0.1,0.3,0.2,0.4,0.3c1.8,1.7,3.6,3.4,5.4,5.2c0.8,0.8,1.3,1.7,1.8,2.7
			c0.1,0.3,0.3,0.6,0.7,0.5c0.3-0.4,0.5-0.9,0.8-1.3c0.3-0.4,0.8-0.4,1.3,0.2c-0.1-0.8-0.2-1.5-0.8-2c-0.2-0.2-0.3-0.5-0.5-0.7
			c-0.2,0.1-0.4,0.2-0.7,0.2c-0.5,0.1-0.9-0.1-1-0.4c-0.1-0.3,0.1-0.6,0.5-0.9c0.1-0.1,0.2-0.1,0.4-0.2c-0.6-0.6-1.1-1.2-1.6-1.7
			c-0.6-0.6-1.3-1.3-1.9-1.9c-1.3-1.3-2.2-2.8-2.9-4.5c-0.1-0.3-0.2-0.6-0.2-0.9c0-0.1,0.1-0.3,0.2-0.4c0.1-0.1,0.3,0,0.5,0.1
			c0.3,0.2,0.5,0.5,0.7,0.7c1.3,1.9,2.7,3.8,4,5.7c0.6,0.8,1.1,1.6,1.7,2.5c0.2,0.3,0.5,0.5,0.9,0.7c-0.3-0.8-0.7-1.6-1.1-2.3
			c-1.6-2.8-2.8-5.7-3.4-8.9c-0.2-0.8-0.2-1.7-0.2-2.5c0-0.4,0-0.4,0.4-0.8c0.4,0.1,0.5,0.5,0.6,0.9c0.4,1.3,0.7,2.5,1,3.8
			c0.1,0.3,0.1,0.5,0.3,0.8c0-0.5-0.1-1-0.1-1.5c0-1.7,0.1-3.4,0.5-5.1c0.1-0.5,0.4-1,0.7-1.5c0.1-0.1,0.3-0.3,0.5-0.3
			c0.2,0,0.4,0.3,0.4,0.4c0.1,0.4,0.1,0.9,0.1,1.4c-0.1,0.9-0.2,1.8-0.2,2.8c-0.1,2.3-0.2,4.5-0.1,6.8c0,0,0-0.1,0.1-0.1
			c0.1-0.3,0.2-0.5,0.5-0.6c0.3,0,0.4,0.3,0.6,0.5c0,0,0,0.1,0.1,0.2c0.1-0.1,0.2-0.2,0.4-0.3c0.8-0.7,1.7-0.7,2.4,0
			c0.4,0.4,0.7,0.8,1.1,1.1c0.1,0.1,0.1,0.1,0.2,0.1c-0.4-0.6-0.9-1.1-0.6-1.9c-0.3,0-0.5,0-0.8,0c-0.9,0-1.6-0.6-1.8-1.5
			c-0.1-0.4,0.1-0.7,0.4-0.9c0.3-0.2,0.6-0.4,0.9-0.2c0.3,0.2,0.7,0.4,1,0.6c0.3,0.2,0.4,0.5,0.5,0.9c0,0.2,0.1,0.5,0.1,0.8
			c0.3-0.1,0.6-0.2,0.8-0.3c-0.2-0.2-0.4-0.4-0.5-0.6c-0.2-0.2-0.3-0.5-0.3-0.8c0-0.5-0.2-0.7-0.6-0.9c-1.1-0.8-2.1-1.8-2.9-3
			c-0.6-0.9-1-1.9-1-3.1c0-0.7,0-1.4,0-2c0-0.2,0.1-0.5,0.2-0.9c0.2,0.2,0.4,0.3,0.4,0.4c0.2,0.3,0.3,0.7,0.4,1.1
			c0.4,1.1,0.7,2.2,1.1,3.3c0.5,1.5,1.3,2.8,2.3,3.9c0.2-0.2,0.3-0.4,0.6-0.7c0-0.4-0.2-0.8-0.8-1.1c-0.4-0.2-0.8-0.6-1.1-1
			c-0.4-0.5-0.3-0.8,0.4-1c-0.1-0.3-0.3-0.6-0.2-0.8c0-0.3,0.3-0.5,0.5-0.8c-0.6-0.6-1.2-1.2-1.7-1.9c-1.2-1.7-1.9-3.6-2.3-5.5
			c-0.2-1-0.5-1.9-0.4-2.9c0-0.2,0.1-0.5,0.1-0.7c0.5,0,0.5,0.3,0.6,0.5c0.5,1.3,1,2.5,1.4,3.8c0.4,1.2,0.8,2.5,1.3,3.7
			c-0.1-0.3-0.1-0.7-0.2-1c-0.3-1.5-0.5-3-0.5-4.5c0-0.8-0.1-1.7-0.1-2.5c0-0.8,0-1.5,0.1-2.2c0.1-0.5,0.4-1,0.7-1.5
			c0.2-0.4,0.5-0.3,0.7,0c0.1,0.3,0.2,0.5,0.2,0.8c0.2,2,0,4-0.1,6c-0.1,1.9-0.1,3.8,0,5.7c0,0.6,0.3,1.2,0.5,1.8c0-0.7,0-1.3,0-2
			c0-1.3,0-2.5,0-3.8c0-0.9,0.2-1.7,0.6-2.4c0.1-0.2,0.3-0.4,0.4-0.6c0.4,0.4,0.4,1,0.4,1.4c-0.1,2.1-0.3,4.1-0.5,6.2
			c0,0.4-0.2,0.8-0.3,1.2c0.3,0.3,0.6,0.7,0.9,1.1c-0.1-0.3-0.2-0.5-0.3-0.8c-0.1-0.3,0-0.6,0.2-0.9c0.2-0.2,0.5-0.2,0.8-0.1
			c0.2,0.1,0.4,0.2,0.6,0.2c0.9,0.1,1.1,0.3,1.2,1.3c0.3-0.5,0.4-1.1,0.4-1.6c-0.2,0-0.4,0.1-0.5,0c-0.3-0.1-0.6-0.1-0.9-0.3
			c-0.3-0.1-0.5-0.4-0.7-0.6c-0.1-0.1-0.2-0.3-0.3-0.4c-0.1-0.3-0.1-0.7-0.2-1c-0.1-0.5,0.2-0.9,0.7-0.9c0.3,0,0.7,0,1,0
			c0.5,0,0.7,0.3,1,0.7c0.1,0.2,0.2,0.4,0.3,0.7c0-0.5,0-1,0.3-1.4c0.3-0.4,0-0.8-0.5-0.9c-0.3-0.1-0.5-0.1-0.8-0.2
			c-0.7-0.4-0.8-1.1-0.2-1.7c0.1-0.1,0.1-0.1,0.2-0.2c-0.2-0.1-0.4-0.2-0.5-0.3c-0.2-0.2-0.5-0.5-0.7-0.8c-0.2-0.3-0.1-0.6,0-0.8
			c0.2-0.3,0.5-0.2,0.7-0.1c0.6,0,1.1,0.2,1.4,0.7c0.4-0.2,0.7-0.5,1.1-0.7c-0.2,0-0.4-0.1-0.7-0.2c-0.6-0.2-1.1-0.5-1.5-1.1
			c-0.2-0.3-0.2-0.6,0-0.8c0.2-0.3,0.6-0.4,0.9-0.2c0.3,0.2,0.6,0.5,0.8,0.7c0.1-0.1,0.2-0.4,0.4-0.6c0.2-0.2,0.6,0.1,0.6-0.4
			c-0.1,0-0.2,0-0.3,0.1c-0.1,0-0.3,0.1-0.4,0.1c-0.7,0.1-2.3-0.8-2.5-1.4c-0.1-0.4,0-0.8,0.2-1.1c0.2-0.3,0.7-0.4,1-0.1
			c0.1,0.1,0.3,0.2,0.4,0.3c0.1,0.1,0.2,0.3,0.4,0.5c-0.1-0.4-0.1-0.7-0.1-1c-0.1-0.8,0.3-1.2,1.1-1.2c0.2,0,0.4-0.1,0.7-0.1
			c0.1,0.3,0.2,0.7,0.3,1.2c0.2-0.7,0.4-1.2,0.5-1.7c-0.2,0-0.4,0-0.6-0.1c-0.9-0.1-1.5-0.6-1.7-1.4c-0.1-0.5,0-0.9,0.4-1.2
			c0.3-0.2,0.9-0.1,1.2,0.2c0.2,0.2,0.3,0.5,0.5,0.8c0.1,0.3,0.2,0.6,0.3,1c0.1-0.6,0.2-1.1,0.3-1.4c-0.3-0.2-0.7-0.3-1-0.6
			c-0.4-0.3-0.5-0.7-0.3-1.2c0.1-0.2,0.2-0.4,0.3-0.6c0.4-0.7,1.1-0.7,1.5,0c0,0.1,0.1,0.1,0.1,0.2c0.2-0.2,0.3-0.4,0.4-0.6
			c0.4-0.5,0.7-0.5,1.3-0.3c0.1,0,0.1,0,0.2,0l0,0c-0.1,0.2-0.1,0.4-0.2,0.7c0.2-0.1,0.3-0.1,0.4-0.2c0.1-0.1,0.2-0.2,0.4-0.3
			c0.1,0.4-0.2,0.4-0.3,0.5c0,0,0,0.1,0,0.1c0.3,0.6-0.1,1.3-0.9,1.5c-0.3,0-0.6,0-0.9,0.1c0.2,0,0.4,0.1,0.7,0
			c0.3-0.1,0.6-0.2,0.9,0.1c0.2,0.3,0.1,0.6-0.1,0.9c0,0,0,0.1-0.1,0.1c0.1,0.1,0.3,0.3,0.4,0.4c0.1,0.1,0.2,0.3,0.3,0.5
			C36,16.8,35.6,17,35,17.1c-0.5,0-0.9,0-1.4,0c-0.2-0.1-0.4-0.2-0.6-0.3c-0.1,0.3-0.1,0.5-0.2,0.7c0.3-0.1,0.6-0.3,0.8-0.4
			c0.1,0.1,0.4,0.2,0.4,0.3c0.1,0.3,0.4,0.4,0.7,0.4c0.2,0,0.5,0.1,0.5,0.4c0,0.2-0.2,0.4-0.3,0.5c-0.2,0.1-0.5,0.2-0.9,0.3
			c0.4,0,0.7,0,0.9,0.3c0.2,0.4,0.1,0.7-0.1,1c0.2,0.1,0.3,0.1,0.5,0.2c0.4,0.2,0.4,0.6,0,0.8c-0.4,0.2-0.8,0.3-1.2,0.2
			c-0.4-0.1-0.7-0.3-1.1-0.3c-0.4-0.1-0.7,0-1.2,0c0.2,0.2,0.3,0.4,0.4,0.5c0.1,0.2,0.1,0.5,0.1,0.8c0.5-0.4,1.1-0.3,1.7-0.3
			c0.3,0,0.7,0.1,0.8,0.5c0.1,0.4-0.1,0.6-0.4,0.8c-0.6,0.5-1.3,0.7-2.1,0.4c-0.3-0.1-0.6-0.3-1-0.1c0.1,0.3,0.2,0.6,0.3,0.9
			c0.5-0.1,0.9-0.1,1.4-0.2c0.3,0,0.6,0,0.7,0.3c0.2,0.2,0.1,0.6-0.2,0.8c-0.4,0.4-1,0.6-1.5,0.6c-1.2,0-1.2,0-1.4,1.3
			c0.4-0.2,0.9-0.4,1.4-0.6c0.4-0.1,0.8-0.1,1.2,0.2c0.5,0.4,0.5,0.9-0.1,1.3c-0.4,0.3-0.9,0.3-1.4,0.2c-0.3-0.1-0.5-0.2-0.8-0.2
			c-0.4-0.1-0.5,0-0.6,0.5c0.3,0,0.7,0,1,0.1c0.7,0.1,0.9,0.5,0.7,1.2c0,0.1-0.1,0.2-0.1,0.2c0.3,0.2,0.6,0.4,0.7,0.6
			c0.1,0.4-0.1,0.8-0.4,1.1c-0.7,0.6-1.7,0.5-2.5-0.3c0,0.1-0.1,0.3-0.1,0.4c0,0.1,0,0.3,0,0.4c0.3,0,0.5-0.1,0.8,0
			c0.6,0,0.8,0.3,0.6,0.9c0,0.1-0.1,0.2-0.2,0.3c0.4,0.1,0.7,0.5,1.2,0.3c0.1-0.1,0.4,0.1,0.7,0.2c0.6-1,1.3-1.9,1.2-3.2
			c-0.1-2,0.2-3.9,0.9-5.7c0.2-0.6,0.5-1.1,0.7-1.7c0.1-0.2,0.2-0.4,0.3-0.6c0.1-0.1,0.3-0.2,0.4-0.2c0.1,0.1,0.2,0.2,0.2,0.4
			c0,0.3,0,0.6-0.1,0.9c-0.3,0.9-0.6,1.7-0.8,2.6c-0.3,1.1-0.6,2.3-0.9,3.4c0,0.2,0,0.4,0,0.8c0.9-1.5,1.5-2.9,1.8-4.4
			c0.5-2.3,1.4-4.5,2.3-6.6c0.2-0.4,0.4-0.7,0.7-1.1c0.1-0.1,0.3-0.2,0.4-0.4c0.4,0.2,0.4,0.5,0.3,0.9c-0.3,1-0.6,2-1,2.9
			c-0.8,1.8-1.6,3.5-2.4,5.2c-0.1,0.1-0.1,0.3-0.1,0.4c0.2-0.2,0.4-0.5,0.6-0.7c1.4-1.8,2.8-3.7,3.9-5.7c0.3-0.4,0.5-1,1.1-1.2
			c0.3,0.2,0.3,0.5,0.2,0.9c-0.3,1.3-0.9,2.4-1.7,3.4c-1.3,1.6-2.7,3-4.2,4.3c-0.9,0.7-1.4,1.7-2,2.6c-0.5,0.8-1,1.7-1.5,2.5
			c0.1,0.4,0.4,0.7,0.4,1c0,0.3-0.2,0.7-0.4,1.1c0,0.1,0.1,0.5,0,0.7c-0.1,0.3-0.5,0.5-0.8,0.6c-0.4,0.2-0.9,0.2-1.3,0.3
			c-0.3,0.1-0.5,0.1-0.8,0.1c-0.4-0.5-1-0.5-1.5-0.8c-0.1,0.4-0.1,0.7-0.2,1.1c0.5-0.5,0.9-0.7,1.4-0.4c0.1,0,0.2,0,0.3,0
			c0.8,0.6,0.8,0.7-0.1,1.2c0.2,0.2,0.4,0.4,0.6,0.5c0.5-0.3,1-0.5,1.6-0.8c-0.2-0.5,0.1-0.8,0.4-1.2c0,0,0-0.1,0.1-0.1
			c0.3-0.1,0.6-0.1,0.9-0.3c0.4-0.2,0.6-0.1,0.9,0.1c0.5,0.2,0.8,0.6,1,1.1c0.3,0.1,0.5,0,0.6-0.3c0.1-0.3,0.2-0.7,0.3-1
			c0-0.1-0.2-0.2-0.3-0.3c-0.3-0.2-0.7-0.4-1-0.5c-0.7-0.3-0.9-0.9-1.1-1.5c0-0.1,0.1-0.4,0.2-0.5c0.3-0.3,0.7-0.4,1.1-0.3
			c0.2,0.1,0.4,0.1,0.6,0.2c0-0.2,0-0.4,0-0.6c0.3,0.5,0.2,1.2,1,1.6c-0.2-0.3-0.3-0.5-0.4-0.7c-0.2-0.4-0.1-0.7,0.1-0.9
			c0.2-0.2,0.4-0.2,0.9,0.1c0.1-0.3,0.3-0.5,0.5-0.8c0.3,0.2,0.2,0.4,0.1,0.6c-0.2,0.3-0.3,0.6,0,0.9c0.5-0.3,0.6-0.8,0.9-1.4
			c-0.3-0.3-0.7-0.7-1-1c-0.4-0.3-0.6-0.7-0.6-1.2c-0.1-0.7,0.3-0.9,0.9-0.7c0.1-0.3,0.2-0.6,0.4-0.8c0.4-0.5,0.8-0.5,1.1,0.1
			c0.1,0.2,0.2,0.5,0.3,0.8c0.1-0.7,0.5-0.9,1.1-1c0.5,0,0.5-0.1,0.8-0.6c-1,0-1.7-0.4-2.1-1.3c0.3-0.2,0.5-0.3,0.6-0.6
			c0.1-0.6,1.1-0.8,1.5-0.4c0.3,0.3,0.5,0.3,0.8,0.1c0,0,0.1,0,0.2,0c0.2,0,0.4,0.1,0.5,0c0.2-0.2,0.3-0.4,0.4-0.7
			c0-0.1-0.2-0.3-0.3-0.3c-0.5-0.2-1-0.3-1.6-0.4c0.1-0.6,0.1-0.6,0.9-0.7c0.1-0.4-0.1-1.1,0.6-1.2c0.5-0.1,0.8,0.1,1.2,0.8
			c0.2-0.1,0.4-0.2,0.6-0.4c-1-0.6-1.1-0.9-0.5-1.5c0.5,0.3,0.8,0.7,0.9,1.3c0.5-0.7,0.6-0.8-0.1-1.4c-0.3-0.3-0.4-0.7-0.4-1.1
			c0-0.5,0.5-0.7,1-0.7c0.4-0.3,0.7-0.5,1-0.7c0,0,0.1,0,0.1,0.1c-0.1,0.2-0.1,0.4-0.2,0.6c0.8,0.4,0.9-0.6,1.5-0.9
			c0,0.6,0,1.1,0,1.6c0,0.1,0,0.3,0,0.3c0.3,0.5,0.4,1.1,0,1.6c-0.4,0.5-1,0.6-1.6,0.5c-0.2,0-0.4-0.1-0.6-0.2
			c-0.3,0.2-0.4,0.5-0.2,0.8c0.1,0.3,0.1,0.6,0.2,0.9c0.3-0.1,0.6-0.2,0.8-0.3c-0.1,0.4-0.1,0.4-1,0.6c0.4,0.3,0.8,0.7,0.6,1.3
			c-0.1,0.5-0.5,0.4-0.9,0.4c-0.2,0.3-0.3,0.5-0.5,0.8c-0.5-0.2-0.7-0.5-0.8-1c-0.1-0.2-0.1-0.5-0.4-0.5c-0.1,0-0.3,0.2-0.4,0.3
			c-0.1,0.1-0.2,0.3-0.3,0.5c0.1,0.2,0.2,0.4,0.3,0.6c0.2-0.2,0.4-0.3,0.5-0.4c0,0,0.1,0.1,0.1,0.1c-0.1,0.2-0.3,0.4-0.4,0.5
			c0.2,0.2,0.5,0.3,0.6,0.5c0.1,0.2,0,0.5-0.1,0.8c0.3,0.6,0.3,0.6-0.3,1.1c-0.1,0.1-0.2,0.2-0.2,0.3c-0.3,0.4-0.5,0.5-0.9,0.2
			c-0.2-0.1-0.3-0.4-0.4-0.6c-0.2-0.3-0.3-0.5-0.5-0.8c-0.3,0.2-0.4,0.4-0.3,0.8c0.2,0.5,0.1,1,0.4,1.5c0.1,0.2,0.2,0.6-0.1,0.9
			c0.4-0.1,0.6-0.2,0.8-0.2c0.2,0,0.4,0.2,0.6,0.4c0.5,0.3,0.3,1.2-0.2,1.3c-0.7,0.2-1.4,0.3-2.1,0.4c-0.3,0-0.5-0.2-0.8-0.3
			c-0.2-0.1-0.3-0.2-0.4-0.2c-0.7-0.3-0.8-0.2-1.2,0.4c-0.1,0.2-0.2,0.4-0.3,0.6c0.2,0.1,0.4,0.2,0.5,0.4c0.1,0.2,0.1,0.4,0.2,0.6
			C39.4,35.4,39.5,35.3,39.7,35.3L39.7,35.3z M31.7,35.6c-0.1,0-0.2,0.1-0.4,0.1c0.2-0.2,0.3-0.4,0.4-0.6c-0.5,0.3-1,0.6-1.4,0.8
			c0.4,0,0.7,0,1,0C31.5,35.8,31.7,35.7,31.7,35.6c0.1,0,0.2,0,0.3,0c0,0.1,0,0.2,0.1,0.3c0.6,0.1,0.8-0.2,0.9-1.1
			c-0.2,0.1-0.4,0.2-0.6,0.3c0-0.1,0-0.2,0-0.3c0,0-0.1,0-0.1,0C32.1,35,31.9,35.3,31.7,35.6z M27.6,37.8c-0.3,0.1-0.6,0.2-0.6,0.6
			c0,0.3,0.4,0.6,0.9,0.6c0-0.1,0-0.2,0.1-0.3c0.3-0.4,0.1-0.7-0.2-1C27.8,37.7,27.7,37.8,27.6,37.8z M24.8,44.5
			c-0.4-0.1-0.7-0.3-1.1-0.1c-0.1,0.4,0.2,0.7,0.5,0.7c0.5,0,1.1-0.1,1.6-0.2C25.4,44.7,25.1,44.6,24.8,44.5c0.5,0,0.9,0.1,1.4,0.1
			c-0.2-0.2-0.5-0.4-0.7-0.4c-0.2,0-0.5,0-0.7,0C24.8,44.2,24.8,44.4,24.8,44.5z M30.6,50c-0.1,0.2-0.3,0.4-0.4,0.6
			c1,0.2,1.7-0.1,2-0.9c-0.2,0-0.4-0.1-0.5-0.1c0.1-0.3,0.2-0.6,0.4-1C31.2,48.9,30.8,49.3,30.6,50z M25.8,25.2c0-0.1,0-0.2,0-0.3
			c-0.7,1.9-0.7,4-0.6,6c0.1-0.9,0.2-1.8,0.2-2.7c0-0.6,0.1-1.1,0.2-1.7C25.6,26.1,25.7,25.7,25.8,25.2c-0.1,1-0.1,2.1-0.2,3.1
			c-0.1,0.9-0.2,1.9-0.2,2.8c0,0.2,0,0.3,0,0.5c0,0,0.1,0,0.1,0c0.2-2.2,0.4-4.4,0.6-6.8C25.9,25,25.9,25.1,25.8,25.2z M14,41.3
			c0.6,1.4,1.4,2.5,2.4,3.6c0.4,0.4,0.7,0.7,1.2,1.2c0-0.2,0-0.2,0-0.3c0.2,0.2,0.4,0.4,0.6,0.7c0.2,0.3,0.5,0.6,0.7,0.9
			c-1.1-2.1-4.9-7.4-5.6-7.8c0.1,0.1,0.1,0.3,0.2,0.4c0,0.1-0.1,0.2-0.1,0.3C13.6,40.6,13.8,41,14,41.3z M17.9,41.7c0,0,0.1,0,0.1,0
			c0.3,0.7,0.6,1.5,1,2.3c0-0.1,0-0.2,0-0.3c-0.6-2.3-1.1-4.6-1.7-6.9c-0.1-0.6-0.4-1.1-0.6-1.6c-0.1-0.1-0.1-0.2-0.2-0.5
			c-0.1,1.1-0.1,2.1,0.1,3C17,39,17.3,40.4,17.9,41.7z M37.9,23.7c-0.2,0.6-0.3,1.1-0.5,1.7c0,0,0.1,0,0.1,0
			c0.7-1.7,1.4-3.4,2.1-5.1c0.1-0.2,0.1-0.4,0.1-0.6c0,0-0.1,0-0.1,0c-0.3,0.7-0.6,1.3-1,2c0.1-0.3,0.1-0.6,0.2-0.8
			c0.1-0.3,0.2-0.7,0.4-1c-1,1.5-2.4,5.3-2.4,6.3c0.2-0.5,0.3-1,0.5-1.5C37.6,24.3,37.8,24,37.9,23.7z M23.2,37
			c0.3,0.3,0.6,0.5,0.9,0.8c0,0,0,0,0.1,0c0,0,0,0,0-0.1c-0.7-1-1.2-2.1-1.6-3.2c-0.4-1.1-0.8-2.3-1.1-3.4c0-0.1,0-0.1-0.1-0.1
			c-0.1,0.1-0.2,0.3-0.2,0.4c0,0.8-0.1,1.5,0,2.3c0.2,1.2,0.8,2.3,1.7,3.1C23,36.9,23.1,37,23.2,37z M29,43.1c0.1,0,0.1,0.1,0.2,0.1
			c0.5-0.3,0.9-0.7,1.1-1.3c0-0.1-0.1-0.2-0.1-0.3c-0.2,0.3-0.4,0.5-0.6,0.8c0-0.2,0.1-0.5,0.2-0.8c-0.3,0-0.5,0.1-0.8,0
			c-0.5,0-0.9,0.2-1.1,0.7c-0.1,0.2-0.2,0.5-0.3,0.7c0,0,0,0.1,0.1,0.1c0.1-0.1,0.3-0.3,0.5-0.4c0,0.2,0,0.3,0,0.4
			c0.2,0,0.4,0,0.6,0C28.8,43.2,28.9,43.2,29,43.1z M32.3,44.3c0.1-0.2,0.2-0.4,0.4-0.6c-0.7,0.3-0.7,0.3-0.8,0.8
			C32.1,44.5,32.2,44.4,32.3,44.3c0,0.1-0.1,0.3,0,0.4c0.1,0.2,0.3,0.4,0.5,0.7c0.4-0.1,0.8-0.1,1.2-0.3c0.5-0.2,0.4-1,0-1.1
			c-0.4-0.1-0.9-0.4-1.3,0.1C32.6,44.2,32.5,44.3,32.3,44.3z M42,21.2c-0.1,0.2-0.3,0.4-0.4,0.6c-0.7,1.1-1.4,2.2-2.1,3.3
			c-0.5,0.8-1.1,1.5-1.7,2.3c0.6-0.2,0.6-0.2,1-0.8c0.2-0.1,0.3-0.2,0.5-0.3c0.4-0.4,0.8-0.9,1.2-1.3c0.8-1,1.4-2.1,1.8-3.3
			c0.1-0.2,0.1-0.4,0-0.7C42.1,21,42,21.1,42,21.2z M22.4,29.4c0.2,0.3,0.3,0.5,0.5,0.8c0.1,0.2,0.3,0.5,0.4,0.7c0,0,0.1,0,0.1-0.1
			c-1.1-2.6-1.6-5.3-2.9-7.9c0,0.1,0,0.2,0.1,0.3c-0.3,0.2-0.2,0.4-0.1,0.6c0.4,2.1,1,4.1,1.9,6.1c0.1,0.2,0.2,0.4,0.4,0.6
			c0,0,0,0,0.1,0C22.7,30.2,22.6,29.8,22.4,29.4z M25.7,48.7c0,0.4,0,0.7,0,1.1c0.6-0.5,0.7-0.9,0.3-1.4c0,0.2-0.1,0.4-0.1,0.6
			C25.8,48.9,25.7,48.8,25.7,48.7c0-0.1,0.1-0.2,0.1-0.3c-0.4-0.2-0.7-0.3-1.1-0.2c-0.2,0.1-0.4,0.1-0.6,0.1c-0.5,0-0.6,0.2-0.5,0.6
			c0.1,0.4,0.3,0.7,0.4,1.1c0.1,0.3,0.3,0.6,0.5,0.8c0.4-0.3,0.7-0.8,0.9-1.3C25.5,49.3,25.6,49,25.7,48.7z M40.1,41.1
			c-0.1,0.2-0.3,0.4-0.4,0.7c-0.1,0.1-0.1,0.2-0.2,0.3c0.6-0.3,1.1-0.5,1.6-0.9c1.2-0.8,2.3-1.8,3-3.2c0.2-0.3,0.3-0.6,0.3-1.1
			C42.8,38.2,41.3,39.6,40.1,41.1z M12.7,46.8c-0.3-0.3-0.5-0.7-1.1-0.9c0.2,0.4,0.3,0.7,0.4,0.9c0.4,0.6,0.9,1.3,1.3,1.9
			c1.5,1.8,3.2,3.4,5,5c0,0,0,0,0.1,0c0,0,0,0,0.1-0.1c-0.4-0.4-0.7-0.9-1.1-1.3c-0.2-0.2-0.3-0.5-0.5-0.7c0.2,0.1,0.4,0.2,0.5,0.4
			c0.4,0.4,0.7,0.8,1,1.1c-0.1-0.4-0.3-0.7-0.5-1c-0.3-0.5-0.7-1-1.1-1.4c-1.3-1.3-2.6-2.5-3.9-3.7C12.9,46.9,12.8,46.8,12.7,46.8z
			 M22.1,56.1c0.1,0,0.1-0.1,0.2-0.1c0.9-0.5,1.4-1.3,1.6-2.3c0.1-0.5-0.2-0.8-0.7-0.8c-0.2,0-0.4,0.1-0.6,0.2
			c-0.4,0.2-0.8,0.3-1.2,0.6c-0.3,0.9-0.2,1.8,0.2,2.8C21.7,56.4,21.9,56.3,22.1,56.1z M20,31.8c-0.3,0.3-0.5,0.7-0.6,1.1
			c-0.2,0.9-0.4,1.8-0.5,2.8c-0.2,1.9-0.2,3.7,0,5.6c0.1,1,0.3,2,0.7,2.9c-0.1-1-0.2-2-0.2-3c0-1,0-2.1,0-3.1c0-1,0.1-2,0.2-2.9
			c0.1,1,0,1.9,0,2.9c0,1.6,0.1,3.2,0.1,4.9c0,0.6,0.2,1.3,0.3,1.9c0-0.8,0-1.5,0-2.3c0-2.5,0-5,0.3-7.5c0.1-0.8,0.1-1.6,0.2-2.5
			C20.2,32.3,20.3,32,20,31.8z M26.4,57.7c0,0,0-0.1,0-0.1c0.2-0.1,0.3-0.1,0.5-0.2c2.1-0.6,4.2-0.7,6.3-1.1
			c1.5-0.2,2.9-0.5,4.4-0.8c0.6-0.1,1.1-0.3,1.7-0.8c-0.4,0.1-0.8,0.2-1.1,0.3c-2.7,0.7-5.5,1-8.3,1.5c-1.1,0.2-2.1,0.4-3.2,0.7
			c-0.4,0.1-0.6,0.2-0.5,0.7c0.9-0.1,1.7-0.2,2.6-0.3c2.2-0.3,4.4-0.6,6.5-1c1-0.2,2.1-0.3,2.9-0.9c-0.1,0-0.3,0-0.4,0.1
			c-1.3,0.3-2.7,0.5-4,0.8c-2,0.3-4.1,0.6-6.1,0.9C27.3,57.5,26.8,57.7,26.4,57.7z M26.6,45C26.6,45,26.6,45,26.6,45
			c-0.5,0.1-0.9,0.3-1.3,0.4c-0.8,0.3-1.6,0-1.9-0.5c-0.3-0.5-0.1-0.9,0.5-0.9c0.4,0,0.7,0,1-0.3c-0.4-0.4-0.5-0.5-0.8-0.2
			c-0.6,0.4-1.3,0.5-2,0.3c-0.2-0.1-0.4-0.1-0.6-0.1c0,0.5,0,1,0,1.5c0,0.5-0.1,1-0.1,1.4c0.5,0,0.9,0,1.3,0
			c0.1-0.1,0.2-0.4,0.3-0.6c0.3-0.4,0.6-0.5,1-0.2c0.2,0.2,0.4,0.4,0.6,0.6c0.2-0.6,0.2-0.6,0.7-0.7c0.4-0.1,0.7-0.2,1-0.3
			C26.5,45.4,26.5,45.2,26.6,45z M26.9,45.1c-0.1,0.2-0.1,0.4-0.1,0.7c0,0.4,0,0.9,0,1.4c0.5-0.5,1.1-0.2,1.7-0.2
			c0.3,0,0.5,0.2,0.5,0.5c0,0.2,0,0.4,0,0.6c0.6-0.6,1.1-1.2,1.5-1.7c-0.6-0.3-1.1-0.6-1.7-0.9c0,0-0.1,0-0.1-0.1
			C28.2,45.3,27.7,45.2,26.9,45.1z M23.9,29.7c0-0.3,0-0.7,0-1c0-0.9-0.1-1.7-0.1-2.6c0-1.9,0-3.8,0-5.7c0-0.5,0-1,0-1.5
			c-0.1,0-0.1,0-0.2,0c-0.1,0.3-0.3,0.7-0.4,1c-0.1,0.5-0.2,1-0.2,1.4c0,1.2,0.1,2.4,0.1,3.6C23.2,26.4,23.5,28.1,23.9,29.7z
			 M26.9,34.6c-0.4,0.8,0,1.6,1.1,2.2c0-0.1,0-0.2,0-0.3c0.1,0.1,0.3,0.2,0.5,0.4c0.4-0.4,0.7-0.8,1-1.3c0.1-0.1,0.1-0.5,0-0.5
			c-0.4-0.4-0.8-0.7-1.3-1c-0.1-0.1-0.3,0-0.4,0.2C27.6,34.6,27.3,34.8,26.9,34.6z M27.5,36.9c-0.3-0.3-0.4-0.5-0.6-0.7
			c-0.2-0.2-0.5-0.3-0.8-0.5c0.2,0,0.3-0.1,0.5-0.1c-0.7-0.8-1-0.8-2.4-0.4C24.5,36.5,25.9,37.3,27.5,36.9z M29.5,37.4
			c1.1,0.6,2.3,0.5,3.3-0.4c-0.1-0.2-0.1-0.4-0.3-0.5c-0.2-0.1-0.5-0.2-0.8-0.2c-0.2,0-0.4,0.1-0.6,0.1c-0.8,0-1.2,0.2-1.8,0.8
			c0.3-0.1,0.6-0.2,1-0.3c0,0,0,0.1,0,0.1C30.1,37.1,29.8,37.2,29.5,37.4z M31,41.9c0.5-0.2,0.8-0.3,1.2-0.5
			c0.3-0.2,0.6-0.4,0.8-0.7c0.3-0.4,0.3-0.5-0.1-0.9c-0.4-0.4-0.4-0.4-0.9-0.2c-0.2,0.1-0.3,0.2-0.5,0.3c-0.4,0.1-0.5,0.4-0.5,0.8
			C30.9,41.1,30.9,41.5,31,41.9z M22.5,57c0.6,0.2,1.1,0.6,1.5,1.1c0.2,0.3,0.5,0.4,0.8,0.3c0.4-0.1,0.8-0.2,1-0.7
			c0-0.1,0-0.2,0-0.3c-0.2-0.3-0.4-0.5-0.7-0.8c-0.2-0.2-0.4,0-0.7,0.1c-0.2,0.1-0.4,0.1-0.6,0.1C23.4,56.9,22.9,57,22.5,57z
			 M26.7,44.3c0-0.4,0-0.7,0-1c0-0.1-0.1-0.3,0-0.3c0.3-0.4,0.1-0.7-0.1-1c-0.3-0.4-0.6-0.5-1-0.3c-0.4,0.2-0.6,0.7-0.4,1.1
			C25.5,43.5,26,43.9,26.7,44.3z M35,40.8c0.3,0,0.5,0.1,0.7,0.1c0.6,0,1.2-0.2,1.6-0.8c0.2-0.3,0.2-0.5-0.2-0.7
			c-0.2-0.1-0.4-0.2-0.7-0.3c-0.6-0.3-1.1-0.1-1.2,0.6C35.1,40,35.1,40.4,35,40.8z M24.1,55.4c0,0,0,0.1,0,0.1c-0.5,0.3-1,0.6-1.6,1
			c0.8,0.2,1.4,0.1,2-0.1c0.3-0.2,0.7-0.3,0.8-0.7c0.1-0.3,0.4-0.6,0-0.9c-0.3-0.2-0.7-0.3-1.1-0.1c-0.2,0.1-0.3,0.2-0.5,0.4
			c-0.2,0.2-0.3,0.4-0.5,0.7C23.6,55.6,23.8,55.5,24.1,55.4z M36.3,23.3c-1.2,1.1-2.1,4.6-2,7.2c0-0.2,0.1-0.5,0.1-0.7
			c0.4-1.4,0.9-2.9,1.3-4.3C35.9,24.8,36.1,24.1,36.3,23.3z M24.7,41.5c0-0.8,0-0.8-0.5-1.3c-0.2-0.1-0.3-0.3-0.5-0.4
			c-0.3-0.2-0.5-0.2-0.8,0c-0.3,0.2-0.3,0.5-0.2,0.8c0.2,0.7,0.8,1.1,1.5,1.1C24.3,41.6,24.5,41.5,24.7,41.5z M30.1,43.3
			c0.2,0,0.2,0,0.3,0.1c0.3,0.4,0.7,0.5,1.2,0.4c0.4-0.2,0.9-0.4,1.3-0.6c0.2-0.1,0.3-0.4,0.1-0.6c-0.1-0.1-0.3-0.3-0.5-0.3
			c-1.4,0-1.1-0.3-2.2,0.7C30.3,43.1,30.2,43.2,30.1,43.3z M27.1,44.6c1.7,0.7,2.8,0.4,3.1-0.9c-0.2,0-0.4-0.1-0.5-0.1
			c-0.4,0.1-0.7,0.1-1.1,0c-0.2-0.1-0.5,0.1-0.7,0.2C27.6,44,27.4,44.3,27.1,44.6z M27,56.4c0.1,0,0.1,0,0.2,0
			c1.6-0.8,3.4-1.3,5.1-1.8c0.4-0.1,0.8-0.3,1.2-0.4c0.4-0.1,0.7-0.3,1-0.5C31.8,53.9,29.4,55,27,56.4z M24.5,54.2
			c0.3,0.1,0.5,0.2,0.7,0.2c0.1,0,0.3,0,0.4-0.1c0.7-0.6,1.4-1.2,2.2-1.9c-0.5-0.1-1-0.2-1.5-0.3C25.7,52.8,25.1,53.4,24.5,54.2z
			 M31.9,41.9c0.6,0.2,1.3,0,1.6,0.8c0.4-0.7,0.8-1.3,1.2-1.9c-0.3-0.6-0.7-0.7-1.2-0.7C33.3,41,32.7,41.5,31.9,41.9z M21.1,50.4
			c0-0.3,0-0.4,0-0.6c0.8,0.8,1.4,1.5,2.7,1.3c-0.2-0.5-0.4-0.9-0.7-1.3c-0.1-0.2-0.3-0.3-0.4-0.5c-0.1-0.1-0.3-0.2-0.4-0.1
			c-0.4,0.1-0.9,0.3-1.3,0.5c-0.1,0-0.1,0.1-0.1,0.2C20.8,50,20.9,50.1,21.1,50.4z M21.5,53.1c0-0.2-0.1-0.3-0.1-0.4
			c-0.1-0.3-0.5-0.5-0.7-0.2c-0.3,0.4-0.8,0.8-0.8,1.5c0,0.5,0.1,1,0.5,1.4c0.1-0.1,0.1-0.2,0.2-0.3c0.1,0.3,0.3,0.6,0.4,1
			C20.8,53.8,20.8,53.7,21.5,53.1z M25.1,51.2c0.7,0.3,1.3,0.6,1.9,0.8c0.3,0.1,0.7,0,1,0c0.3-0.1,0.1-0.5,0.3-0.7
			c0,0-0.1-0.2-0.2-0.3C27,50.6,26.1,50.5,25.1,51.2z M21.9,59.9c2.2,0.2,4.4,0.3,6.5,0.5c0,0,0-0.1,0-0.1c-0.2,0-0.5-0.1-0.7-0.1
			c0,0,0-0.1,0-0.1c0.8,0.1,1.5,0.2,2.3,0.3C28.7,59.8,23.6,59.5,21.9,59.9z M25.8,38.6c-0.1,0.3-0.1,0.5-0.2,0.7
			c-0.2,0.6,0.1,1.5,0.7,1.6c0.4,0,0.5,0.3,0.8,0.7c0-0.4,0-0.6-0.1-0.8c-0.1-0.3,0.3-0.3,0.2-0.6c-0.3-0.4-0.6-0.9-0.9-1.3
			C26.2,38.7,26,38.7,25.8,38.6z M26.7,32.1c-0.4,0.4-0.4,0.6-0.2,0.8c0.5,0.9,1,1,1.9,0.8c0,0,0.1-0.1,0.1-0.1
			c0-0.1,0.1-0.2,0.1-0.3c-0.1-0.3-0.1-0.6-0.2-0.8c-0.1-0.2-0.4-0.2-0.6-0.1c-0.1,0-0.3-0.1-0.5-0.1C27.1,32.3,26.9,32.2,26.7,32.1
			z M22.6,48.7c0.1-0.4,0.2-0.7,0.2-1.1c0-0.4-0.3-0.8-0.6-0.7c-0.4,0-0.8,0.1-1.3,0.2c-0.1,0-0.2,0.2-0.2,0.3
			c0,0.3,0.1,0.6,0.4,0.7C21.6,48.3,22,48.5,22.6,48.7z M26.8,49c0.5-0.1,0.9-0.3,1.3-0.4c0.2-0.1,0.5-0.3,0.6-0.5
			c0.3-0.4,0-0.7-0.4-0.7c-0.2,0-0.4,0.1-0.6,0c-0.4-0.2-0.6,0-0.8,0.3c-0.3,0.3-0.3,0.5-0.2,0.9c0.1-0.1,0.2-0.2,0.4-0.4
			C26.9,48.4,26.9,48.6,26.8,49z M29.3,45.2c0.8,0.5,1.5,0.7,2.1,0.6c0.6,0,0.7-0.2,0.9-0.8C31.2,44.3,30.3,44.9,29.3,45.2z
			 M24,51.5c-0.7-0.1-1.4-0.2-2.1-0.3c0.1,0.6,0.1,1.2,0.2,1.7c0.5-0.1,1-0.3,1.5-0.4C23.7,52.3,23.8,51.9,24,51.5z M24,27.5
			C24,27.5,24,27.5,24,27.5C24,27.3,24,27,24,26.8c0.1-1,0.1-2,0.2-3c0-1.2,0.1-2.4,0.1-3.6c0-0.5,0-1-0.3-1.6
			C24,21.6,24,24.6,24,27.5z M30,31c0.9,0.3,1.8-0.2,1.9-1c0-0.3-0.1-0.5-0.4-0.5c-0.3,0-0.6,0-0.9,0C30.4,29.9,30.2,30.4,30,31z
			 M26.8,34.2c-0.5-0.1-0.8-0.4-1-0.8C25.6,33,25.3,33,25,33.3c-0.2,0.1-0.4,0.3-0.5,0.4c-0.1,0.2-0.2,0.4-0.1,0.6
			c0.1,0.2,0.3,0.4,0.6,0.3c-0.1-0.3-0.1-0.5-0.2-0.8c0.2,0.3,0.3,0.6,0.6,0.8c0.2,0.2,0.6,0.2,0.9,0.3
			C26.5,34.7,26.6,34.5,26.8,34.2z M34.1,48.3c0.7,0,1.2-0.1,1.7-0.2c0.1,0,0.2-0.1,0.3-0.2c0.3-0.3,0.2-0.5-0.2-0.6
			c-0.2,0-0.3-0.1-0.5-0.1c0-0.3-0.1-0.5-0.1-0.8C34.5,46.8,34.4,47.5,34.1,48.3z M20.1,55.7c-0.1-0.6-0.6-0.9-0.5-1.5
			c0-0.1-0.2-0.2-0.4-0.3c-0.2,0-0.4,0-0.6,0.1c-0.6,0.1-0.7,0.5-0.3,0.9c0.4,0.4,0.9,0.7,1.5,0.8C19.9,55.8,20,55.7,20.1,55.7z
			 M38,46.9c0.7,0.2,1.2,0.4,1.8,0.6c0.1,0,0.2,0,0.4,0c0.3-0.1,0.5-0.4,0.2-0.6c-0.3-0.2-0.2-0.5-0.2-0.8
			C39.5,45.9,39.5,45.9,38,46.9z M21.6,43.3c0.5,0.3,1,0.2,1.5,0.3c0.5,0,0.7-0.4,1-0.7C23,42,22.2,42.1,21.6,43.3z M33.5,14.2
			c0-0.3-0.1-0.6-0.1-0.9c0-0.2,0-0.4,0-0.6c-0.1-0.2-0.3-0.4-0.4-0.5c-0.2-0.1-0.5,0.1-0.5,0.4c0,0.1-0.1,0.3-0.2,0.4
			c-0.2,0.5-0.2,0.7,0.3,1C32.7,14.3,33.1,14.3,33.5,14.2z M32.1,16.1c0-0.1-0.1-0.2,0-0.3c0-0.1,0.2-0.1,0.2-0.1
			c0.1-0.6-0.4-1.3-1-1.4c-0.2,0-0.4,0.1-0.5,0.3c-0.2,0.4-0.1,0.8,0.2,1.2C31.4,16.2,31.7,16.3,32.1,16.1z M33.3,27.7
			c-0.9-0.7-1.7-0.5-2.5,0.3C32.4,28.7,32.9,28.6,33.3,27.7z M25.8,51.8c-0.4-0.1-0.8-0.2-1.1-0.3c-0.2,0-0.4,0.1-0.5,0.3
			c-0.1,0.3-0.3,0.7-0.4,1c0.2,0.2,0.3,0.4,0.5,0.6C24.8,52.9,25.3,52.4,25.8,51.8z M29.4,49.3c-0.4-0.4-0.9-0.2-1.4-0.3
			c-0.5-0.1-0.8,0.2-1.1,0.6c0.2,0,0.3,0,0.4,0c0,0,0,0.1,0.1,0.1c-0.1,0-0.2,0.1-0.4,0.1c0,0.1,0.1,0.1,0.1,0.2
			c0.4,0,0.9-0.1,1.3,0C29,50.1,29.3,49.9,29.4,49.3z M37.3,36.4c0.4-0.1,0.7-0.1,0.9-0.2c0.2-0.1,0.4-0.3,0.5-0.4
			c0.1-0.2,0.2-0.4,0.1-0.6c-0.1-0.3-0.3-0.3-0.5-0.2c-0.2,0-0.3,0-0.5,0c-0.3,0-0.6,0.2-0.6,0.5C37.2,35.7,37.3,36,37.3,36.4z
			 M28.8,41.3c1,0.1,1.3,0,1.5-0.5c0.2-0.4,0.2-0.6-0.3-1c-0.3,0.2-0.7,0.3-1,0.5c0,0-0.1-0.1-0.2-0.2
			C28.6,40.5,28.7,40.9,28.8,41.3z M29.9,50.5c0.9-1.5,0.9-1.6,0.1-2.5c-0.2,0.3-0.4,0.5-0.7,0.7c0.6,0.7,0.6,0.9-0.2,1.8
			C29.4,50.5,29.7,50.5,29.9,50.5z M34.6,22.9c-0.2-0.3-0.4-0.4-0.8-0.3c-0.3,0.1-0.6,0-0.9,0.1c-0.3,0.1-0.3,0.2-0.6,0.5
			c0.2-0.1,0.5-0.2,0.7-0.2c0,0,0,0.1,0.1,0.1c-0.3,0.1-0.6,0.3-0.9,0.4C33.3,23.9,34,23.7,34.6,22.9z M40.8,38.2
			c-0.1-0.1-0.1-0.3-0.2-0.4c-0.5-0.6-0.8-0.6-1.4-0.1c-0.2,0.1-0.4,0.3-0.6,0.4C39.2,38.8,39.4,38.8,40.8,38.2z M32.4,30.9
			c-0.4,0.1-0.7,0.2-1,0.3c-0.4,0.2-0.9,0.4-1.3,0.5c0.4,0.5,0.9,0.7,1.5,0.5C32.2,32,32.4,31.7,32.4,30.9z M31.8,50.8
			c0.2,0,0.4,0.1,0.6,0.1c0.8,0.1,1.1-0.1,1.4-0.8c0-0.1,0.1-0.2,0.2-0.4c-0.5-0.3-0.9-0.1-1.2,0C32.3,50.1,32.1,50.4,31.8,50.8z
			 M29.4,31.4c-0.3-1.2-1-1.5-2.1-0.8c0.2,0.2,0.4,0.3,0.7,0.5c0.1,0.1,0.2,0.1,0.2,0.2c0.3,0.4,0.4,0.5,0.7,0.4
			C29,31.5,29.2,31.4,29.4,31.4z M19.2,61.5c0.2,0.1,0.3,0.1,0.5,0.2c0.2-0.3,0.5-0.6,0.4-1.1c-0.3-0.1-0.7-0.2-1-0.2
			c-0.3,0.6-0.5,1.1-0.8,1.6c0.3,0.1,0.6,0.1,0.9,0.2C19.1,61.9,19.1,61.7,19.2,61.5z M38.5,44.4c-0.7,0.2-0.9,0.9-0.7,2.2
			c0.3-0.2,0.6-0.3,0.8-0.5c0.1-0.1,0.3-0.3,0.2-0.5C38.8,45.2,38.7,44.8,38.5,44.4z M37.2,37.6c0.8,0,1.5,0.3,2.1-0.4
			c-0.1-0.2-0.2-0.5-0.4-0.5c-0.3-0.1-0.7-0.1-1-0.1c-0.2,0-0.4,0.2-0.5,0.3C37.2,37,37.2,37.3,37.2,37.6z M40.3,32
			c0.4,0,0.7,0.1,1,0.1c0.4,0.1,0.7,0,0.9-0.3C42.1,31,42,31,41.6,30.9C40.9,30.9,40.6,31.1,40.3,32z M36.5,41.1
			c0.5,0.2,1,0.1,1.5,0.1c0.4,0,0.6-0.1,0.8-0.4c0.1-0.1,0.1-0.3,0.1-0.4c-0.1-0.1-0.3-0.2-0.4-0.2c-0.4,0.1-0.8,0-1.1,0.4
			C37,40.8,36.7,40.9,36.5,41.1z M33.9,37.6c-0.4,0.9,0.2,1.4,0.7,2c0.2-0.2,0.3-0.3,0.5-0.5c0.2-0.3,0.1-0.8-0.2-1
			C34.6,38,34.3,37.8,33.9,37.6z M23.4,46c-0.6,1-0.6,1.1,0,1.8c0-0.2,0-0.4,0-0.6c0,0,0.1,0,0.1,0c0.1,0.2,0.2,0.4,0.3,0.6
			C24.6,46.9,24.4,46.3,23.4,46z M35.8,46c1,0.1,1.2-0.1,1.3-0.9c-0.6,0.1-0.9-0.2-1.3-0.5C35.4,45.1,35.4,45.1,35.8,46z M36.7,37.2
			c0-0.4,0-0.6,0.1-0.9c0.1-0.5,0.1-0.7-0.4-0.7c-0.3,0-0.7,0-1.1,0C35.2,36.7,36.2,36.6,36.7,37.2z M31.9,20.4c0,0,0.1,0.1,0.1,0.1
			c0.2-0.2,0.4-0.4,0.6-0.6c0,0,0.1,0.1,0.1,0.1c-0.1,0.2-0.2,0.4-0.4,0.6c0.7-0.3,1.3-0.6,1.5-1.3c-0.3-0.4-0.8,0.1-1.1-0.2
			c0,0-0.2,0.1-0.2,0.1C32.3,19.6,32.1,20,31.9,20.4z M43,26.9C42.8,27,42.7,27,42.6,27c-0.5,0.2-0.7,0.6-0.4,1.1
			c0.1,0.2,0.3,0.3,0.5,0.2c0.5-0.2,0.9-0.5,0.9-1.1C43.4,27.1,43.2,27,43,26.9z M29.4,30.3c-0.1-0.6-0.2-1.1-0.8-1.2
			c-0.4-0.1-0.9,0-1.4,0c0,0-0.1,0.1-0.2,0.3C27.9,29.7,28.6,30,29.4,30.3z M33.4,38c-0.2-0.1-0.4,0-0.5,0.2
			c-0.1,0.2-0.4,0.4-0.3,0.7c0,0.1,0.1,0.2,0.1,0.2c0.4-0.1,0.5,0.3,0.8,0.5c0.2,0.1,0.4,0.2,0.7,0.4C33.9,39.3,33.6,38.7,33.4,38z
			 M45.9,23.7c-1.3,0.6-1.3,0.6-1.3,1.8C45.9,24.8,46.1,24.6,45.9,23.7z M28.7,27.1c0.3,0.1,0.6,0.2,0.9,0.3c0.1,0,0.3-0.1,0.3-0.2
			c0.1-0.3-0.3-1.2-0.6-1.3c-0.1,0-0.3,0-0.4,0.1C28.6,26.2,28.5,26.5,28.7,27.1z M34.6,14.7c-0.5-0.3-0.7-0.3-0.9-0.1
			c-0.4,0.3-0.6,1-0.5,1.5C34.3,15.6,34.5,15.4,34.6,14.7z M32.7,18.4c0.9,0.4,1.7,0.3,2.2-0.3c-0.4-0.3-1.2,0-1.2-0.9
			c-0.3,0.2-0.5,0.4-0.8,0.5c0.1,0.1,0.2,0.1,0.3,0.2C33.1,18.2,32.9,18.3,32.7,18.4z M25.9,45.9c-0.4,0.1-0.7,0.2-0.9,0.2
			c-0.2,0.8,0.3,1.1,0.6,1.6C26,47.2,26.2,46.6,25.9,45.9z M28.1,23.9c-0.3,0.3-0.1,0.6,0.1,0.8c0.4,0.4,0.8,0.7,1.5,0.5
			C29.3,24.5,28.9,24,28.1,23.9z M30.9,26c0.7-0.8,0.7-1.1,0.2-1.7c0,0.2-0.1,0.3-0.1,0.5c-0.1-0.3-0.1-0.5-0.2-0.9
			c-0.3,0.4-0.5,0.7-0.8,0.9C30.3,25.3,30.6,25.6,30.9,26z M40.5,27c0.2,0.6,0.5,1.1,1.3,1.2c0-0.4,0-0.8,0-1.1
			c0-0.4-0.3-0.6-0.7-0.4C40.9,26.8,40.8,26.9,40.5,27z M27.3,55.8c1.7-0.7,3.3-1.4,5-2.1C30.5,54,28.8,54.7,27.3,55.8z M30.2,35.5
			c0.4-0.1,0.8-0.2,1.1-0.4c0.3-0.2,0.3-0.6,0-0.7c-0.4-0.2-0.6-0.2-1,0.1C29.9,34.8,29.8,34.8,30.2,35.5z M46.5,22.5
			c1.2-0.1,1.2-0.2,1-1.4c-0.2,0.1-0.5,0.2-0.7,0.3C46.2,21.7,46.1,21.9,46.5,22.5z M31.6,25.9c1.3,0.1,1.8-0.2,1.9-0.9
			C32.8,24.7,32.3,25,31.6,25.9z M39.6,33c0.4,0.2,0.9-0.1,1.3,0.3c0,0,0.2,0,0.3-0.1c0.3-0.2,0.4-0.4,0.3-0.8
			C40.5,32.2,40.1,32.3,39.6,33z M30.7,18.8c-0.3,0.9,0.2,1.3,0.9,1.7c0-0.4,0-0.8,0-1.2C31.5,18.8,31.3,18.7,30.7,18.8z M41.8,29.8
			c-1.2-0.2-1.3-0.1-1.5,0.9c0,0.1,0,0.2,0,0.4c0.5-0.4,0.9-0.6,1.5-0.6c0-0.1,0.1-0.1,0-0.2C41.8,30.2,41.8,30,41.8,29.8z
			 M42.9,33.5c0.1,0,0.3-0.1,0.5-0.2c0.3-0.2,0.4-0.5,0.1-0.8c-0.2-0.2-0.5-0.4-0.8-0.2c-0.2,0.1-0.3,0.2-0.5,0.2
			C42.4,32.9,42.6,33.1,42.9,33.5z M44.9,25.9c0.6,0.2,1.1,0.6,1.7,0.4c0-0.1,0.1-0.2,0.1-0.2c0-0.7-0.4-1-1-0.6
			C45.4,25.6,45.2,25.7,44.9,25.9z M35.7,16.3c-0.1-0.2-0.1-0.3-0.2-0.4c-0.1-0.1-0.3-0.3-0.3-0.3c-0.5,0.2-1,0.4-1.6,0.7
			c0.4,0,0.7,0,0.9-0.1c0,0,0,0,0,0.1c-0.2,0.1-0.4,0.2-0.6,0.3c0.4,0,0.7-0.1,1,0C35.3,16.8,35.5,16.6,35.7,16.3z M40.9,36.3
			c-0.5-0.3-0.9-0.4-1.4-0.2c0,0.2,0,0.3,0,0.5c0,0.2,0,0.3,0,0.5C40.1,37,40.7,37.1,40.9,36.3z M39.6,32.4c0.3-0.8-0.4-0.9-0.8-1.2
			c-0.5,0.5-0.4,0.8,0.5,1.6c0.1-0.2,0.1-0.4,0.2-0.6C39.4,32.3,39.5,32.3,39.6,32.4z M36.5,49.1c-0.8-0.4-1.5-0.8-2.4-0.4
			C35.1,49.4,35.7,49.5,36.5,49.1z M31.6,47.4c-0.4,0.2-0.8,0.4-1.2,0.6c0.2,0.3,0.4,0.6,0.6,0.9C31.4,48.5,32,48.2,31.6,47.4z
			 M35.6,35.3c-0.3-1-0.5-1-1.4-0.4c0.2,0.4,0.4,0.8,0.6,1.3C35,35.7,35,35.3,35.6,35.3z M20.7,49.3c-0.5-0.4-0.9-0.4-1.5-0.1
			c-0.1,0.1-0.3,0.2-0.3,0.4c0,0.2,0.2,0.4,0.4,0.3c0.2,0,0.4,0,0.6-0.1C20.3,49.6,20.5,49.4,20.7,49.3z M39.3,31.2
			c-0.2-0.3-0.3-0.5-0.4-0.6c0,0,0.1,0,0.1-0.1c0.1,0.1,0.2,0.2,0.4,0.3c0.2-0.6,0.1-1.1-0.3-1.5C38.4,30,38.4,30.5,39.3,31.2z
			 M29.8,19.9c0.1-0.1,0.1-0.1,0.3-0.2c-0.3,0-0.4,0-0.6,0c-0.2,0.5,0.1,0.8,0.4,1c0.4,0.3,0.8,0.3,1.3,0
			C30.7,20.5,30.3,20.2,29.8,19.9z M30.7,23.3c-0.3-0.4-0.6-0.8-0.9-1.2c-0.1-0.2-0.4-0.3-0.5-0.4c-0.1,0-0.2,0-0.2,0.1
			C29,21.8,28.9,22,29,22c0.2,0.4,0.5,0.8,1,1C30.2,23.1,30.5,23.2,30.7,23.3z M41.2,45c0.6,0.4,1.1,0.5,1.6,0.4
			c0.1,0,0.2-0.3,0.4-0.5C42.5,44.4,42,44.9,41.2,45z M30.5,38.8c-0.3-0.1-0.5-0.2-0.7-0.3c-0.7-0.3-0.8-0.2-1.1,0.4
			C29.3,39.5,29.8,39.3,30.5,38.8z M18.4,64.7c-0.5,1.9-1,3.8-1.5,5.7C17.5,68.5,18.2,66.7,18.4,64.7z M43.4,23.5
			c-0.1,0.5-0.1,0.5,0.1,0.8c0-0.1,0.1-0.1,0.1-0.2c0.1,0.4,0.3,0.7,0.5,1.2c0.1-0.6,0.1-0.9,0.1-1.3c0-0.4-0.1-0.5-0.5-0.5
			C43.7,23.5,43.5,23.5,43.4,23.5z M42.1,43.8c-0.1-0.2-0.3-0.4-0.4-0.6c-0.6,0.4-0.7,1.1-0.9,1.8C41.4,44.7,41.8,44.4,42.1,43.8z
			 M33.9,13.4c1.3-0.8,1.4-1,1-1.6C34.2,12.1,33.9,12.6,33.9,13.4z M29.1,20.3c-0.1-0.5,0.2-0.9,0.7-1c-0.1-0.2-0.2-0.3-0.3-0.3
			c-0.4-0.3-0.7-0.3-0.9,0.2C28.5,19.7,28.6,19.9,29.1,20.3z M30.5,18.4c0.6-0.1,1.1,0,1.4,0.7c0-0.3-0.1-0.6-0.2-0.9
			c-0.1-0.4-0.5-0.6-0.8-0.5C30.6,17.8,30.4,18,30.5,18.4z M30.8,33.1c-0.4-0.1-0.6,0-0.9,0.1c-0.7,0.3-0.9,0.5-0.6,1.2
			C29.7,33.9,30.2,33.5,30.8,33.1z M28.9,50.9c0.2,0.3,0.6,0.4,0.6,0.8c0,0.1,0.3,0.3,0.5,0.3c0.1,0,0.3,0,0.3-0.1
			c0.1-0.1,0.1-0.3,0-0.4C30,51.2,29.6,50.8,28.9,50.9z M32,48.2c0.2-0.1,0.4-0.1,0.5-0.2c0.8-0.3,0.8-0.3,0.2-1c0,0-0.1,0-0.1,0
			C32.1,47.5,32.1,47.5,32,48.2z M34.3,19.2c-0.2,0.4-0.3,0.7-0.5,1c-0.2,0.3-0.6,0.4-0.9,0.6c0.6,0,1.2-0.2,1.6-0.6
			C34.9,19.8,34.9,19.7,34.3,19.2z M21.1,46.3c0-1.2,0.2-2.4-0.2-3.6C20.9,43.9,20.8,45.2,21.1,46.3z M46.9,21
			c0.5-0.3,0.9-0.1,1.1,0.3c0.3-0.5,0.3-0.5,0.1-1.1C47.8,20.4,47.2,20.2,46.9,21z M20.8,56.5c-0.3-0.1-0.6-0.3-0.9-0.4
			c0.1,0.7,0.2,1.2,0.3,1.7c0,0,0.1,0,0.1,0C20.4,57.4,20.6,57,20.8,56.5z M44.4,28.1c-0.6-0.2-0.6-0.2-1.6,0.5
			C43.6,28.9,44.2,28.7,44.4,28.1z M26.7,38.6c-0.3-0.7,0.3-0.9,0.6-1.2c-0.5,0-0.9,0-1.3,0C26.2,38.2,26.2,38.2,26.7,38.6z
			 M37.5,48.4c-0.5-0.3-1.1-0.3-1.8,0.1C37.1,48.9,37.1,48.9,37.5,48.4z M20.7,46.1c0-1.1,0-2.2,0-3.4
			C20.3,43.8,20.4,44.9,20.7,46.1z M32.1,49.3c0.6,0,0.9-0.2,0.9-0.6c0-0.2-0.1-0.4-0.3-0.4c-0.2,0-0.4,0.1-0.5,0.3
			C32.2,48.8,32.2,49.1,32.1,49.3z M43.2,29.2c0.6,0.6,0.9,0.7,1.4,0.1C44.2,28.9,44.1,28.9,43.2,29.2z M31.2,21.8
			c0.1,0.4,0.2,0.8,0.4,1.4c0.2-0.5,0.4-0.9,0.6-1.2C31.6,21.6,31.6,21.6,31.2,21.8z M34.3,13.5c0.7,0.4,1.2,0.2,1.4-0.6
			C35,12.7,34.7,13.2,34.3,13.5z M21.4,58.9C21.5,58.9,21.5,58.9,21.4,58.9c0.7-0.3,1.2-0.7,1.8-1.1c-0.2-0.1-0.4-0.2-0.6-0.3
			C22.3,58,21.8,58.4,21.4,58.9z M30.8,51.1c0.4,0.5,0.9,0.7,1.4,0.6c0.2,0,0.4-0.1,0.3-0.4c-0.4-0.1-0.8-0.2-1.3-0.3
			c0,0,0,0.1,0,0.1c0.3,0.1,0.5,0.2,0.8,0.4C31.6,51.6,31.2,51.2,30.8,51.1z M45.4,20.8c0.5,0.2,0.4,0.6,0.6,0.9
			c0.2-0.2,0.3-0.3,0.5-0.5c-0.1-0.3-0.2-0.5-0.4-0.8C45.8,20.5,45.7,20.6,45.4,20.8z M38.1,32c0.1-0.4,0.2-0.6,0.1-0.9
			c0-0.2-0.1-0.6-0.6-0.5C37.6,31.1,37.6,31.6,38.1,32z M28.5,41.3c0-0.2-0.1-0.4-0.1-0.5c0-0.1,0-0.3-0.1-0.5
			c-0.4,0.4-0.5,0.7-0.5,1.6C28,41.7,28.3,41.5,28.5,41.3z M16.6,65.4c-0.6,1.1-1,2.2-1.2,3.4C15.8,67.7,16.2,66.6,16.6,65.4z
			 M32.9,51.3c0.5,0.4,0.9,0.5,1.5,0.1C33.9,51.1,33.4,50.9,32.9,51.3z M42.4,33.5c-0.1-0.2-0.1-0.4-0.3-0.5c-0.2-0.1-0.3,0-0.5,0.2
			c-0.1,0.2-0.3,0.3-0.5,0.4C41.6,33.9,42,33.8,42.4,33.5z M24.1,48.1c0.4-0.1,0.7-0.2,1.1-0.2c-0.2-0.3-0.4-0.6-0.6-0.9
			C24.5,47.4,24.3,47.7,24.1,48.1z M43.5,43.6c0,0-0.1-0.1-0.1-0.1c-0.4,0.3-0.8,0.6-1.3,1C43,44.4,43.3,44.2,43.5,43.6z M35.4,45.6
			c-0.7,0.2-0.9,0.6-1,1.1c0.3-0.2,0.6-0.4,0.9-0.6C35.3,46,35.3,45.8,35.4,45.6z M27.1,39.1c0.5,0.5,0.5,1.2,0.5,1.8
			c0.1-0.5,0.2-0.9,0.3-1.4C27.6,39.4,27.4,39.3,27.1,39.1z M37.1,34.9c0.2-0.2,0.5-0.4,0.3-0.7c-0.1-0.2-0.3-0.3-0.5-0.2
			C36.7,34.4,36.7,34.6,37.1,34.9z M48.6,22.1c-0.6,0-1,0.3-1.3,0.7C47.8,22.7,48.4,22.7,48.6,22.1z M35,14.4
			c-0.1,0.4-0.2,0.8-0.3,1.2c0.4-0.2,0.7-0.5,0.7-0.9C35.4,14.4,35.2,14.4,35,14.4z M35.4,20.9c-0.4-0.2-0.8-0.3-1.2,0
			C34.6,21,34.9,21.4,35.4,20.9z M35.8,46.4C35.7,46.7,35.7,47,36,47c0.3,0,0.4-0.2,0.4-0.6C36.2,46.4,36,46.4,35.8,46.4z
			 M23.3,49.5c-0.2-0.5-0.2-0.9,0-1.3c0,0-0.1-0.2-0.1-0.3C23.1,48.5,22.6,49,23.3,49.5z M30.6,44.1c-0.1,0.2-0.1,0.3-0.2,0.5
			c0.5-0.1,0.9-0.2,1.3-0.3c0,0,0-0.1,0-0.1C31.3,44.1,31,44.1,30.6,44.1z M39.4,45.4c0.1-0.2,0.3-0.4,0.4-0.6
			c-0.3-0.2-0.4-0.2-0.6,0C39,45,39.1,45.2,39.4,45.4z M26.2,47c0.4-0.3,0.3-0.6,0.3-0.9c0-0.1-0.1-0.3-0.2-0.4c0,0-0.1,0-0.1,0
			C26.2,46.2,26.2,46.6,26.2,47z M15,70.4c0,0-0.1,0-0.1,0c-0.1,0.7-0.1,1.4-0.2,2.1c0,0,0.1,0,0.1,0C14.9,71.9,14.9,71.1,15,70.4z
			 M18.7,60.4c-0.5,0.3-0.7,0.9-0.9,1.4c0,0,0.1,0,0.1,0.1C18.2,61.3,18.5,60.8,18.7,60.4z M20.9,56.9c-0.2,0.4-0.3,0.8-0.5,1.3
			C20.8,57.8,21,57.4,20.9,56.9z M29.1,36.8c0.5-0.2,0.7-0.6,0.9-1.1C29.7,36.1,29.4,36.4,29.1,36.8z M43.2,25.1c0-0.1,0-0.1,0-0.2
			c-0.3-0.1-0.5-0.3-0.9,0C42.6,25,42.9,25,43.2,25.1z M44.1,44.2c-0.4-0.1-0.7,0-1,0.4C43.5,44.6,43.8,44.4,44.1,44.2z M17.2,64
			c0.3-0.3,0.6-0.6,0.6-1.1C17.6,63.3,17.4,63.6,17.2,64z M21.4,48.5c0.1,0.3,0.1,0.4,0.2,0.6c0.2-0.1,0.3-0.1,0.5-0.2
			c-0.1-0.1-0.2-0.1-0.2-0.2C21.8,48.7,21.7,48.6,21.4,48.5z M30.4,27.1c0.2-0.7,0.2-0.7-0.2-0.9C30.2,26.5,30.3,26.8,30.4,27.1z
			 M45.5,27.1c0-0.6,0-0.6-0.5-0.5C45.2,26.7,45.3,26.9,45.5,27.1z"/>
		<path fill="#454344" d="M16.6,63.6c0,0.2-0.1,0.4-0.2,0.5c-0.6,1-1.3,2-2,3c-0.1,0.2-0.1,0.4-0.1,0.7c-0.4,0.6-0.7,1.3-1.2,1.9
			c-0.3-0.3-0.1-0.5,0-0.7c0.3-0.6,0.7-1.3,1.1-1.9C14.9,66,15.8,64.8,16.6,63.6z"/>
		<path fill="#454344" d="M35.6,11.7c0-0.3,0.1-0.7,0.1-1c0,0,0.1,0,0.1,0c0.1,0.1,0.1,0.3,0.2,0.4c0.1,0,0.1,0,0.3-0.1
			c0.1,0.3-0.1,0.5-0.2,0.7c-0.1-0.1-0.1-0.2-0.1-0.3C35.7,11.5,35.6,11.6,35.6,11.7L35.6,11.7z"/>
		<path fill="#454344" d="M39.6,35.3c0-0.1,0-0.3,0-0.3c-0.5-0.1-0.2-0.3-0.2-0.6c0.3,0.2,0.4,0.3,0.7,0.5
			C39.9,35,39.8,35.2,39.6,35.3L39.6,35.3z"/>
		<path fill="#454344" d="M31.3,26.7c0.2-0.3,0.2-0.3,0.7-0.2C31.8,26.9,31.8,26.9,31.3,26.7z"/>
		<path fill="#454344" d="M17.9,41.7c-0.3-1-0.5-2.1-0.8-3.1c-0.2-1-0.4-2-0.5-3c0-0.1,0.1-0.3,0.1-0.5c0.1,0.5,0.1,1.1,0.2,1.6
			c0.3,1.5,0.7,3,1,4.4c0,0.2,0,0.4,0.1,0.6C18,41.7,18,41.7,17.9,41.7z"/>
		<path fill="#454344" d="M21.4,31.1c0.1,0.7,0.2,1.4,0.4,2.1c0.1,0.4,0.2,0.7,0.3,1.1c-0.1-0.1-0.2-0.1-0.2-0.2
			c-0.2-0.9-0.4-1.7-0.6-2.6C21.3,31.3,21.3,31.1,21.4,31.1C21.4,31,21.4,31,21.4,31.1z"/>
		<path fill="#454344" d="M22.1,34.6c0.3,0.7,0.7,1.4,1,2.1c0,0.1,0,0.2,0,0.3c-0.1-0.1-0.2-0.2-0.3-0.3c-0.2-0.4-0.4-0.8-0.6-1.3
			C22.3,35.2,22.2,34.9,22.1,34.6z"/>
		<path fill="#454344" d="M40.1,41.1c0.2-0.1,0.4-0.2,0.6-0.3c0,0,0,0.1,0.1,0.1c-0.4,0.3-0.7,0.5-1.1,0.8
			C39.8,41.6,39.9,41.3,40.1,41.1z"/>
		<path fill="#454344" d="M22.1,56.1c0.1,0,0.1-0.1,0.2-0.1C22.2,56,22.2,56.1,22.1,56.1z"/>
		<path fill="#454344" d="M14.6,49.1c0.7,0.7,1.5,1.5,2.2,2.2c0.1,0.1,0.1,0.2,0.1,0.3c-0.1,0-0.2-0.1-0.2-0.1
			c-0.6-0.6-1.2-1.2-1.8-1.9C14.7,49.5,14.7,49.2,14.6,49.1z"/>
		<path fill="#454344" d="M13.5,47.9c0.3,0.4,0.6,0.7,1,1.1C14,48.8,13.7,48.4,13.5,47.9z"/>
		<path fill="#454344" d="M41.9,39.8c0.3-0.3,0.6-0.6,0.9-0.8C42.6,39.4,42.6,39.5,41.9,39.8z"/>
		<path fill="#454344" d="M15.5,43.2c-0.1-0.1-0.3-0.1-0.3-0.2c-0.3-0.5-0.6-1-1-1.6c0.1,0.1,0.3,0.1,0.3,0.2
			C14.9,42.1,15.2,42.7,15.5,43.2z"/>
		<path fill="#454344" d="M17.1,45.1c-0.3-0.3-0.8-0.6-0.9-1.2C16.5,44.3,17,44.6,17.1,45.1z"/>
		<path fill="#454344" d="M22.1,28.4c-0.5-0.4-0.5-1.1-0.6-1.6C21.6,27.4,21.8,27.9,22.1,28.4z"/>
	</g>
	<path fill="#454344" d="M21.9,63.8c-0.6-0.7-1.2-1.3-1.8-1.9l0.3-0.1c0.1,0.4,0.1,0.8,0.2,1.1c0,0.4,0.1,0.8,0.2,1.1
		c0,0.4,0.1,0.8,0.2,1.1c0.1,0.4,0.2,0.7,0.3,1.1c0.1,0.4,0.3,0.7,0.4,1.1c0.2,0.3,0.4,0.7,0.6,1c0.1,0.1,0.2,0.3,0.4,0.4
		c0.1,0.1,0.3,0.2,0.4,0.3c0.1,0.1,0.3,0.2,0.5,0.2c0.2,0.1,0.3,0.1,0.5,0.1l-0.2,0.1c0.1-0.2,0.2-0.5,0.2-0.7c0-0.3,0-0.5,0-0.8
		c0-0.3-0.1-0.5-0.1-0.8l-0.1-0.4l-0.1-0.4c-0.1-0.3-0.3-0.5-0.4-0.8l-0.4-0.7C22.6,64.7,22.3,64.2,21.9,63.8z M21.9,63.8l1.1,1.2
		l0.5,0.7c0.2,0.2,0.3,0.5,0.4,0.7l0.2,0.4l0.1,0.4c0.1,0.3,0.1,0.6,0.2,0.9c0,0.3,0,0.6,0,0.9c-0.1,0.3-0.1,0.6-0.3,0.9L24.2,70
		l-0.2,0c-0.2-0.1-0.4-0.1-0.6-0.2c-0.2-0.1-0.4-0.2-0.5-0.3c-0.3-0.2-0.6-0.6-0.8-0.9c-0.2-0.3-0.4-0.7-0.6-1.1
		c-0.2-0.4-0.3-0.7-0.4-1.1c-0.1-0.4-0.3-0.7-0.4-1.1c-0.1-0.4-0.3-0.7-0.3-1.1c0-0.2-0.1-0.4-0.1-0.6c0-0.2-0.1-0.4-0.1-0.6
		c0-0.4-0.1-0.8-0.1-1.2l0-0.5l0.3,0.4C20.8,62.4,21.3,63.1,21.9,63.8z"/>
	<path fill="#454344" d="M20.1,61.2c0,0-0.1,0.3-0.3,0.9c-0.1,0.3-0.2,0.6-0.2,1c-0.1,0.4-0.1,0.9-0.2,1.4c0,0.5,0,1-0.1,1.6
		c0,0.6,0,1.2,0,1.8c0,0.6,0.1,1.3,0.2,2c0.1,0.7,0.2,1.3,0.4,2c0.3,1.3,0.5,2.7,0.7,3.9c0.1,0.6,0.2,1.2,0.3,1.8
		c0.1,0.6,0.2,1.1,0.2,1.6c0.1,0.5,0.1,1,0,1.4c0,0.4-0.2,0.8-0.2,1.1c-0.1,0.3-0.2,0.5-0.3,0.6c-0.1,0.1-0.1,0.2-0.1,0.2l0,0
		c0,0,0-0.1,0.1-0.2c0-0.2,0.2-0.4,0.2-0.6c0-0.3,0.1-0.6,0.1-1c0-0.4-0.1-0.9-0.1-1.4c-0.4-2-0.8-4.7-1.1-7.4
		c-0.1-1.4-0.4-2.7-0.6-4c-0.1-0.6-0.2-1.3-0.2-1.8c0-0.6,0-1.2,0.1-1.7c0.1-0.5,0.1-1,0.3-1.4c0.1-0.4,0.2-0.8,0.4-1
		C19.9,61.5,20.1,61.2,20.1,61.2L20.1,61.2z"/>
</g>
</svg>
