<?xml version="1.0" encoding="utf-8"?>
<!-- Generator: Adobe Illustrator 17.1.0, SVG Export Plug-In . SVG Version: 6.00 Build 0)  -->
<!DOCTYPE svg PUBLIC "-//W3C//DTD SVG 1.1//EN" "http://www.w3.org/Graphics/SVG/1.1/DTD/svg11.dtd">
<svg version="1.1" id="Capa_1" xmlns="http://www.w3.org/2000/svg" xmlns:xlink="http://www.w3.org/1999/xlink" x="0px" y="0px"
	 viewBox="0 0 30.8 27.6" enable-background="new 0 0 30.8 27.6" xml:space="preserve">
<g>
	<path fill="#030104" d="M9.9,3.5h11.7c1.6,0,2.9,1.3,2.9,2.9v0.4h1.6c0.2,0,0.4,0.2,0.4,0.4V9c0,0.4-0.3,0.6-0.6,0.6
		c-0.4,0-0.6-0.3-0.6-0.6V7.7h-0.7v13.8c0,0.2-0.2,0.4-0.4,0.4h-1.3v0.4c0,0.9-0.8,1.7-1.7,1.7c-0.9,0-1.7-0.8-1.7-1.7v-0.4H12v0.4
		c0,0.9-0.8,1.7-1.7,1.7c-0.9,0-1.7-0.8-1.7-1.7v-0.4H7.4c-0.2,0-0.4-0.2-0.4-0.4V7.7H6.3V9c0,0.4-0.3,0.6-0.6,0.6
		C5.3,9.7,5,9.4,5,9V7.3c0-0.2,0.2-0.4,0.4-0.4H7V6.5C7,4.9,8.3,3.5,9.9,3.5L9.9,3.5z M19.5,4.4v2.5h4.2V6.5c0-1.2-0.9-2.1-2.1-2.1
		H19.5L19.5,4.4z M18.7,6.9V4.4h-5.8v2.5H18.7z M12,6.9V4.4H9.9c-1.2,0-2.1,0.9-2.1,2.1v0.4H12z M11.2,21.9H9.5v0.4
		c0,0.5,0.4,0.8,0.8,0.8c0.5,0,0.8-0.4,0.8-0.8L11.2,21.9L11.2,21.9z M13.2,17.3h5c0.2,0,0.4,0.2,0.4,0.4v1.7c0,0.2-0.2,0.4-0.4,0.4
		h-5c-0.2,0-0.4-0.2-0.4-0.4v-1.7C12.8,17.5,13,17.3,13.2,17.3L13.2,17.3z M17.8,18.1h-4.2V19h4.2V18.1z M21.2,16.9
		c0.9,0,1.7,0.8,1.7,1.7c0,0.9-0.7,1.7-1.7,1.7c-0.9,0-1.7-0.8-1.7-1.7C19.5,17.6,20.3,16.9,21.2,16.9L21.2,16.9z M21.2,17.7
		c-0.5,0-0.8,0.4-0.8,0.8s0.4,0.8,0.8,0.8c0.5,0,0.8-0.4,0.8-0.8S21.7,17.7,21.2,17.7z M10.3,16.9c0.9,0,1.7,0.8,1.7,1.7
		c0,0.9-0.8,1.7-1.7,1.7c-0.9,0-1.7-0.8-1.7-1.7C8.7,17.6,9.4,16.9,10.3,16.9L10.3,16.9z M10.3,17.7c-0.5,0-0.8,0.4-0.8,0.8
		s0.4,0.8,0.8,0.8s0.8-0.4,0.8-0.8S10.8,17.7,10.3,17.7z M22,21.9h-1.7v0.4c0,0.5,0.4,0.8,0.8,0.8c0.5,0,0.8-0.4,0.8-0.8V21.9z
		 M23.7,16.1H7.8v5h15.9V16.1z M23.7,7.7H7.8v7.5h15.9V7.7z"/>
</g>
</svg>
