<?xml version="1.0" encoding="UTF-8"?>
<svg width="20px" height="18px" viewBox="0 0 20 18" version="1.1" xmlns="http://www.w3.org/2000/svg" xmlns:xlink="http://www.w3.org/1999/xlink">
    <!-- Generator: Sketch 63.1 (92452) - https://sketch.com -->
    <title>Cal</title>
    <desc></desc>
    <g id="Page-1" stroke="none" stroke-width="1" fill="none" fill-rule="evenodd">
        <g id="web-A&amp;A-LANDING(1)" transform="translate(-874.000000, -603.000000)">
            <g id="Group-178" transform="translate(871.000000, 600.000000)">
                <path d="M19.6877,20.015 L5.8907,20.015 C4.8027,20.015 3.9197,19.133 3.9197,18.045 L3.9197,5.093 C3.9197,4.238 4.6137,3.544 5.4687,3.544 L20.1087,3.544 C20.9647,3.544 21.6577,4.238 21.6577,5.093 L21.6577,18.045 C21.6577,19.133 20.7757,20.015 19.6877,20.015 Z" id="Stroke-149" stroke="#434142" stroke-width="0.95"></path>
                <line x1="4" y1="8" x2="22" y2="8" id="Stroke-151" stroke="#434142" stroke-width="2"></line>
                <path d="M10.3224,3.952 C10.3224,4.791 9.6424,5.472 8.8024,5.472 C7.9634,5.472 7.2834,4.791 7.2834,3.952 C7.2834,3.113 7.9634,2.432 8.8024,2.432 C9.6424,2.432 10.3224,3.113 10.3224,3.952" id="Fill-155" fill="#FFFFFF"></path>
                <path d="M10.3224,3.952 C10.3224,4.791 9.6424,5.472 8.8024,5.472 C7.9634,5.472 7.2834,4.791 7.2834,3.952 C7.2834,3.113 7.9634,2.432 8.8024,2.432 C9.6424,2.432 10.3224,3.113 10.3224,3.952 Z" id="Stroke-157" stroke="#434142" stroke-width="1.131"></path>
                <path d="M18.0321,3.952 C18.0321,4.791 17.3521,5.472 16.5121,5.472 C15.6731,5.472 14.9931,4.791 14.9931,3.952 C14.9931,3.113 15.6731,2.432 16.5121,2.432 C17.3521,2.432 18.0321,3.113 18.0321,3.952" id="Fill-159" fill="#FFFFFF"></path>
                <path d="M18.0321,3.952 C18.0321,4.791 17.3521,5.472 16.5121,5.472 C15.6731,5.472 14.9931,4.791 14.9931,3.952 C14.9931,3.113 15.6731,2.432 16.5121,2.432 C17.3521,2.432 18.0321,3.113 18.0321,3.952 Z" id="Stroke-160" stroke="#434142" stroke-width="1.131"></path>
            </g>
        </g>
    </g>
</svg>