<?xml version="1.0" encoding="utf-8"?>
<!-- Generator: Adobe Illustrator 17.1.0, SVG Export Plug-In . SVG Version: 6.00 Build 0)  -->
<!DOCTYPE svg PUBLIC "-//W3C//DTD SVG 1.1//EN" "http://www.w3.org/Graphics/SVG/1.1/DTD/svg11.dtd">
<svg version="1.1" id="Capa_1" xmlns="http://www.w3.org/2000/svg" xmlns:xlink="http://www.w3.org/1999/xlink" x="0px" y="0px"
	 viewBox="0 0 60.4 56.9" enable-background="new 0 0 60.4 56.9" xml:space="preserve">
<g>
	<path fill="#454344" d="M16.4,38c0.1-0.2,0.2-0.3,0.2-0.4c0.1-0.7,0.1-1.3,0.1-2c0-0.2,0-0.5,0.1-0.7c0.1-0.4,0.1-0.8,0.1-1.2
		c0.2-2.4,0.1-4.7,0.1-7.1c0-1.1,0-2.2,0-3.3c0-0.4,0-0.9-0.1-1.3c0.1-0.1,0.2,0.1,0.3-0.1c0-0.1,0.1-0.3,0-0.4
		c-0.2-0.8-0.1-1.5-0.1-2.3c0-0.4-0.1-0.7-0.1-1.1c-0.1-0.3,0.1-0.7-0.1-1c0,0,0-0.1,0-0.1c0.2-0.6-0.1-1.2,0-1.8
		c0-0.3-0.1-0.6-0.2-0.9c0,0.6-0.1,1.2,0.1,1.8c0.1,0.3,0,0.7,0,1.1c0.1,0.9,0.1,1.9,0.1,2.8c0,0.3,0.2,0.6,0.1,1
		c-0.1-0.5-0.2-0.9-0.2-1.4c-0.1-0.9-0.1-1.8-0.2-2.7c0,0,0-0.1,0-0.1c0-0.7-0.1-1.5-0.1-2.2c0-0.4-0.1-0.7-0.2-1.1
		c-0.1-0.8-0.2-1.6-0.3-2.4c0-0.1,0-0.2,0-0.3c0.5-0.2,1-0.4,1.5-0.4c0.9,0,1.9,0,2.8-0.1c0.7-0.1,1.3-0.1,2-0.1
		c0.3,0.4,0.3,0.4,1,0.1c-0.2,0-0.4-0.1-0.7-0.1c0.4-0.1,0.7-0.1,0.9-0.2c0.2,0,0.4,0,0.6,0c0.1,0,0.3,0.1,0.4,0
		c0.6,0,1.3-0.2,1.9,0c4-0.3,8.1-0.1,12.1-0.1c1.4,0,2.7,0.1,4.1,0.1c0.6,0,1.2,0,1.8,0.1c0.7,0.2,1.4,0.1,2.2,0.2
		c0.6,0.1,1.3,0.1,2,0.3c0.3,0.1,0.6,0.2,0.9,0.3c0,0.2,0,0.4-0.1,0.5c-0.1,0.4-0.2,0.8-0.2,1.2c0,0.1,0,0.2,0,0.3
		c-0.1,0.6-0.2,1.1-0.3,1.7c-0.2,1.1-0.3,2.2-0.6,3.3c0,0.1,0,0.2,0,0.4c-0.1,1-0.2,2-0.4,3.1c0,0.4-0.1,0.8-0.1,1.2
		c-0.1,0.6-0.1,1.1-0.1,1.7c-0.1,0.9-0.1,1.9-0.2,2.8c-0.2,2-0.1,4-0.1,6.1c0,0.6,0,1.2,0.1,1.7c0.1,0.4,0.2,0.8,0,1.3
		c0,0.1,0,0.3,0.1,0.5c0.3,0.4,0.7,0.8,1,1.2c0.3-0.2,0.7-0.3,1-0.5c0.4-0.3,0.8-0.5,1.2-0.7c1.1-0.5,2.2-0.3,3.2,0.3
		c0.3,0.2,0.4,0.5,0.2,0.8c-0.3,0.5-0.6,0.9-0.9,1.4c-0.6,0.8-1.3,1.5-2,2.1c-0.5,0.4-1,0.8-1.5,1.2c-0.7,0.6-1.5,1.1-2.2,1.7
		c-0.2,0.1-0.4,0.2-0.7,0.4c-0.6,0.3-1.3,0.7-1.9,1c-0.5,0.2-0.9,0.5-1.4,0.5c-0.3,0-0.7,0.2-1,0.4c-0.1,0-0.2,0.1-0.3,0.1
		c-1.2,0.5-2.5,0.8-3.7,1.1c-0.5,0.1-1,0.2-1.5,0.2c-0.6,0.1-1.1,0.1-1.7,0.2c-1.7,0.2-3.5,0.1-5.2,0.1c-0.8,0-1.7-0.1-2.5-0.3
		c-0.4-0.1-0.8-0.1-1.2-0.2c-1.1-0.2-2.2-0.4-3.3-0.8c0,0,0,0-0.1,0c-0.7,0-1.2-0.4-1.8-0.7c-0.6-0.3-1.1-0.6-1.7-0.9
		c-0.4-0.2-0.9-0.4-1.3-0.6c-0.4-0.2-0.8-0.4-1.1-0.6c-0.2-0.1-0.4-0.2-0.5-0.3c-0.3-0.1-0.4-0.2-0.6-0.5c-0.3-0.3-0.6-0.5-0.9-0.7
		c-0.6-0.3-1.1-0.8-1.7-1.2c-0.6-0.5-1.1-1-1.6-1.5c-0.5-0.5-1-1.1-1.4-1.8c-0.3-0.4-0.4-1-0.6-1.5c-0.1-0.2,0-0.4,0.1-0.6
		c0.3-0.3,0.7-0.6,1.2-0.7c0.5-0.1,1.1-0.2,1.6,0c0.1,0,0.3,0.1,0.4,0.1c0.5,0.3,1.2,0.6,1.6,1C15.1,37.4,15.8,37.6,16.4,38z
		 M43.8,45.2c-0.1,0-0.4-0.1-0.4-0.1c-0.1,0.2-0.5,0.1-0.6,0.4c0.2,0.2,0.4,0.2,0.5,0c0.1-0.2,0.3,0,0.4-0.1
		C43.7,45.4,43.7,45.3,43.8,45.2c0.2,0.1,0.4,0.2,0.6,0.4c-0.1-0.3-0.2-0.5-0.2-0.7c0.2,0,0.3,0.4,0.6,0.2c0-0.1,0-0.2-0.1-0.3
		c0.2,0.1,0.3,0.2,0.5,0.3c0-0.3-0.1-0.4-0.1-0.7c0.3,0.2,0.5,0.2,0.7-0.1c0,0,0-0.1,0.1-0.1c0,0,0.1,0,0,0c0.1,0.1,0.2,0.1,0.4,0.2
		c-0.1-0.3-0.2-0.6-0.3-0.8c0.2,0.1,0.4,0.2,0.6,0.3c0,0,0,0,0.1-0.1c-0.1-0.2-0.2-0.3-0.4-0.5c0.4,0.1,0.5,0.5,0.9,0.5
		c-0.2-0.3-0.1-0.6,0-0.8c0.1,0.1,0.3,0.2,0.4,0.3c0,0,0.1,0,0.2,0c0-0.1-0.1-0.3-0.1-0.4c0.1,0,0.2,0.1,0.3,0.1
		c-0.1-0.2-0.1-0.4-0.2-0.5c0.2,0.1,0.4,0.2,0.5,0.3c0.1-0.1,0.1-0.1,0.2-0.2c-0.2-0.1-0.3-0.3-0.4-0.4c0,0,0,0,0.1-0.1
		c0.2,0.1,0.5,0.3,0.8,0.4c0-0.1,0-0.2,0-0.3c0.2,0,0.3,0.1,0.6,0.2c-0.3-0.4-0.5-0.7-0.7-0.9c0,0,0,0,0.1-0.1
		c0.3,0.2,0.6,0.4,0.9,0.7c0.3-0.2-0.3-0.3,0-0.6c0.1,0.1,0.2,0.1,0.3,0.2c0.1-0.4-0.4-0.5-0.5-0.8c0.4,0,0.5,0.5,0.8,0.5
		c-0.1-0.1-0.1-0.2-0.1-0.3c-0.2-0.2-0.3-0.4-0.5-0.6c0.5,0,0.7,0.4,1,0.6c0.4-0.2-0.2-0.3,0-0.6c0.1,0,0.3,0.1,0.4,0.1
		c0-0.1-0.1-0.2-0.1-0.4c0.2,0.1,0.3,0.2,0.5,0.3c0-0.2-0.1-0.3-0.1-0.4c0.2,0,0.3,0.1,0.5,0.1c-0.1-0.2-0.2-0.3-0.3-0.4
		c0.2-0.1,0.3-0.4,0.7-0.2c-0.1-0.3-0.2-0.4-0.3-0.6c0.2,0,0.2,0.1,0.3,0.1c0.2,0,0.3,0,0.2-0.2c0,0,0-0.1,0-0.1c0.1,0,0.2,0,0.4,0
		c-0.2-0.2-0.3-0.3-0.4-0.4c-0.1-0.1-0.2-0.2-0.3-0.3c0.1-0.1,0.3-0.3,0.4-0.5c0.2-0.3,0.4,0,0.6-0.2c-0.4-0.2-0.7-0.7-1.3-0.5
		c0,0.1,0,0.1,0,0.1c0,0,0,0.1,0,0.1c-0.1,0.1-0.2,0.2-0.3,0.3c-0.2,0.4-0.5,0.7-0.7,1.1c-0.1,0.2-0.3,0.3-0.5,0.5
		c-0.2,0.2-0.4,0.3-0.4,0.6c0,0.1-0.1,0.2-0.4,0.4c-0.2,0.1-0.4,0.3-0.6,0.5c-0.4,0.3-0.8,0.7-1.1,1.2c-0.1,0.1-0.3,0.2-0.4,0.3
		c-0.1,0.1-0.2,0.2-0.4,0.3c-0.4,0.1-0.6,0.4-0.9,0.6c0,0.1,0,0.2,0.1,0.4c-0.4-0.3-0.6-0.1-0.9,0.1c0,0,0,0.1,0,0.1
		c-0.3,0-0.5,0.1-0.6,0.3c-0.1,0.1-0.2,0.3-0.3,0.3c-0.3,0-0.3,0.2-0.3,0.4c0,0-0.1,0.1-0.1,0.1c-0.1,0-0.2-0.1-0.4-0.1
		c0,0.2,0,0.3,0,0.4c-0.2,0-0.3-0.2-0.5-0.1C43.7,45,43.7,45.1,43.8,45.2z M29.6,36.2c0.2,0.3,0.1,0.6,0.1,0.8
		c0,0.4,0.1,0.8,0.2,1.3c0-0.8,0-1.6,0-2.3c0-0.1,0-0.2,0-0.3c-0.1-0.2-0.1-0.3,0-0.5c0.1-0.2,0.1-0.4-0.2-0.5c0,0.4,0,0.8,0,1.2
		C29.7,36,29.8,36.2,29.6,36.2c0-0.5,0-1.1,0-1.7c-0.1-0.5-0.1-1-0.1-1.5c0-0.3,0-0.5,0-0.8c0-0.1-0.1-0.2-0.2-0.3
		c-0.1,0.1-0.1,0.2-0.1,0.3c0,0.2,0.1,0.3,0.1,0.5c0,0.8,0,1.5-0.1,2.3c0,0.3,0.1,0.6,0,0.9c-0.1,0.2,0,0.3,0.2,0.4
		C29.5,36.3,29.5,36.2,29.6,36.2z M38.6,46.3c0-0.1,0.1-0.3,0.1-0.3c-0.2-0.1,0-0.4-0.3-0.4c0,0.1-0.1,0.2-0.1,0.3
		C38.3,46,38.4,46.2,38.6,46.3c-0.1,0.1-0.2,0.3-0.3,0.4c0.1,0.1,0.2,0.1,0.3,0.2c0.1,0,0.2,0,0.3,0c-0.3,0.4-0.6,0.3-0.9,0.3
		c-0.3,0-0.5,0.1-0.7,0.4c0.4,0,0.7,0,1-0.1c0.2-0.1,0.4-0.1,0.6-0.2c0.2-0.1,0.4-0.2,0.6-0.2c0.2,0,0.4,0.1,0.5-0.2
		c0-0.1,0.2-0.1,0.3-0.1c0.5-0.1,1.1-0.3,1.7-0.4c0-0.1,0-0.2-0.1-0.4c-0.2,0-0.4,0-0.6,0.1c-0.6,0.2-1.2,0.5-1.8,0.7
		c-0.1-0.2-0.3-0.3-0.4-0.5C39,46.4,38.8,46.3,38.6,46.3z M24.8,15c0,0.2,0,0.3,0,0.5c0,0.3,0,0.6,0,0.9c0,0.3,0,0.6,0,0.9
		c0,0.3,0,0.6,0,0.9c0,0.3,0,0.5,0,0.8c0,0.1,0,0.3-0.1,0.4c-0.1,0.3-0.2,0.7,0.1,1c0.1,0.1,0.1,0.3,0.1,0.4c0,0.4,0,0.8,0.1,1.2
		c0.1,0.3-0.1,0.4-0.3,0.5c0,0.1,0,0.3,0,0.3c0.2,0.5,0.1,1,0.1,1.5c0,0.1,0,0.3,0,0.4c0,0,0.1,0,0.1,0c0-0.6,0-1.1,0-1.7
		c0.1,0.1,0.1,0.2,0.1,0.3c0,1.1-0.1,2.2,0.1,3.4c0,0.1,0,0.2,0,0.2c0,0.2-0.1,0.4-0.1,0.5c-0.1,0.4,0.1,0.9,0.1,1.3
		c0,0.3-0.1,0.5-0.1,0.8c0,0.8,0,1.7,0,2.5c0,0.5,0,0.9-0.5,1.3c0.3,0,0.4,0.2,0.4,0.4c0,0.5,0,1,0,1.5c0,0.4,0,0.7-0.2,1.1
		c-0.1,0.1,0,0.2,0,0.3c0,0.3,0,0.6,0,0.8C25,38,25.3,38,25.6,38c0.2,0,0.3-0.1,0.3-0.3c0-0.5,0-1,0-1.4c-0.2,0.2,0,0.5-0.3,0.6
		c0,0,0,0,0-0.1c-0.1-1,0.1-2,0.1-3c0,0,0-0.1,0-0.1c0.4-0.3,0.2-0.7,0.1-1c-0.1-0.2-0.1-0.5,0-0.7c0.1-0.3,0.1-0.6,0-0.9
		c-0.1-0.4-0.1-0.7-0.1-1c0.1,0,0.1,0.1,0.2,0.1c0.1-0.2,0.1-0.3,0.2-0.5c0,0.2,0,0.3,0.1,0.6c0.2-0.6,0.3-1,0.2-1.5
		c-0.1,0.1-0.3,0.1-0.4,0.2c-0.1-0.1-0.1-0.3-0.1-0.4c0-0.1,0-0.3,0-0.4c0-0.1,0.2-0.2,0.2-0.3c0-0.1-0.2-0.3-0.1-0.4
		c0-0.2,0.1-0.3,0.2-0.4c-0.1-0.1-0.2-0.3-0.2-0.4c0-0.1,0.2-0.2,0.3-0.4c0,0,0.1,0,0.2,0c0-0.3,0.2-0.5-0.1-0.9
		c0,0.2-0.1,0.4-0.1,0.5c-0.1,0-0.2,0-0.3,0c0-0.1,0.1-0.2,0.1-0.3c0.1-0.3,0.3-0.7,0.1-1.1c0-0.1,0-0.2,0-0.3c0-0.4,0-0.9,0-1.3
		c0-0.4,0-0.9,0-1.3c0-0.4-0.1-0.8,0-1.3c0-0.1,0-0.2,0-0.2c-0.2-0.4-0.1-0.7-0.1-1.1c0-0.6-0.1-1.1-0.2-1.7c0-0.1,0-0.1,0-0.2
		c0.1,0,0.1,0,0.2,0c-0.2-0.5-0.2-1-0.3-1.5C25.3,15.3,25.1,15.1,24.8,15z M42.1,11.8c-0.3-0.3-0.6-0.3-0.8-0.3
		c-0.6,0-1.3,0-1.9-0.1c-1-0.1-2-0.4-3-0.3c-0.2,0-0.4-0.1-0.6-0.1c-0.6-0.1-1.2-0.2-1.8-0.3c-0.2,0-0.3,0.1-0.5,0.1
		c-0.1,0-0.3,0-0.4-0.1c-0.2-0.1-0.4-0.1-0.5,0c-0.2,0.1-0.4,0-0.4,0.3c0,0.1-0.2,0.2-0.3,0.2c-0.2-0.6-0.3-0.6-0.7-0.2
		c-0.1-0.1-0.3-0.3-0.5-0.2c-0.4,0.2-1,0-1.3,0.5c0,0-0.1,0-0.2,0c-0.2-0.1-0.3,0-0.5,0c-0.4,0-0.9,0.1-1.4,0c-0.3-0.1-0.7,0-1,0
		c-0.2,0-0.5,0.1-0.7,0.1c-0.4-0.1-0.8,0.1-1.2,0.1c0.5,0.1,1.1,0.1,1.6,0.2c0.1,0,0.3,0,0.4,0c0.5,0.1,1,0.1,1.5,0.1
		c1.2,0.1,2.4,0,3.6,0.1c1.8,0.1,3.5,0,5.3,0.1c1.2,0.1,2.3,0.1,3.5-0.1c0.5-0.1,1,0,1.4,0C41.8,11.9,41.9,11.8,42.1,11.8z
		 M28.7,45.3c0,0,0-0.1,0-0.1c-0.7,0-1.5,0.1-2.2,0.2c-0.1,0-0.2,0.1-0.4,0.2c0.4,0.1,0.7,0.1,1,0.2c0.6,0.1,1.1,0.1,1.7,0.1
		c0.1,0,0.2,0.1,0.3,0.2c-0.4-0.1-0.7,0-1.1,0c-0.4,0-0.7,0-1.1-0.1c0,0.1,0,0.2,0.1,0.3c-0.1,0-0.2,0-0.3-0.1
		c0.1-0.3-0.1-0.3-0.3-0.3c-0.2,0-0.5-0.1-0.7-0.1c0,0-0.1,0-0.1,0.1c0.1,0.1,0.2,0.1,0.2,0.2c-0.2,0.2-0.6,0-0.6,0.4
		c0.5,0.1,0.8,0.5,1.4,0.4c0-0.1,0-0.1-0.1-0.2c0.1,0,0.2,0,0.2,0c0.1,0.1,0.1,0.2,0.2,0.4c1,0.2,2,0.4,3.1,0.5c1,0.1,2,0.1,3,0.1
		c0.3,0,0.6-0.2,0.8-0.1c0.4,0.1,0.7-0.1,0.9-0.2c0-0.4,0-0.7-0.1-1.1c-0.4-0.1-0.5,0.3-0.7,0.4c0-0.1-0.1-0.1-0.1-0.2
		c-0.1,0.1-0.1,0.2-0.2,0.2c-0.3,0.1-0.6,0.2-0.8,0.4c-0.2,0.3-0.5,0.3-0.7,0.2c-0.4-0.2-0.9-0.1-1.3-0.3c0.1-0.1,0.1-0.2,0.2-0.3
		c-0.4-0.1-0.7-0.1-1.1-0.2c-0.1-0.1-0.4-0.2-0.5-0.4c-0.2-0.3-0.4-0.4-0.7-0.3c-0.3,0-0.5-0.1-0.6-0.3
		C28.5,45.4,28.6,45.3,28.7,45.3z M40.7,31.5c0-0.2,0-0.3,0-0.5c0-0.5-0.1-1,0-1.5c0.1-0.5,0-0.8-0.1-1.2c0.1-0.1,0.2-0.2,0.2-0.3
		c0-0.3,0.2-0.5,0.1-0.8c-0.1-0.2,0-0.5-0.2-0.6c0,0,0-0.1-0.1-0.2c0.1,0,0.2,0.1,0.4,0.1c-0.1-0.6,0.1-1.2-0.1-1.8
		c0-0.1,0-0.1,0-0.2c0.2-0.3,0.1-0.7,0.3-1.1c0.2-0.3,0-0.6-0.3-0.8c0-0.1,0.3-0.2,0.1-0.4c-0.1-0.1,0-0.4,0-0.5
		c0-0.2,0.1-0.4,0.1-0.7c-0.3,0.3-0.6,0.6-0.7,1c0,0.3,0,0.7,0,1c0,0.3,0.1,0.5,0,0.7c-0.2,0.7,0,1.5-0.2,2.3c0.1,0.6-0.1,1.2,0,1.8
		c0.1,0.5,0,1,0,1.6c0,0,0,0.1,0.1,0.1c0.1,0,0.1,0,0.2-0.1c0,0.2,0.1,0.4-0.1,0.5c-0.2,0.1-0.3,0.5-0.2,0.7c0,0.3,0.2,0.5,0.1,0.8
		C40.2,31.5,40.5,31.6,40.7,31.5z M39.7,42.9c-0.2-0.2-0.2-0.5-0.2-0.8c0-0.9,0-1.9,0-2.8c0-0.2,0-0.3-0.2-0.4c-0.2,0.3,0,0.6,0,0.9
		c0,0.3,0,0.7,0,1c0,0.4,0,0.7,0,1.1c0,0.3,0,0.7,0,1c-0.3-0.1-0.5-0.1-0.7,0c0-0.5-0.3-1-0.1-1.6c0.1-0.2,0-0.4,0-0.5
		c0-0.4-0.1-0.9,0-1.3c0-0.2,0-0.4-0.1-0.6c-0.3,0.4,0,0.7,0,1c-0.1,0.3,0,0.7,0,1c0,0.4,0,0.7,0,1.1c0,0.3,0.1,0.7,0,1
		c-0.3,0-0.3-0.2-0.3-0.5c0-1,0-2,0-2.9c0-0.1,0-0.2-0.1-0.4c-0.1,0.1-0.2,0.3-0.2,0.4c0,0.9,0.2,1.7,0.1,2.6c0,0.2,0,0.5,0,0.7
		c0,0.1,0.1,0.2,0.1,0.3c0.4,0,0.7-0.1,1-0.1c0.5,0,1-0.1,1.5-0.3c0-1.1,0-2.2,0-3.2c0-0.1-0.1-0.2-0.1-0.4c-0.2,0.7,0,1.4-0.2,2.1
		c-0.1-0.3-0.1-0.6-0.2-0.9c-0.1,0.3-0.1,0.6-0.1,0.9c0,0.3,0,0.5,0,0.8c0.1-0.1,0.2-0.2,0.3-0.2c0,0.3,0,0.6,0,0.8
		C39.9,42.8,39.8,42.8,39.7,42.9z M29.6,38.5c-0.1-0.3-0.2-0.6-0.1-0.8c0.1-0.4-0.1-0.7-0.1-1.1c-0.1,0.3,0,0.6-0.1,0.8
		c-0.1,0.3,0.3,0.6-0.1,0.8c-0.3-0.1-0.2-0.4-0.2-0.6c0-0.1,0.1-0.2,0.1-0.3c-0.1-0.2-0.1-0.4,0-0.6c0-0.2-0.1-0.4,0-0.6
		c0-0.1,0-0.3,0-0.4c-0.1-0.3-0.1-0.6,0-0.9c0.1-0.3-0.1-0.6-0.1-1c0-0.2,0.1-0.3,0.1-0.5c0-0.3,0.1-0.6,0-0.9
		C29,32.2,29,31.9,29,31.7c0-0.6,0.1-1.2-0.1-1.9c0-0.1,0-0.2,0-0.3c0-0.3,0.1-0.3-0.2-0.6c0,0.1-0.1,0.3-0.1,0.4
		c0.2,0.3,0.1,0.7,0.1,1c0,0.9-0.1,1.7,0.1,2.6c0,0.1,0,0.2,0,0.3c0,0.1,0,0.2,0,0.2c0,0.3,0.1,0.6,0.1,0.9c0,0.4,0,0.7-0.1,1.1
		c-0.1,0.3,0.1,0.7,0.1,1.1c0,0.4,0,0.8,0,1.2c0,0.3-0.1,0.5-0.5,0.6C28.8,38.4,29.2,38.4,29.6,38.5z M40.6,37.8
		c0.1-0.2,0.2-0.4,0.1-0.5c-0.2-0.3-0.1-0.7-0.1-1c0-0.4,0.1-0.9-0.1-1.3c0,0,0-0.1,0-0.2c0.2-0.2,0.1-0.5,0.1-0.7
		c0-0.4,0.1-0.8,0.1-1.2c0-0.3-0.1-0.6-0.1-0.8c-0.2,0.1-0.3,0.2-0.5,0.3c0.1,0.4,0.3,0.8,0.4,1.2C40,34,40,34,40.3,34.7
		c-0.1,0.6-0.2,1.2-0.3,1.8c0.1,0.1,0.3,0.2,0.2,0.4C40.2,37.2,40.3,37.6,40.6,37.8z M28,31.3c-0.2,0.2-0.2,0.4-0.1,0.6
		c0,0.1,0,0.2,0,0.4c0,0.2-0.1,0.4-0.1,0.6c0,1.1,0,2.2,0,3.3c0,0.2,0.1,0.5,0.1,0.7c-0.1,0.4,0.2,0.7,0,1.1
		c-0.1,0.1,0.1,0.3,0.3,0.3c0-0.3-0.1-0.6-0.1-0.9c-0.1-0.7,0.1-1.3,0-2c0-0.2,0.1-0.5,0.1-0.7c0-0.3,0-0.5-0.1-0.8
		c0-0.3,0.2-0.6,0-1c0.3-0.2-0.1-0.5,0-0.8C28.3,31.8,28.2,31.6,28,31.3z M12.4,37.4c0.1,0.2,0.1,0.5,0.2,0.6
		c0.2,0.2,0.2,0.4,0.4,0.6c0.1,0.1,0.1,0.4,0.3,0.6c0.2,0.2,0.3,0.3,0.4,0.6c0.2-0.2,0.3-0.3,0.4-0.4c-0.3-0.3-0.5-0.7-0.8-1
		c-0.5-0.6-0.8-1.2-0.9-2c0-0.2-0.1-0.5-0.4-0.6c-0.1,0.1-0.2,0.2-0.3,0.2c-0.1,0-0.2,0-0.4,0.1c0.3,0.1,0.5,0.2,0.7,0.3
		c0,0.2,0,0.3,0,0.5c0.1,0.1,0.2,0.2,0.3,0.3c-0.1,0.1-0.2,0.2-0.3,0.3C12.3,37.4,12.3,37.4,12.4,37.4z M40.9,38.6
		c0.1,0.2,0.2,0.3,0.2,0.4c0,0.3,0,0.5,0,0.8c0,0.5,0,1,0.2,1.5c0-0.4,0.1-0.8,0-1.2c0-0.4,0-0.8,0-1.3c0,0,0-0.1,0-0.1
		c0-0.1-0.1-0.2-0.2-0.2c-0.2,0-0.4,0-0.6,0c0,0.3,0,0.6,0,0.9c0,0.9,0,1.7,0,2.6c0,0.1,0.1,0.1,0.1,0.2
		C40.9,41.1,40.8,39.9,40.9,38.6z M28.1,47.4c0,0.1,0,0.1,0,0.1c0.3,0.1,0.6,0.2,0.8,0.2c0.7-0.1,1.5,0.3,2.2,0.2
		c0.3,0,0.6,0.4,0.9,0c0,0,0,0.1,0.1,0.1c0.2,0,0.5,0.1,0.7,0.1c0,0,0,0,0.1-0.1c0-0.1,0-0.2,0-0.3c-0.8,0-1.6,0-2.4-0.2
		C29.7,47.8,28.9,47.2,28.1,47.4z M43.8,42.3c0.1,0,0.1,0,0.2,0c0-0.1,0.1-0.2,0.1-0.3c0-0.3,0-0.7,0-1c0-0.8,0.1-1.5-0.1-2.3
		c0-0.2,0.1-0.3,0.3-0.3c0,0.1,0.1,0.2,0.1,0.4c0-0.2,0-0.3,0.1-0.3c0.1-0.2,0.2-0.3,0-0.4C44.3,38,44.1,38,43.9,38
		c-0.1,0-0.2,0.1-0.3,0.1C43.9,39.5,43.7,40.9,43.8,42.3z M28.5,44.7c-0.1,0.1-0.2,0.1-0.3,0.1c-0.2,0-0.3-0.2-0.5-0.1
		c-0.3,0.1-0.6,0-0.9,0c-0.2,0-0.3,0-0.4,0.2c0.3,0.1,0.5,0.2,0.8,0.2c0.3,0,0.5,0,0.8,0c0.3,0,0.6,0,0.9,0c0.3,0.1,0.5,0,0.9-0.1
		c-0.5-0.1-0.9-0.2-1.3-0.3c-0.1-0.4-0.1-0.4-0.6-0.3c0,0,0,0.1,0.1,0.1C28.2,44.6,28.3,44.6,28.5,44.7z M33.6,39.1
		c0,0.3-0.1,0.5,0,0.8c0.2,0.6,0.1,1.3,0.1,1.9c0,0.2,0,0.4,0,0.6c0,0,0.1,0.1,0.1,0.1c-0.1-0.3,0-0.5,0-0.8c0.1-0.2,0.1-0.5,0-0.7
		c-0.2-0.5,0-0.9-0.1-1.4c0-0.1,0-0.1,0-0.2c0.1-0.1,0.1-0.1,0.2-0.1c0.1,0,0.2,0.1,0.2,0.1c0,0.1,0,0.2,0.1,0.3c0,0.2,0,0.4,0,0.7
		c0.3-0.5,0.2-0.9,0.2-1.3C34.3,39.1,34,39.1,33.6,39.1z M47.3,17.3c0,0.2,0,0.3,0.1,0.5c0,0.3,0.1,0.7,0,1
		c-0.1,0.3-0.1,0.6-0.1,0.9c0.4,0,0.5,0,0.5-0.3c0-0.5-0.1-1.1,0.1-1.6c0,0,0-0.1,0-0.1c-0.1-0.2-0.1-0.3-0.4-0.2
		C47.4,17.6,47.4,17.3,47.3,17.3z M38.9,42.6c0,0,0.1,0,0.1,0c0-0.3-0.1-0.6-0.1-0.9c0-0.3,0.1-0.5-0.1-0.8c0.3-0.4,0-0.8,0.1-1.3
		c0-0.2,0-0.3,0-0.5c0-0.1-0.1-0.3-0.3-0.2c0,0.2,0,0.3,0,0.5c0,0.2,0.1,0.4,0.1,0.7c0,0.6,0,1.3,0,1.9
		C38.8,42.1,38.8,42.4,38.9,42.6z M36.1,43.3c0-0.5-0.1-0.8-0.1-1.2c0-0.9,0-1.7,0-2.6c0-0.1,0-0.3,0-0.4c-0.2,0-0.3,0-0.5,0
		c0.2,0.3,0.2,0.7,0.2,1c0,0.4-0.1,0.7,0,1.1c0.1,0.3,0.1,0.7,0.1,1C35.9,42.6,35.7,42.9,36.1,43.3z M32.7,43.3
		c0-0.2-0.1-0.4-0.1-0.6c0-0.5,0.1-1-0.1-1.4c0-0.1,0-0.2,0.1-0.2c0.1-0.2,0-0.3,0-0.5c-0.1-0.2,0-0.4,0-0.6c0-0.3,0-0.5,0-0.8
		c0,0-0.1-0.1-0.2-0.1c0,0.1-0.1,0.2-0.1,0.3c0,0.9,0,1.7,0,2.6c0,0.4,0.1,0.8,0,1.2C32.3,43.2,32.5,43.3,32.7,43.3z M37.3,43.3
		c0-0.1,0-0.2,0-0.3c0-0.7,0-1.5,0-2.2c0-0.1,0-0.3,0-0.4c-0.1-0.2-0.1-0.4,0-0.7c0.1-0.3,0-0.4-0.3-0.7c0.1,0.3,0.1,0.4,0.1,0.6
		c0.1,1-0.1,1.9,0.1,2.9c0,0,0,0.1,0,0.1C37,42.8,37.2,43,37.3,43.3z M46.2,36.2c0,0,0.1,0.1,0.1,0c0.1-0.1,0.1-0.2,0.3-0.1
		c0.2,0.1,0.4-0.1,0.7-0.1c-0.1-0.3-0.1-0.6-0.2-0.9c-0.1,0.2-0.1,0.4-0.2,0.6c-0.1,0.3-0.2,0.2-0.4,0.1c0-0.5,0.1-0.9,0.1-1.4
		c0-0.1-0.1-0.1-0.2-0.3C46.3,34.9,46.3,35.5,46.2,36.2z M14.1,39.6c-0.5,0.5,0.1,0.7,0.1,1c0.2,0,0.3-0.1,0.4-0.1
		c0.3,0.3-0.4,0.5-0.1,0.8c0.2-0.1,0.3-0.3,0.5-0.4c0,0,0.1,0,0.1,0c0,0.1,0,0.2,0.1,0.3c0.1-0.2,0.2-0.2,0.2-0.3
		C14.9,40.5,14.5,40.1,14.1,39.6z M41.2,17.7c-0.1,0.1-0.2,0.2-0.1,0.3c0,0.1,0,0.2-0.1,0.3c0,0.1-0.1,0.2-0.1,0.3
		c0.1,0.2,0.3,0.4,0.1,0.7c0,0,0,0.1,0,0.2c0.2,0.3,0,0.5-0.2,0.8c0.1,0.1,0.2,0.2,0.4,0.3c0-0.3,0-0.5,0-0.8c0-0.2,0-0.3,0-0.5
		c0.2-0.4,0.1-0.9,0.1-1.3C41.4,17.8,41.3,17.8,41.2,17.7z M43.2,38.4C43.2,38.4,43.2,38.4,43.2,38.4c-0.1,0.4,0,0.9,0,1.3
		c0,0.4,0,0.9,0,1.3c0,0.5,0,0.9,0,1.3c-0.4,0.1-0.7,0.2-1,0.2c0,0,0,0.1,0,0.1c0.4,0,0.8-0.1,1.2-0.1c0-0.3-0.1-0.5-0.1-0.8
		c0-0.3,0-0.5,0-0.8c0-0.6,0-1.2,0-1.9C43.4,38.8,43.3,38.6,43.2,38.4z M43.6,10.8c-0.2,0-0.4-0.1-0.6-0.1c-0.4,0-0.8,0-1.2-0.1
		c-0.3-0.1-0.7-0.1-1.2,0.1c0.2,0.1,0.2,0.2,0.3,0.2C41.8,10.8,42.7,11,43.6,10.8z M31.2,38.4c0.1,0,0.1,0.1,0.2,0.1
		c0.6,0,1.2,0,1.8,0.1c0.2,0.1,0.5,0,0.8,0c0.3,0,0.6-0.1,0.9-0.2c-0.1-0.1-0.2,0-0.3-0.1c-0.1,0-0.3-0.1-0.4-0.1
		c-0.4,0.2-0.7,0.1-1.1,0c-0.1,0-0.2,0-0.2,0c-0.4,0.2-0.8,0.2-1.3,0C31.5,38.2,31.3,38.3,31.2,38.4z M21.1,11.3c0-0.1,0-0.1,0-0.2
		c-0.1,0-0.3,0-0.4-0.1c-0.4,0-0.7,0-1.1,0c-0.2,0-0.4-0.1-0.7-0.1c-0.3,0-0.6,0-0.9-0.1c-0.2-0.1-0.4,0-0.7,0
		c0.2,0.1,0.3,0.2,0.4,0.2c0.5,0.1,1,0.1,1.5,0.1c0.5,0,1-0.1,1.5,0.1C20.8,11.4,21,11.4,21.1,11.3z M42.8,42.2
		c0.1-0.7,0.1-3.6,0-3.8c0,0-0.1,0-0.2,0C42.6,39.6,42.8,40.9,42.8,42.2z M30.4,34.4C30.4,34.4,30.4,34.4,30.4,34.4
		c0.1-1.8,0.1-3.6,0.1-5.3c0,0,0,0-0.1,0C30.4,30.9,30.4,32.6,30.4,34.4z M47.3,19.9c0,0-0.1,0-0.1,0.1c0,0-0.1,0.1-0.1,0.2
		c0,0.6-0.1,1.2-0.3,1.8c0,0.1,0,0.2,0.1,0.4c0.1,0,0.1,0,0.1,0c0.2-0.5,0.1-1,0.4-1.5c0.1-0.1,0-0.3,0-0.5
		C47.4,20.2,47.4,20.1,47.3,19.9z M33.5,35.2C33.5,35.2,33.5,35.2,33.5,35.2c0.1-1.5,0.1-3,0.1-4.5c-0.1,0.6-0.2,1.2-0.2,1.7
		c0,0,0,0,0,0.1c0.2,0.4,0.1,0.9,0.1,1.3C33.5,34.3,33.5,34.7,33.5,35.2z M17.8,24.7c-0.1-0.6,0.1-1.1-0.1-1.5c0-0.1,0-0.2,0-0.3
		c0.1-0.4,0.1-0.8-0.1-1.1c0,0.9,0,1.8,0,2.7C17.6,24.5,17.7,24.6,17.8,24.7z M26.2,44.1c0.4,0.1,0.8,0.1,1.2,0.1
		c0.1,0,0.1-0.1,0.2-0.1c-0.2-0.2-0.4-0.3-0.6-0.4c-0.1-0.1-0.3-0.2-0.4-0.2c-0.1,0-0.1,0-0.2,0C26.3,43.7,26.3,43.9,26.2,44.1z
		 M17.2,27c0.1,0,0.1,0,0.1,0c0.2-0.8,0-1.6,0-2.5c-0.1,0.1-0.2,0.2-0.2,0.3c0.1,0.2,0,0.4,0,0.6C17.1,26,17.2,26.5,17.2,27z
		 M17.3,15.8c-0.1,1.3,0.1,2.4,0.2,3.6C17.6,18.2,17.6,17.1,17.3,15.8z M18.1,18.2c0,0-0.1,0-0.1,0c0,0.1,0,0.2,0,0.2
		c0,0.9,0.1,1.7,0.1,2.6c0,0.2,0,0.5,0,0.7c0.2-0.6,0.1-1.2,0.1-1.8C18.2,19.4,18.1,18.8,18.1,18.2z M25.9,16.3
		C25.9,16.3,25.9,16.3,25.9,16.3c-0.1,0.2-0.1,0.5-0.1,0.7c0,0.2,0,0.5,0,0.7c0,0.2,0.1,0.4,0.1,0.7c0,0.2-0.2,0.4,0.1,0.6
		c0-0.8,0-1.5,0-2.3C26.1,16.5,26,16.4,25.9,16.3z M18.9,32.5C18.9,32.5,18.9,32.5,18.9,32.5c-0.1,0.1-0.1,0.2-0.1,0.4
		c0,0.9,0,1.7,0,2.6c0,0.2,0,0.5-0.1,0.7c-0.1,0.1-0.1,0.3,0,0.5c0.3-0.7,0.2-1.4,0.2-2.1C18.9,33.9,18.9,33.2,18.9,32.5z
		 M30.2,40.8c0-0.6,0-1.1,0-1.6c0-0.2-0.1-0.3-0.4-0.3c0,0.6,0.1,1.2,0.1,1.8C30,40.7,30.1,40.7,30.2,40.8z M34.7,30.3
		C34.8,30.3,34.8,30.3,34.7,30.3c0.1-1,0.1-2,0.1-2.9c-0.1,0.2-0.2,0.5-0.2,0.7c0,0.2,0,0.5,0.1,0.7c0,0.3,0,0.5,0.1,0.8
		C34.7,29.8,34.7,30.1,34.7,30.3z M36.3,39.1c0.2,1,0.2,2,0.3,3c0-1,0-2,0-3C36.5,39.1,36.4,39.1,36.3,39.1z M34,43.3
		c-0.1-0.2-0.1-0.4-0.2-0.6c0,0.2-0.1,0.4-0.1,0.5c-0.3,0.1-0.4-0.1-0.5-0.3c0-0.2,0-0.3,0-0.5c0-0.4,0-0.8,0-1.2
		c-0.2,0.3-0.1,0.7-0.1,1c0,0.4,0,0.7,0,1.1C33.3,43.3,33.6,43.3,34,43.3z M40.2,38.5c-0.1,0.1-0.2,0.2-0.3,0.2
		c-0.2,0.1-0.3,0.2-0.3,0.4c0,0.1,0,0.3,0,0.4c0,0.1,0.1,0.2,0.2,0.3c0.2-0.3,0.1-0.4,0-0.6c-0.1-0.1,0-0.2,0.2-0.3
		c0.1,0,0.2,0,0.3,0.1C40.3,38.9,40.3,38.7,40.2,38.5z M34.9,39.1c0.4,0.7,0.1,1.5,0.3,2.2c0.2-0.3,0.3-0.6,0.2-0.8
		c-0.1-0.4-0.2-0.8,0-1.3c0.1-0.1-0.1-0.2-0.3-0.2C35,39.1,35,39.1,34.9,39.1z M39.6,20.6c0,0,0.1,0,0.1,0c0-0.6,0.1-1.2,0.1-1.8
		c0-0.6,0-1.2-0.1-1.8c0,0.1-0.1,0.2-0.1,0.4c0,0.6,0,1.2,0,1.9c0,0.1,0,0.3,0,0.4C39.6,20,39.7,20.3,39.6,20.6z M16.5,42.1
		c-0.3-0.3-0.5-0.5-0.7-0.7c-0.1-0.1-0.2-0.2-0.4-0.1c-0.2,0.1-0.2,0.3-0.2,0.5c0.1,0,0.3-0.1,0.4-0.1c0,0.1,0,0.2,0,0.3
		c0.1,0,0.2,0,0.2-0.1c0.1-0.2,0.2,0,0.2,0c-0.1,0.1-0.1,0.2,0.1,0.2C16.1,42.2,16.3,42.1,16.5,42.1z M17.4,43.1
		c0.1,0.3,0.1,0.3,0.2,0.4c0.1,0,0.3-0.1,0.2,0.2c0.1,0,0.3,0.1,0.3,0.1c0.1,0.4,0.5,0.2,0.8,0.4C18.5,43.7,18.1,43.3,17.4,43.1z
		 M42.2,40.2c0.1,0,0.1-0.1,0.1-0.1c0-0.5,0-1.1,0-1.6c0,0-0.1-0.1-0.2-0.1c-0.2,0.5,0,1.1,0,1.6C42.1,40.1,42.2,40.2,42.2,40.2z
		 M33,39.1c0,0.5,0,1,0,1.4c0,0.1,0.1,0.1,0.2,0.3c0-0.7,0-1.2,0.1-1.7C33.2,39.1,33.1,39.1,33,39.1z M28.6,26.4
		C28.6,26.4,28.7,26.4,28.6,26.4c0.1-1.1,0.1-2.2,0.1-3.3c0,0,0,0-0.1,0C28.6,24.2,28.6,25.3,28.6,26.4z M27.8,47.7
		c0.2-0.2,0.2-0.3,0-0.4c0,0-0.1,0-0.2-0.1c-0.4,0-0.8-0.1-1.1-0.1c0,0-0.1,0-0.2,0.1c0.4,0.1,0.7,0.4,1.2,0.3
		C27.6,47.5,27.7,47.6,27.8,47.7z M41.8,42.3c0.1-1,0.1-1.4-0.1-1.7C41.6,41.5,41.6,42,41.8,42.3z M30.8,41.4
		C30.9,41.4,30.9,41.4,30.8,41.4c0.1-0.8,0.1-1.5,0.1-2.3c0,0-0.1,0-0.1-0.1c-0.2,0.2-0.1,0.4-0.1,0.6c0.1,0.4,0.1,0.8,0.1,1.2
		C30.9,41.1,30.8,41.3,30.8,41.4z M36.8,38.4c-0.1-0.1-0.2-0.2-0.3-0.2c-0.4,0-0.8,0-1.2,0c-0.1,0-0.1,0.1-0.2,0.2
		C35.8,38.5,36.3,38.5,36.8,38.4z M34.6,47.6c-0.4,0-0.8,0.1-1.2,0.1c0.1,0.3,0.4,0.2,0.6,0.2c0.2,0,0.4,0,0.6,0.1
		c0-0.1,0.1-0.1,0.1-0.2C34.6,47.8,34.6,47.8,34.6,47.6z M34.8,32.6c0-0.6,0-1.2,0-1.9c-0.1,0.2-0.2,0.3-0.2,0.4
		C34.6,31.6,34.5,32.1,34.8,32.6z M27.6,34.3c0-0.3,0.1-0.6,0.1-0.9c0-0.2-0.1-0.4-0.1-0.6c0-0.3,0-0.7,0-1
		C27.4,32.2,27.4,33.7,27.6,34.3z M46,11.3c0.6,0.1,1.5,0.1,1.9-0.1c-0.2-0.1-0.4-0.1-0.6-0.2c-0.1,0.1-0.2,0.3-0.4,0.2
		c-0.2,0-0.5,0-0.7-0.1C46.2,11.1,46,11.1,46,11.3z M34.8,35.7c0.1-0.8,0.1-2.1-0.1-2.6c0.1,0.4-0.1,0.8,0,1.3
		C34.8,34.8,34.6,35.2,34.8,35.7z M41.6,38.5c0,0-0.1,0-0.1,0.1c0.1,0.6,0.1,1.1,0.2,1.8c0.1-0.2,0.2-0.3,0.2-0.4
		c-0.2-0.4-0.1-0.9-0.1-1.3C41.7,38.6,41.7,38.5,41.6,38.5z M17.9,15.6c0,0-0.1,0-0.1,0c0,0.7,0,1.3,0,2c0,0.1,0.1,0.1,0.2,0.3
		C18,17.4,18,17,17.9,16.7C17.9,16.3,17.9,15.9,17.9,15.6z M27.5,38.3c0.1-0.6,0.1-1.2,0-1.6c0,0.1-0.1,0.1-0.1,0.1
		c0.1,0.4-0.1,0.8,0,1.2C27.3,38.1,27.4,38.2,27.5,38.3z M17.2,34.4C17.2,34.4,17.3,34.4,17.2,34.4c0.1-0.2,0.3-0.5,0.2-0.7
		c-0.1-0.3-0.1-0.6,0-0.8c0,0-0.1-0.1-0.2-0.3C17.2,33.3,17.2,33.8,17.2,34.4z M37.1,21.2C37.1,21.2,37,21.2,37.1,21.2
		C37,22,37,22.8,37,23.6c0,0,0,0,0.1,0C37.1,22.8,37.1,22,37.1,21.2z M41.4,41.9c-0.2,0.1-0.3,0.2-0.2,0.4c0.1,0.3,0,0.3-0.2,0.4
		c-0.1-0.1-0.1-0.1-0.2-0.2c0,0.1,0,0.2,0,0.2c0,0.1,0,0.2,0,0.2c0.6,0,0.6,0,0.6-0.5C41.4,42.2,41.4,42,41.4,41.9z M29.1,27.6
		c0,0.3,0,0.6,0.1,0.9c0,0.1,0,0.2,0,0.4c0,0.1,0,0.3,0.3,0.3c-0.1-0.5-0.1-1-0.2-1.4C29.3,27.7,29.2,27.6,29.1,27.6z M24.3,46.5
		c0,0,0,0.1,0,0.1c0.3,0.1,0.7,0.3,1.1,0.4c0.1,0,0.1-0.1,0.3-0.1C25.1,46.7,24.7,46.6,24.3,46.5z M33.6,37.2c0-0.5,0-1.1,0-1.6
		c0,0,0,0-0.1-0.1c0,0.3,0.1,0.5,0,0.7C33.3,36.5,33.4,36.8,33.6,37.2z M44.5,39.4c-0.3,0.4-0.3,0.9,0,1.2c0-0.1,0-0.3,0-0.4
		C44.5,40,44.5,39.7,44.5,39.4z M25.1,14.9c-0.1-0.3-0.1-0.4-0.1-0.6c0-0.2,0-0.3,0-0.7C24.6,14.6,24.6,14.7,25.1,14.9z M29.4,18.8
		C29.4,18.8,29.4,18.8,29.4,18.8c-0.1,0.6-0.1,1.3-0.1,1.9c0,0,0,0,0.1,0C29.4,20.1,29.4,19.5,29.4,18.8z M31.5,39.1
		c0,0.2,0.1,0.4,0.1,0.6c0,0.2,0,0.4,0,0.7C31.9,39.3,31.9,39.3,31.5,39.1z M37,27.4c0-0.4,0.3-0.7-0.1-1.2
		C36.9,26.7,36.8,27.1,37,27.4z M23.1,21c0.3-0.6,0.3-0.7,0-1.2C23.1,20.2,23.1,20.6,23.1,21z M34.8,43.8c-0.4,0-0.8-0.2-1.1,0.1
		c0.3,0.1,0.6,0.1,0.9,0.1C34.7,44,34.8,43.9,34.8,43.8z M35.8,44.5c-0.3,0.1-0.5-0.1-0.8,0.2c0.2,0,0.3,0.1,0.5,0.1
		c0.4,0,0.5,0,0.5-0.5c0,0,0-0.1-0.1-0.1C35.9,44.2,35.8,44.3,35.8,44.5z M48.1,16.4c0-0.2,0-0.5,0-0.7c0,0,0,0-0.1,0
		c0,0.2-0.1,0.3-0.1,0.4c-0.2,0-0.4,0-0.3,0.2c0,0.1,0.1,0.2,0.1,0.3C47.9,16.5,48,16.5,48.1,16.4z M35.1,20.6
		c0.3-0.5,0.3-0.5,0-1.4C35.1,19.6,35.1,20.1,35.1,20.6z M29.4,40.2C29.4,40.2,29.4,40.2,29.4,40.2c0.1-0.3,0.1-0.6,0.1-0.9
		c0-0.2-0.1-0.3-0.3-0.3C29.2,39.4,29.3,39.8,29.4,40.2z M18.2,25.9c-0.1,0.3,0,0.6,0,0.9c0,0.1,0.1,0.1,0.2,0.2
		C18.4,26.6,18.5,26.2,18.2,25.9z M27.5,36.4c0-0.5,0-1,0-1.6C27.5,35.4,27.3,35.9,27.5,36.4z M41,31.2c0.3,0,0.3-0.1,0.5-0.1
		c0-0.4,0-0.8,0-1.2c0,0,0-0.1-0.1-0.1C41.3,30.3,41.6,30.8,41,31.2z M18.5,16.5c0,0.4-0.1,0.9,0,1.3c0.1,0,0.1,0,0.1,0
		C18.7,17.3,18.5,16.9,18.5,16.5z M29.7,32.7c0,0.6,0,1.1,0,1.6C29.9,33.8,29.9,33.3,29.7,32.7z M28.6,38.8c-0.2,0.3-0.2,0.3,0,1.4
		C28.6,39.7,28.6,39.3,28.6,38.8z M19.8,44.7c-0.3-0.2-0.5-0.3-0.7-0.5c0,0.1,0,0.2-0.1,0.3C19.7,44.8,19.7,44.8,19.8,44.7z
		 M33.1,44.6c0,0.1,0,0.2,0,0.2c0.4,0,0.7,0,1.1-0.1C33.9,44.4,33.5,44.7,33.1,44.6z M25.9,34.6C25.9,34.6,25.9,34.6,25.9,34.6
		c-0.1,0.1-0.1,0.2-0.1,0.3c0,0.3,0.1,0.6-0.1,0.9c0,0,0.1,0.2,0.2,0.3C25.9,35.6,25.9,35.1,25.9,34.6z M30.3,26.9
		c-0.4,0.3,0,0.5,0.1,0.7C30.5,27.4,30.5,27.2,30.3,26.9z M26.2,33.4c0,0.4,0,0.7,0,1.1C26.6,34.1,26.5,33.8,26.2,33.4z M32.9,45.5
		c0.3,0.3,0.3,0.3,1.1,0C33.6,45.5,33.2,45.5,32.9,45.5z M24.9,26.7C24.9,26.7,24.9,26.7,24.9,26.7c0.1-0.5,0.1-1,0.1-1.6
		c0,0,0,0-0.1,0C24.9,25.6,24.9,26.1,24.9,26.7z M28.5,22.3C28.5,22.3,28.5,22.3,28.5,22.3c0-0.4,0-0.9,0-1.4
		c-0.1,0-0.2,0.1-0.2,0.1C28.4,21.4,28.5,21.8,28.5,22.3z M38.3,22.4C38.3,22.4,38.3,22.4,38.3,22.4c0.1-0.5,0.1-1,0.1-1.6
		c0,0,0,0-0.1,0C38.3,21.3,38.3,21.9,38.3,22.4z M42.3,41.7c0-0.4,0-0.8,0-1.2C42,40.9,42.2,41.2,42.3,41.7z M30.4,35.1
		c0,0.5,0,1,0,1.4C30.5,36.1,30.5,35.6,30.4,35.1z M37,18.4c0.4-0.3,0-0.7,0-1C37,17.7,37,18,37,18.4z M41.4,16.8
		c-0.1-0.3-0.2-0.5-0.2-0.8c-0.3,0.2-0.2,0.4-0.2,0.6C41.1,16.7,41.2,16.7,41.4,16.8z M17.3,27.6c-0.1,0.2-0.1,0.5-0.2,0.7
		c0,0.1,0.1,0.2,0.1,0.3C17.4,28.2,17.4,27.9,17.3,27.6z"/>
</g>
</svg>
