<?xml version="1.0" encoding="utf-8"?>
<!-- Generator: Adobe Illustrator 17.1.0, SVG Export Plug-In . SVG Version: 6.00 Build 0)  -->
<!DOCTYPE svg PUBLIC "-//W3C//DTD SVG 1.1//EN" "http://www.w3.org/Graphics/SVG/1.1/DTD/svg11.dtd">
<svg version="1.1" id="Capa_1" xmlns="http://www.w3.org/2000/svg" xmlns:xlink="http://www.w3.org/1999/xlink" x="0px" y="0px"
	 viewBox="0 0 41.3 30.9" enable-background="new 0 0 41.3 30.9" xml:space="preserve">
<g>
	<path fill="#030104" d="M23.6,2.7L10,6.3L5.8,2.8v20.6L9.7,28l14.1-6.8l12.6,5.5V5L23.6,2.7z M27.1,11.8c0-0.1-0.2-0.2-0.3-0.1
		c-0.1,0-0.2,0.1-0.3,0.2c-0.1,0-0.1,0-0.2-0.1c-0.8-0.3-1.8-0.6-2.5-1.1V4c0-0.1-0.1-0.2-0.2-0.2c-0.1,0-0.2,0.1-0.2,0.2v6.5
		c-0.6-0.5-1-1.1-1-1.9c0,0,0,0,0-0.1c-0.5-1.6-0.2-3.7,0-4.6l1.2-0.3l11.9,2.2v5.5c-0.2,0.4-0.4,0.7-0.8,0.7c-0.1,0-0.2,0-0.3-0.1
		c-0.1,0-0.2-0.1-0.3-0.1c-1.1,0-1.5,2.3-1.6,3c-1.4-0.5-3.8-1.7-4.6-2.3c-0.2-0.1-0.4-0.3-0.8-0.4C27.1,12,27.1,11.9,27.1,11.8z
		 M14.1,10.7c0-0.1-0.1-0.2-0.2-0.3c-0.1,0-0.1,0-0.2,0c-0.1-0.1-0.2-0.1-0.2-0.2c-0.6-0.4-0.3-2.6,0.2-4.1l6.3-1.7
		c0.1,0.2,0.3,0.4,0.3,0.6c0.2,0.5,0.1,0.8-1.2,1.7c-0.4,0.2-0.6,0.3-0.9,0.4c-0.7,0.2-1,0.3-1.7,2.3c-0.4,1.1-0.8,1.6-1.4,1.6
		C14.9,11.2,14.5,11,14.1,10.7z M6.6,23.1v-3.3c0.2-0.1,0.6-0.2,1.3-0.5c0.4-0.1,0.4-0.1,0.5,0.2c0.1,0.3,0.3,0.8,1,1.3
		c0.1,0.1,0.2,0.1,0.3,0.2v5.4c0,0.1,0.1,0.2,0.2,0.2s0.2-0.1,0.2-0.2v-5.2c1.4,1,2.1,1.8,1.8,2.3c-0.1,0.2-0.1,0.4,0,0.6
		c0.3,0.5,1.4,0.8,2.1,0.8l-4.1,2L6.6,23.1z M23.8,20.1l-9.2,4.5l0,0c-0.7,0-2.1-0.2-2.4-0.7c-0.1-0.1-0.1-0.2,0-0.3
		c0.3-0.8-0.4-1.7-2.1-2.8v-13c0-0.1-0.1-0.2-0.2-0.2S9.7,7.7,9.7,7.8v12.8c0,0-0.1,0-0.1-0.1c-0.6-0.4-0.8-0.8-0.9-1.1
		C8.5,19,8.4,18.7,7.8,19c-0.5,0.2-0.9,0.4-1.1,0.5V4.7l3.2,2.6l3.6-0.9c-0.3,1.2-0.9,3.8,0,4.3c0.1,0.1,0.2,0.1,0.3,0.2
		c-0.1,0.4-0.1,0.7-0.1,1.1c0,0.1,0.1,0.2,0.2,0.3c0,0,0,0,0,0c0.1,0,0.2-0.1,0.2-0.2c0-0.3,0.1-0.6,0.1-0.9
		c0.4,0.2,0.8,0.4,1.2,0.4l0,0c0.7,0,1.2-0.6,1.7-1.9c0.7-1.9,1-2,1.5-2.1c0.3-0.1,0.6-0.1,1-0.4c1.2-0.9,1.5-1.3,1.3-2.1
		c-0.1-0.2-0.2-0.4-0.3-0.6L22.1,4c-0.2,1-0.5,3,0.1,4.6c0,1,0.6,1.7,1.3,2.2v3.9c-0.1-0.1-0.2-0.1-0.3,0L23,15.1
		c-0.2,0.2-0.4,0.4-0.6,0.6c-0.1,0.1-0.1,0.2,0,0.3c0,0,0.1,0.1,0.2,0.1c0.1,0,0.1,0,0.2-0.1c0.2-0.2,0.4-0.4,0.6-0.6l0.2-0.2v4.3
		c0,0.1,0.1,0.2,0.2,0.2c0.1,0,0.2-0.1,0.2-0.2v-8.4c0.7,0.4,1.6,0.8,2.3,1c-0.1,0.1-0.2,0.2-0.3,0.2c-0.1,0.1-0.1,0.2-0.1,0.3
		c0,0.1,0.1,0.1,0.2,0.1c0,0,0.1,0,0.1,0c0.2-0.2,0.5-0.3,0.7-0.4c0.4,0.2,0.8,0.3,0.9,0.4c0.9,0.8,3.7,2,4.9,2.4c0,0,0,0,0,0
		c0,0,0.1,0,0.1,0c0,0,0.1-0.1,0.1-0.1c0.1-0.8,0.5-2.9,1.4-2.9c0.1,0,0.2,0,0.2,0c0.2,0.1,0.3,0.1,0.4,0.1c0.3,0,0.6-0.2,0.8-0.4
		v13.4L23.8,20.1z"/>
	<path fill="#030104" d="M14.4,8.7c-0.1,0-0.2,0-0.3,0.2c0,0-0.1,0.2-0.2,0.6c0,0.1,0,0.3,0.2,0.3c0,0,0,0,0.1,0
		c0.1,0,0.2-0.1,0.2-0.2C14.5,9.2,14.5,9,14.5,9C14.5,8.8,14.5,8.7,14.4,8.7z"/>
	<path fill="#030104" d="M21.6,16.6c-0.3,0.3-0.6,0.6-0.8,0.8c-0.1,0.1-0.1,0.2,0,0.3c0,0.1,0.1,0.1,0.2,0.1c0,0,0.1,0,0.1-0.1
		c0.3-0.2,0.6-0.5,0.9-0.8c0.1-0.1,0.1-0.2,0-0.3C21.8,16.5,21.7,16.5,21.6,16.6z"/>
	<path fill="#030104" d="M13.7,14.7c0.1,0,0.2-0.1,0.2-0.3c0-0.3,0-0.5,0-0.8c0-0.1,0-0.3,0-0.4c0-0.1-0.1-0.2-0.2-0.2
		c-0.1,0-0.2,0.1-0.2,0.2c0,0.1,0,0.3,0,0.4c0,0.3,0,0.6,0,0.8C13.5,14.6,13.6,14.7,13.7,14.7C13.7,14.7,13.7,14.7,13.7,14.7z"/>
	<path fill="#030104" d="M24.9,13.1c-0.3,0.2-0.5,0.5-0.8,0.8c-0.1,0.1-0.1,0.2,0,0.3c0,0,0.1,0.1,0.2,0.1c0.1,0,0.1,0,0.1-0.1
		c0.3-0.3,0.6-0.6,0.8-0.8c0.1-0.1,0.1-0.2,0-0.3C25.1,13,25,13,24.9,13.1z"/>
	<path fill="#030104" d="M14.1,15.6c0-0.1-0.1-0.2-0.3-0.2c-0.1,0-0.2,0.2-0.2,0.3c0.1,0.4,0.2,0.9,0.4,1.2c0,0.1,0.1,0.1,0.2,0.1
		c0,0,0.1,0,0.1,0c0.1-0.1,0.2-0.2,0.1-0.3C14.3,16.4,14.1,16,14.1,15.6z"/>
	<path fill="#030104" d="M19.9,18.1c-0.3,0.2-0.7,0.4-1,0.5c-0.1,0-0.2,0.2-0.1,0.3c0,0.1,0.1,0.2,0.2,0.2c0,0,0.1,0,0.1,0
		c0.3-0.1,0.7-0.3,1-0.6c0.1-0.1,0.1-0.2,0.1-0.3C20.1,18,20,18,19.9,18.1z"/>
	<path fill="#030104" d="M17.9,18.9c-0.1,0-0.2,0-0.4,0c-0.2,0-0.5,0-0.7-0.1c-0.1,0-0.2,0.1-0.3,0.2c0,0.1,0.1,0.3,0.2,0.3
		c0.3,0.1,0.5,0.1,0.8,0.1c0.1,0,0.3,0,0.4,0c0.1,0,0.2-0.1,0.2-0.3C18.1,19,18,18.9,17.9,18.9z"/>
	<path fill="#030104" d="M15.8,18.4c-0.3-0.2-0.6-0.4-0.8-0.7c-0.1-0.1-0.2-0.1-0.3,0c-0.1,0.1-0.1,0.2,0,0.3
		c0.3,0.3,0.6,0.6,0.9,0.8c0,0,0.1,0,0.1,0c0.1,0,0.2,0,0.2-0.1C15.9,18.6,15.9,18.5,15.8,18.4z"/>
	<path fill="#030104" d="M28,11.8C28,11.8,28,11.8,28,11.8c0.2,0,0.4,0,0.6,0c0.1,0,0.2-0.1,0.2-0.2s-0.1-0.2-0.2-0.2
		c-0.2,0-0.4,0-0.6,0c-0.1,0-0.2,0.1-0.2,0.3C27.8,11.7,27.9,11.8,28,11.8z"/>
	<path fill="#030104" d="M29.5,17.1c0,0-0.1,0-0.1,0c-0.3,0-2.6,0.3-3,1.1c-0.1,0.1-0.1,0.3,0,0.5c0.3,0.7,1.5,1,2.2,1
		c0.8,0,0.9-0.3,0.9-0.5c0-0.1,0-0.1,0.1-0.2c0,0,0.1,0,0.1,0c0.1,0,0.1,0,0.2,0c0.2,0,0.3-0.1,0.5-0.2c0.2-0.2,0.2-0.6,0.1-1
		C30.3,17.4,29.9,17.1,29.5,17.1z M30.1,18.6c-0.1,0.2-0.3,0.1-0.4,0.1c0,0-0.1,0-0.1,0c-0.3,0-0.4,0.3-0.4,0.5
		c0,0.1-0.2,0.2-0.6,0.2c-0.7,0-1.7-0.3-1.9-0.8c0-0.1,0-0.1,0-0.1c0.2-0.4,1.8-0.8,2.7-0.9c0,0,0,0,0.1,0c0.3,0,0.5,0.3,0.6,0.5
		C30.3,18.2,30.3,18.4,30.1,18.6z"/>
</g>
</svg>
