<?xml version="1.0" encoding="UTF-8"?>
<svg width="32px" height="26px" viewBox="0 0 32 26" version="1.1" xmlns="http://www.w3.org/2000/svg" xmlns:xlink="http://www.w3.org/1999/xlink">
    <!-- Generator: Sketch 63.1 (92452) - https://sketch.com -->
    <title>Map</title>
    <desc></desc>
    <defs>
        <polyline id="path-1" points="1024 0 1024 3609 0 3609 0 0"></polyline>
    </defs>
    <g id="Page-1" stroke="none" stroke-width="1" fill="none" fill-rule="evenodd">
        <g id="web-A&amp;A-LANDING(1)" transform="translate(-473.000000, -968.000000)">
            <g id="Group-8" transform="translate(0.000000, 123.000000)"></g>
            <g id="Group-15" transform="translate(116.000000, 89.000000)"></g>
            <g id="Group-140" transform="translate(471.000000, 754.000000)"></g>
            <g id="Group-178">
                <mask id="mask-2" fill="white">
                    <use xlink:href="#path-1"></use>
                </mask>
                <g id="Clip-156"></g>
                <path d="M491.5135,986.159 L482.2875,990.634 L482.2845,990.585 C481.6225,990.629 480.1395,990.364 479.8465,989.878 C479.7925,989.788 479.7895,989.701 479.8375,989.597 C480.1795,988.843 479.4695,987.886 477.7305,986.749 L477.7305,973.781 C477.7305,973.681 477.6565,973.6 477.5655,973.6 C477.4735,973.6 477.3995,973.681 477.3995,973.781 L477.3995,986.539 C477.3605,986.514 477.3235,986.49 477.2835,986.465 C476.6525,986.08 476.4995,985.671 476.3885,985.373 C476.2485,984.996 476.1125,984.769 475.5275,985.012 C474.9875,985.237 474.6115,985.38 474.3815,985.463 L474.3815,970.702 L477.5795,973.301 L481.1425,972.357 C480.8055,973.591 480.2355,976.16 481.1555,976.69 C481.2465,976.742 481.3385,976.801 481.4315,976.861 C481.3735,977.226 481.3255,977.589 481.2885,977.943 C481.2755,978.073 481.3605,978.191 481.4795,978.206 C481.4875,978.207 481.4965,978.207 481.5045,978.207 C481.6125,978.207 481.7065,978.117 481.7185,977.996 C481.7485,977.709 481.7875,977.415 481.8315,977.119 C482.2105,977.358 482.6005,977.567 483.0025,977.567 C483.6805,977.567 484.2275,976.959 484.6735,975.707 C485.3415,973.832 485.6565,973.756 486.1775,973.631 C486.4325,973.569 486.7495,973.493 487.1545,973.214 C488.4025,972.357 488.6785,971.906 488.4385,971.116 C488.3635,970.869 488.2535,970.667 488.1405,970.503 L489.8485,970.051 C489.6595,971.046 489.3875,973.077 489.9215,974.683 C489.9155,975.677 490.4795,976.387 491.2455,976.919 L491.2455,980.831 C491.1625,980.762 491.0435,980.765 490.9665,980.85 L490.7475,981.089 C490.5535,981.302 490.3585,981.514 490.1635,981.725 C490.0785,981.816 490.0765,981.967 490.1605,982.061 C490.2025,982.109 490.2585,982.132 490.3145,982.132 C490.3695,982.132 490.4235,982.11 490.4665,982.064 C490.6615,981.853 490.8565,981.64 491.0515,981.428 L491.2455,981.215 L491.2455,985.5 C491.2455,985.591 491.3135,985.666 491.3965,985.666 C491.4795,985.666 491.5465,985.591 491.5465,985.5 L491.5465,977.115 C492.2885,977.561 493.1585,977.87 493.8885,978.121 C493.7755,978.196 493.6615,978.275 493.5445,978.363 C493.4455,978.437 493.4205,978.585 493.4875,978.694 C493.5295,978.761 493.5975,978.798 493.6665,978.798 C493.7085,978.798 493.7505,978.784 493.7875,978.756 C494.0185,978.584 494.2385,978.439 494.4535,978.316 C494.8795,978.467 495.2265,978.606 495.3985,978.747 C496.3355,979.513 499.0975,980.754 500.2885,981.175 C500.3035,981.181 500.3195,981.183 500.3345,981.183 C500.3635,981.183 500.3925,981.175 500.4175,981.157 C500.4555,981.131 500.4805,981.086 500.4865,981.037 C500.5815,980.221 501.0105,978.105 501.8415,978.105 C501.9155,978.105 501.9925,978.122 502.0725,978.154 C502.2265,978.217 502.3765,978.249 502.5175,978.249 C502.8425,978.249 503.0875,978.087 503.2745,977.855 L503.2745,991.293 L491.5135,986.159 Z M474.3815,989.109 L474.3815,985.816 C474.5965,985.74 475.0045,985.588 475.6355,985.326 C475.9865,985.179 475.9955,985.204 476.1065,985.5 C476.2275,985.825 476.4105,986.316 477.1345,986.759 C477.2265,986.815 477.3135,986.87 477.3995,986.925 L477.3995,992.374 C477.3995,992.475 477.4735,992.556 477.5645,992.556 C477.6555,992.556 477.7295,992.475 477.7295,992.374 L477.7295,987.14 C479.1585,988.1 479.8085,988.909 479.5645,989.446 C479.4675,989.659 479.4775,989.872 479.5925,990.063 C479.8995,990.574 480.9695,990.832 481.7325,990.903 L477.6665,992.875 L474.3815,989.109 Z M481.8815,976.763 C481.8925,976.641 481.8185,976.527 481.7075,976.505 C481.6485,976.493 481.5905,976.51 481.5445,976.545 C481.4615,976.492 481.3785,976.44 481.2975,976.393 C480.6645,976.028 481.0425,973.825 481.4865,972.266 L487.8125,970.591 C487.9345,970.743 488.0675,970.952 488.1495,971.223 C488.3085,971.748 488.2475,972.068 486.9935,972.93 C486.6325,973.178 486.3565,973.245 486.1125,973.303 C485.4585,973.461 485.0845,973.634 484.3895,975.585 C483.9945,976.693 483.5405,977.232 483.0025,977.232 C482.6415,977.232 482.2575,977.007 481.8815,976.763 L481.8815,976.763 Z M494.8455,977.851 C494.7975,977.731 494.6685,977.677 494.5605,977.73 C494.4585,977.78 494.3565,977.835 494.2535,977.894 C494.2005,977.876 494.1485,977.858 494.0945,977.839 C493.2765,977.56 492.3095,977.229 491.5465,976.74 L491.5465,970.051 C491.5465,969.96 491.4795,969.886 491.3965,969.886 C491.3135,969.886 491.2455,969.96 491.2455,970.051 L491.2455,976.531 C490.6315,976.063 490.2115,975.462 490.2265,974.659 C490.2275,974.638 490.2235,974.616 490.2175,974.596 C489.6735,972.995 490.0015,970.858 490.1795,969.964 L491.4225,969.635 L503.2755,971.793 L503.2755,977.248 C503.1195,977.606 502.8815,977.912 502.5185,977.912 C502.4135,977.912 502.2995,977.888 502.1795,977.839 C502.0655,977.792 501.9525,977.769 501.8425,977.769 C500.7365,977.769 500.3175,980.05 500.2105,980.793 C498.8525,980.29 496.3845,979.134 495.5805,978.477 C495.4155,978.341 495.1505,978.221 494.8155,978.094 C494.8635,978.027 494.8795,977.935 494.8455,977.851 L494.8455,977.851 Z M491.3905,968.677 L477.7665,972.285 L473.5275,968.841 L473.5275,989.487 L477.4635,994.001 L491.5305,987.178 L504.1285,992.675 L504.1285,970.995 L491.3905,968.677 Z" id="Fill-167" fill="#000000" mask="url(#mask-2)"></path>
                <path d="M482.1145,974.692 C482.0005,974.653 481.8795,974.724 481.8445,974.85 C481.8445,974.85 481.7815,975.078 481.6945,975.467 C481.6655,975.594 481.7365,975.723 481.8525,975.754 C481.8695,975.759 481.8875,975.762 481.9045,975.762 C482.0015,975.762 482.0895,975.689 482.1145,975.58 C482.1975,975.21 482.2575,974.992 482.2585,974.989 C482.2925,974.863 482.2285,974.73 482.1145,974.692" id="Fill-168" fill="#000000" mask="url(#mask-2)"></path>
                <path d="M489.3495,982.577 C489.0465,982.882 488.7695,983.144 488.5025,983.377 C488.4095,983.459 488.3935,983.608 488.4685,983.711 C488.5115,983.77 488.5745,983.801 488.6375,983.801 C488.6845,983.801 488.7325,983.784 488.7725,983.749 C489.0465,983.509 489.3315,983.24 489.6415,982.928 C489.7295,982.839 489.7355,982.689 489.6545,982.592 C489.5745,982.495 489.4375,982.488 489.3495,982.577" id="Fill-169" fill="#000000" mask="url(#mask-2)"></path>
                <path d="M481.4552,980.69 C481.5742,980.68 481.6642,980.567 481.6552,980.436 C481.6382,980.181 481.6302,979.913 481.6302,979.639 C481.6302,979.498 481.6322,979.357 481.6362,979.217 C481.6402,979.086 481.5472,978.976 481.4272,978.971 C481.3052,978.969 481.2082,979.07 481.2042,979.202 C481.2002,979.347 481.1972,979.492 481.1972,979.639 C481.1972,979.925 481.2062,980.205 481.2232,980.47 C481.2322,980.595 481.3272,980.691 481.4392,980.691 C481.4442,980.691 481.4502,980.69 481.4552,980.69" id="Fill-170" fill="#000000" mask="url(#mask-2)"></path>
                <path d="M492.6299,979.136 C492.3689,979.38 492.0909,979.655 491.7809,979.979 C491.6949,980.069 491.6909,980.219 491.7729,980.314 C491.8159,980.364 491.8729,980.389 491.9299,980.389 C491.9829,980.389 492.0369,980.367 492.0789,980.324 C492.3829,980.007 492.6549,979.737 492.9099,979.499 C493.0009,979.414 493.0119,979.264 492.9349,979.163 C492.8569,979.063 492.7209,979.052 492.6299,979.136" id="Fill-171" fill="#000000" mask="url(#mask-2)"></path>
                <path d="M481.8085,981.633 C481.7825,981.505 481.6685,981.425 481.5505,981.452 C481.4345,981.48 481.3605,981.607 481.3865,981.735 C481.4755,982.181 481.5985,982.594 481.7515,982.963 C481.7875,983.05 481.8665,983.102 481.9485,983.102 C481.9785,983.102 482.0085,983.095 482.0375,983.081 C482.1465,983.026 482.1945,982.885 482.1445,982.766 C482.0045,982.427 481.8915,982.046 481.8085,981.633" id="Fill-172" fill="#000000" mask="url(#mask-2)"></path>
                <path d="M487.6027,984.081 C487.2717,984.307 486.9457,984.49 486.6327,984.623 C486.5207,984.671 486.4657,984.809 486.5087,984.931 C486.5427,985.025 486.6247,985.083 486.7107,985.083 C486.7367,985.083 486.7637,985.078 486.7897,985.067 C487.1267,984.922 487.4777,984.727 487.8307,984.486 C487.9327,984.416 487.9637,984.269 487.9007,984.159 C487.8367,984.046 487.7037,984.013 487.6027,984.081" id="Fill-173" fill="#000000" mask="url(#mask-2)"></path>
                <path d="M485.5966,984.909 C485.4716,984.924 485.3576,984.93 485.2176,984.931 C484.9936,984.931 484.7646,984.906 484.5376,984.856 C484.4216,984.832 484.3076,984.914 484.2836,985.044 C484.2606,985.172 484.3366,985.298 484.4536,985.323 C484.7076,985.378 484.9646,985.407 485.2176,985.407 C485.3636,985.406 485.5016,985.399 485.6426,985.382 C485.7616,985.368 485.8476,985.251 485.8346,985.12 C485.8216,984.99 485.7156,984.899 485.5966,984.909" id="Fill-174" fill="#000000" mask="url(#mask-2)"></path>
                <path d="M483.5393,984.466 C483.2283,984.279 482.9513,984.038 482.7173,983.748 C482.6383,983.65 482.5013,983.641 482.4123,983.728 C482.3233,983.815 482.3153,983.965 482.3943,984.063 C482.6623,984.394 482.9773,984.671 483.3323,984.883 C483.3653,984.903 483.4003,984.913 483.4363,984.913 C483.5123,984.913 483.5863,984.868 483.6263,984.788 C483.6823,984.674 483.6443,984.529 483.5393,984.466" id="Fill-175" fill="#000000" mask="url(#mask-2)"></path>
                <path d="M495.7393,977.838 C495.7483,977.838 495.7583,977.838 495.7673,977.836 C495.9443,977.811 496.1223,977.803 496.2983,977.812 C496.4083,977.821 496.5183,977.717 496.5243,977.586 C496.5293,977.454 496.4373,977.343 496.3183,977.337 C496.1183,977.326 495.9133,977.336 495.7123,977.364 C495.5933,977.381 495.5103,977.501 495.5253,977.631 C495.5393,977.751 495.6323,977.838 495.7393,977.838" id="Fill-176" fill="#000000" mask="url(#mask-2)"></path>
                <path d="M497.8921,984.6 C497.7561,984.771 497.6381,984.724 497.5331,984.71 C497.4861,984.703 497.4421,984.698 497.4011,984.698 C497.0781,984.698 497.0511,985.041 497.0411,985.154 C497.0351,985.229 496.8411,985.333 496.4271,985.333 C495.6811,985.333 494.6981,985 494.4821,984.523 C494.4561,984.468 494.4561,984.424 494.4811,984.374 C494.6981,983.935 496.2701,983.592 497.2141,983.478 C497.2371,983.474 497.2591,983.472 497.2821,983.472 C497.5581,983.472 497.7901,983.735 497.8971,983.996 C497.9981,984.238 497.9951,984.47 497.8921,984.6 M497.2821,983.137 C497.2461,983.137 497.2091,983.139 497.1771,983.144 C496.9121,983.176 494.5771,983.477 494.2131,984.213 C494.1401,984.36 494.1391,984.519 494.2091,984.673 C494.5181,985.352 495.7151,985.669 496.4271,985.669 C497.1921,985.669 497.3301,985.365 497.3451,985.184 C497.3551,985.062 497.3771,985.035 497.4011,985.034 C497.4301,985.034 497.4611,985.039 497.4951,985.043 C497.5461,985.05 497.6011,985.057 497.6571,985.057 C497.8431,985.057 497.9951,984.98 498.1211,984.821 C498.3051,984.59 498.3251,984.221 498.1751,983.857 C497.9951,983.419 497.6451,983.137 497.2821,983.137" id="Fill-177" fill="#000000" mask="url(#mask-2)"></path>
            </g>
            <g id="Group-180" transform="translate(102.000000, 716.000000)"></g>
        </g>
    </g>
</svg>