<?xml version="1.0" encoding="utf-8"?>
<!-- Generator: Adobe Illustrator 17.1.0, SVG Export Plug-In . SVG Version: 6.00 Build 0)  -->
<!DOCTYPE svg PUBLIC "-//W3C//DTD SVG 1.1//EN" "http://www.w3.org/Graphics/SVG/1.1/DTD/svg11.dtd">
<svg version="1.1" id="Capa_1" xmlns="http://www.w3.org/2000/svg" xmlns:xlink="http://www.w3.org/1999/xlink" x="0px" y="0px"
	 viewBox="0 0 94.4 119.8" enable-background="new 0 0 94.4 119.8" xml:space="preserve">
<g>
	<path d="M48.9,83.8c-0.4-0.8-0.7-1.4-1-1.9c-0.5-1-1.1-2-1.6-3.1c-0.8-1.6-1.9-2.9-3.3-3.9c-0.3-0.2-0.6-0.4-0.8-0.6
		c-1.1-1.4-2.6-2.2-4.1-3.2c-0.9-0.6-1.9-1-2.9-1.3c-0.5-0.2-1.1-0.2-1.7-0.8c1.4-0.2,2.5,0.4,3.7,0.7c-0.2-0.8-0.8-0.9-1.3-1
		c-1-0.2-2.1-0.4-3.2-0.6c-0.3-0.1-0.7-0.2-1.1-0.3c0.2-0.7,0.6-0.5,0.9-0.5c1.3,0.1,2.6,0.2,4,0.4c-0.2-0.2-0.3-0.3-0.4-0.4
		C36,67.1,35.7,67,35.5,67c-2.2-0.3-4.3-1.1-6.6-0.9c-0.3,0-0.6,0-1-0.1c0-0.5-0.1-1-0.1-1.6c1.4-0.3,2.7,0,4,0.1
		c1.2,0.1,2.5,0.6,3.7,1.1c1.2,0.5,2.2,1.3,3.5,2.1c0-0.6-0.3-0.8-0.6-1c-0.9-0.8-1.8-1.5-2.7-2.2c-0.3-0.3-0.7-0.4-1.1-0.6
		c-1.1-0.5-2.1-0.9-3.2-1.3c-0.7-0.2-1.4-0.4-2-0.4c-1.1,0-1.8-0.4-2.4-1.3c0.2-0.6,0.7-0.7,1.2-0.6c0.9,0.1,1.7,0.2,2.6,0.4
		c0.6,0.1,1.1,0.4,1.7,0.7c0.5,0.3,1,0.7,1.6,1c0.8,0.4,1.5,0.9,2,1.7c0.2,0.3,0.5,0.6,0.9,0.8c0-1.2-0.6-2.2-1.5-2.8
		c-1.9-1.3-3.9-2.5-6.3-2.8c-0.7-0.1-1.4,0-2.1,0c-0.9,0-1.7,0-2.6,0.1c-0.8,0-1.4-0.3-2.1-1c0.9-0.3,1.6-0.7,2.5-1
		c0.1,0.2,0.3,0.5,0.4,0.7c2.1,0.2,4.2,0.3,6.4,0.5c-0.1-0.2-0.2-0.4-0.4-0.5c-0.4-0.2-0.8-0.3-1.3-0.5c-0.7-0.3-1.5-0.5-2.2-0.8
		c-0.2-0.1-0.4-0.2-0.6-0.2c-1.2-0.2-2.4-0.4-3.5-0.6c-0.1,0-0.2,0-0.2,0c-0.9,0.7-2,0.4-3,0.6c-0.5,0.1-1,0.3-1.6,0.4
		c-0.7,0.2-1.1,0.1-1.4-0.6c-0.1-0.3-0.2-0.7-0.4-1.2c0.7-0.2,1.4-0.5,2.1-0.7c0.3-0.1,0.6-0.1,0.8,0.1c0.6,0.5,1.2,0.3,1.9,0.2
		c1.3-0.3,2.7-0.6,4.1-0.2c0.4,0.1,0.9,0.3,1.3,0.4c0.3,0.1,0.6,0.2,1.2,0.3c-1.1-1.4-2.4-2-3.9-2.2c-0.9-0.1-1.9-0.2-2.8,0.1
		c-0.5,0.2-1.2-0.1-1.9-0.2c1.4-1,2.3-1,5.6-0.5c-0.5-0.7-1-1.1-1.7-1.1c-1.4-0.1-2.8-0.1-4.2,0.1c-0.9,0.2-1.7,0.2-2.4-0.5
		c0.2-0.4,0.5-0.3,0.9-0.3c0.6,0.1,1.2,0.1,1.8,0.1c1.4-0.1,2.9-0.1,4.3-0.2c0.1,0,0.3-0.1,0.7-0.1c-0.6-0.5-1-0.8-1.4-1.2
		c-0.3-0.4-0.6-0.8-1-1.4c-0.6-0.1-1.3-0.4-1.6-1.2c0-0.1-0.1-0.2-0.2-0.3c-1.1-0.7-2.1-1.4-3.2-2.1c-0.5-0.3-0.7-0.2-1.1,0.4
		c-0.6-0.3-1.1-0.4-1.8-0.1c-1.3,0.5-2.6,0.7-3.9,1.1c-0.2,0.1-0.4,0.1-0.6,0.1c-0.1,0-0.4-0.1-0.4-0.2c0-0.2,0-0.4,0.1-0.6
		c0.2-0.2,0.4-0.3,0.6-0.4c0.6-0.3,1.3-0.5,1.9-0.9c0.7-0.5,1.4-0.7,2.2-0.5c0.3,0.1,0.5,0,1-0.1c-0.5-0.7-1.2-1-1.8-0.9
		c-0.9,0.1-1.8,0.5-2.7,0.8c-0.5,0.2-1,0.5-1.4,0.7c-0.5,0.2-0.9,0-1-0.5c0.7-0.8,1.6-1.2,4.6-2.1c-0.1-0.5-0.5-0.5-0.9-0.5
		c-0.9,0-1.8-0.2-2.7-0.3c-0.1,0-0.3-0.1-0.6-0.2c1.6-0.6,3-0.8,4.6-0.1c0-0.3,0.1-0.6,0.1-0.9c-0.1-0.4-0.3-0.7-0.7-0.5
		c-0.6,0.3-1.1,0-1.5-0.3c-0.8-0.5-1.7-0.7-2.6-0.5c-0.5,0.1-1,0.2-1.4-0.3c0.2-0.9,0.4-1.1,1.1-0.9c1.3,0.2,2.7,0.1,3.7,1.1
		c0.1,0.1,0.2,0.1,0.3,0.1c0.1,0,0.2,0,0.4-0.1c-0.1-1.6-0.8-2.9-1.5-4.2c0.2-0.5,0.6-0.4,0.9-0.3c0.1,0.1,0.3,0.2,0.3,0.3
		c0.7,2.2,2.1,4.2,1.7,6.7c0.5,0.4,1,0.9,1.5,1.3c-0.3-2.1,0.1-4.3-1-6.2c-0.4-0.7-0.6-1.5-0.8-2.2c-0.1-0.2,0-0.6,0.1-0.6
		c0.2-0.1,0.5,0,0.8,0c0.1,0,0.3,0.2,0.3,0.4c0.6,1.3,1.4,2.5,1.6,4c0.2,1.5,0.5,2.9,0.7,4.4c-0.3,0.1-0.5,0.1-0.9,0.2
		c1.2,0.9,1.9,2.3,3.6,2.6c-0.2-0.3-0.3-0.6-0.4-0.9c-0.3-0.6-0.6-1.1-0.4-1.9c0.1-0.3-0.1-0.7-0.2-1.1C18.6,39.1,18.3,38,18,37
		c-0.2-0.5-0.5-1.1-0.7-1.6c-0.1-0.3-0.2-0.7-0.1-1.1c0.2,0.2,0.3,0.3,0.5,0.5c1.3,1.7,2,3.6,2.5,5.6c0.4,1.5,0.8,3,1.2,4.4
		c0,0.1,0.1,0.1,0.3,0.2c0.1-0.5,0.1-1,0.2-1.6c0.2,0.6,0.3,1,0.4,1.5c0.1,0.4,0,0.9,0.2,1.3c0.1,0.4,0.4,0.8,0.7,1.1
		c2.9,2.7,5.8,5.5,8.3,8.7c0.4,0.5,0.9,0.9,1.3,1.3c0.9,0.9,1.8,1.7,2.8,2.7c-0.4-3.6-0.7-6.9-2.3-10.2c0.4,0,0.6-0.1,0.6,0
		c0.8,0.9,1.8,1.6,2.1,3c0.2,1.1,0.5,2.2,0.5,3.4c-0.1,1.1,0.3,2.3,0.5,3.4c0.1,0.4,0.1,0.7,0.2,1.1c0,0.1,0.1,0.3,0,0.3
		c-1,0.7-0.2,1.1,0.2,1.5c1.3,1.3,2.3,2.8,3.2,4.4c0.8,1.3,1.7,2.6,3,3.6c0.6,0.5,1.1,1.1,1.5,1.8c1.3,2.3,2.6,4.6,3.8,7
		c0.7,1.3,1.2,2.7,1.8,4.1c4.5-0.4,8.9,0.1,13.1,1.5c0.1-0.2,0.2-0.3,0.2-0.3c0.2-3.8,1.2-7.5,1.9-11.2c0.3-1.8,0.6-3.7,0.9-5.5
		c0.1-0.7,0.3-1.4,0.5-2.2c0.1-0.5,0.1-0.9-0.3-1.4c-0.7-0.9-1.3-2-1.8-3.1c-0.4-0.9-0.5-2-0.7-3c0-0.1-0.1-0.2,0-0.2
		c0.2-2,0.2-4,0.9-6c0,0,0.1,0,0.2-0.1c0.6,1.4,0.4,3,1.3,4.3c0-2.1-0.9-4.1-1-6.5c0.4,0.4,0.6,0.5,0.6,0.7c0.3,0.7,0.5,1.4,0.7,2.1
		c0.1,0.2,0.1,0.5,0,0.7c-0.5,1.4,0.1,2.8,0.4,4.1c0.2,0.7,0.5,1.4,0.7,2.1c0.1,0.2,0.2,0.4,0.5,0.7c0.2-0.5,0.3-0.7,0.4-1
		c0.6-2.9,1.3-5.7,1.9-8.6c0.5-2.1,0.9-4.2,1.4-6.3c0.1-0.6,0.2-1.2-0.2-1.8c-0.4-0.6-0.4-1.4-0.5-2.1c-0.1-0.7-0.2-1.4-0.6-2.1
		c-0.5-1-0.8-2.1-0.9-3.2c-0.1-1.6-0.3-3.1,0.1-4.7c0.1-0.3,0.1-0.6,0.1-0.9c0-0.9,0-1.7,0.5-2.5c0.2-0.3,0.2-0.6,0.2-1
		c0.1-2.3,1-4.4,1.5-6.6c0.1-0.2,0.2-0.4,0.5-0.6c0,0.3-0.1,0.5-0.1,0.8c-0.1,0.4-0.1,0.9-0.2,1.3c-0.1,0.6-0.1,1.1-0.2,1.7
		c0,0.3-0.1,0.6-0.2,1c-0.2,1.1-0.3,2.3-0.5,3.4c-0.1,0.3-0.4,0.6-0.8,1c0.1,0.4,0.1,1,0.3,1.6c0.3,0.8,0.4,1.7,0.4,2.5
		c0.1,2.6-0.1,5.2,1,7.7c0.4-0.3,0.5-0.7,0.5-1.2c0.1-0.6,0.2-1.2,0.2-1.7c0-0.2,0-0.6-0.1-0.7c-0.6-0.7-0.5-1.5-0.6-2.2
		c-0.1-0.5,0.1-1-0.4-1.4c-0.1-0.1-0.1-0.4-0.1-0.6c0.1-1.6,0.1-3.2,0.3-4.8c0.1-0.9,0.3-1.9,0.4-2.8c0.1-0.8,0.3-1.6,0.8-2.3
		c0.3-0.4,0.3-1,0.3-1.5c0.1-1.2,0.1-2.5,0.1-3.7c0-0.9,0.3-1.8,0.8-2.6c0.5,0.4,0.4,0.9,0.3,1.4c-0.1,1-0.3,2.1-0.4,3.1
		c0,0.3-0.1,0.7-0.1,1c0.1,1.9,0.2,3.9,0.3,5.8c0,0.5,0.2,0.9,0.2,1.4c0,0.3-0.1,0.5-0.4,0.8c-0.3-1-0.5-2-0.8-3.1
		C74,24.7,74,25,73.9,25.4c-0.2,1.4-0.3,2.8-0.2,4.2c0.1,1.4,0.2,2.8,0.3,4.2c0,0.2,0.1,0.3,0.1,0.7c0.2-0.3,0.3-0.5,0.4-0.7
		c1-3.5,2.1-7.1,3.1-10.6c0.7-2.6,1.4-5.2,2.2-7.8c0.1-0.4,0.2-0.9,0.2-1.3c-0.2-1.7,0.2-3.2,0.8-4.7c0.3-0.8,0.7-1.6,1-2.3
		c0.6,0.2,0.5,0.5,0.4,0.9c-0.3,0.8-0.7,1.7-1,2.5c-0.3,0.7-0.6,1.4-0.6,2.3c0.5-0.3,0.7-0.8,0.8-1.3c0.4-1.2,1.3-2,2.2-2.8
		c0.2-0.2,0.5-0.2,0.8-0.2c0.4,0.7,0,1.1-0.3,1.4c-1.2,1.4-2.2,2.9-3.1,4.5c-0.5,1-0.8,2-1.1,3c-0.3,1.1-0.4,2.3-0.7,3.4
		c-0.5,1.8-1.1,3.6-1.6,5.4c-0.5,1.8-0.8,3.5-1.2,5.3c-0.2,1.1-0.4,2.3-1.2,3.2c0.6,0.6,0.4,1.3,0.3,2c-0.1,1-0.1,2-0.2,3.2
		c-0.9,0.6-1.1,1.9-1.1,3c-0.1,2-0.6,3.9-1,5.9c-0.4,2.4-1,4.8-1.5,7.2c-0.3,1.3-0.5,2.7-0.7,4c0,0.2,0,0.4,0,0.7
		c0.1,0,0.2,0,0.2,0.1c0.9-1.7,1.9-3.3,2.8-5c0.9-1.7,2.3-3.1,2.6-5.1c-0.2,0.3-0.4,0.6-0.6,0.9c-0.4,0.6-0.8,1.3-1.2,1.9
		c-1,1.2-2.1,2.3-2.5,4.1c-0.1-1-0.1-1,0.1-1.4c0.8-1.6,1.6-3.2,2.5-4.8c-0.4-0.3-0.5-0.7-0.2-1.3c0.6-1.3,1.1-2.7,1.7-4
		c0.4-0.8,1-1.5,1.6-2.4c0.1,0.3,0.1,0.5,0.2,0.8c0.8-0.6,1.1-1.6,1.9-2.1c-0.1,0.3-0.3,0.6-0.4,0.9c-0.7,1.1-1.4,2.2-2,3.3
		c-0.7,1.1-1.3,2.3-1.9,3.5c0.9-0.6,1.6-1.4,2.1-2.4c0.4-0.8,0.7-1.6,1.1-2.4c0.2-0.4,0.4-0.7,0.7-1c0.1,0.8-0.3,1.6-0.4,2.3
		c-0.1,0.8-0.3,1.6-0.4,2.4c-0.4,0.1-0.8,0-0.9,0.6c-0.1,0.7-0.4,1.4-0.6,2.1c-0.5,1.9-0.9,3.8-1.5,5.6c-0.4,1.2-0.8,2.3-1.6,3.3
		c-0.6,0.7-1.3,1.5-1.2,2.6c0,0.3-0.3,0.7-0.5,1c-0.7,1.1-1.5,2.2-2.3,3.4c0.2,0.3,0.1,0.8-0.2,1.3c-0.3,0.5-0.6,1.1-0.7,1.7
		c-0.3,2.6-0.9,5.1-1.5,7.7c-0.5,2.3-1,4.5-1.5,6.8c-0.1,0.3,0.1,0.8,0.3,1c1.1,1,1.5,2.3,1.8,3.7c0.9,3.3,1.9,6.5,2.8,9.8
		c0.5,1.7,1,3.3,1.4,5c0.3,1.4,0.6,2.8,0.9,4.2c0.2,0.9,0,1.2-0.9,1.5c-1.6,0.6-3.2,1.2-4.8,1.7c-3.3,1-6.7,1.5-10.1,1.9
		c-2.9,0.3-5.7,0.4-8.6,0c-3.2-0.5-6.5-0.7-9.5-2.2c-1.6-0.8-2.9-1.9-4-3.3c-0.6-0.7-0.7-1.5-0.4-2.3c0.2-0.6,0.4-1.1,0.6-1.6
		c0.8-2.3,1.5-4.6,2.3-7c0.3-0.9,0.5-1.9,0.7-2.9c0.5-2.5,1.7-4.8,2-7.4c0.1-0.8,0.4-1.4,1.4-1.4c0.3,0,0.7-0.2,1-0.4
		c1-0.7,2.1-1.1,3.4-1.1C47.1,84.1,47.9,83.9,48.9,83.8z M63.1,89.9c-0.5,0.3-1.1,0.7-1.6,0.8c-1.7,0.3-3.5,0.7-5.3,0.3
		c-0.9-0.2-1.9-0.1-2.8-0.2c-0.6-0.1-1.1-0.2-1.7-0.3c-0.4-0.1-0.9-0.2-1.3-0.3c-1.1-0.3-2.3-0.5-3.4-0.8c-0.5-0.1-0.8-0.4-0.8-1
		c0-0.5,0.2-1,0.7-1.2c0.2-0.1,0.5-0.2,0.7-0.2c0.9-0.2,1.8-0.5,2.8-0.7c-0.2-0.5-0.5-1-0.7-1.5c-0.9,0.1-1.8,0.1-2.7,0.2
		c-0.6,0.1-1.3,0.3-1.9,0.6c-0.7,0.3-1.4,0.8-2.1,1.1c-0.6,0.2-0.9,0.7-1.3,1.1c-0.5,0.7-0.4,1.6,0.3,2.2c0.4,0.3,0.8,0.6,1.2,0.9
		c2.4,1.3,5,2.1,7.8,2c0.7,0,1.5-0.1,2.2,0.1c1.9,0.4,3.8,0.3,5.7,0.3c2.2,0,4.2-0.5,6.1-1.8c0.6-0.5,1.1-1,1.4-1.7
		c0.4-1,0.5-1.2-0.6-2c-0.3,1-0.6,1.9-1,2.9C64.2,90.3,63.6,90.1,63.1,89.9z M55.3,100.5c-2.4-0.4-4.6-0.7-6.8-1
		c-0.6-0.1-1.3,0-2,0.1c-0.4,1.6-0.8,3.2-1.2,4.7c-0.2,0.7-0.1,0.8,0.9,0.9c0.2-0.9,0.4-1.8,0.6-2.7c0.1,0,0.2,0,0.3,0
		c0,0.6-0.1,1.1-0.2,1.7c-0.2,0.9,0,1.2,0.9,1.5c0.4,0.1,0.8,0.2,1.2,0.3c2.1,0.5,4.3,0.4,6.4,0.3c0.8,0,1-0.4,0.8-1.2
		c-0.1-0.6-0.3-1.1-0.4-1.7C55.8,102.5,55.5,101.5,55.3,100.5z M55.9,112.4c0-1.6,0.1-3.2-0.2-4.8c-2.1-0.1-4.1-0.2-6.1-0.3
		c-0.7,0-1.3-0.2-2-0.3c-0.7-0.1-1.1,0.1-1.4,0.8c-0.1,0.3-0.3,0.6-0.3,0.9c0,0.9,0,1.9,0,2.9c0.1,0,0.3,0,0.3,0.1
		c1.1,1,2.4,1.1,3.8,1c0.6-0.1,1.2,0,1.9,0C53.2,112.8,54.4,112.9,55.9,112.4z M54.4,94.3c-2.1-0.6-4.1-0.5-6.1-0.7
		c-0.5,0-0.8,0.2-0.9,0.8c-0.1,0.7-0.3,1.5-0.4,2.2c-0.1,0.8,0.3,1.4,1.1,1.5c1.7,0.2,3.4,0.4,5,0.5c0.9,0.1,1.3-0.3,1.3-1.1
		C54.4,96.4,54.4,95.4,54.4,94.3z M63.8,89c0.1-1,0.2-2,0.3-3c-1.4-0.3-2.7-0.7-3.9-0.9c-0.8-0.2-1.6-0.3-2.4-0.5
		c-0.4-0.1-0.9,0.1-1.3-0.1c-1.6-0.5-3-0.1-4.5,0.3c-0.3,0.1-0.5,0.3-0.4,0.6c0.1,0.4,0.2,0.8,0.8,0.9c0.5,0,1,0.2,1.5,0.1
		c1.3-0.1,2.6,0.1,3.9,0.4c0.4,0.1,0.8,0.1,1.2,0.1c1.1-0.1,2.1,0.2,3.1,0.6C62.7,87.6,63.4,88.1,63.8,89z M68.2,64.5
		c0.6-1.4,0.6-1.4,0.1-2.3c-0.7-1.3-1.1-2.7-1.2-4.1c-0.1-0.8-0.9-1.8-1.7-2.3c0.1,1.4,0.2,2.7,0.7,3.9
		C66.7,61.2,67.4,62.8,68.2,64.5z M45.4,98.9c-0.8,0.6-0.9,0.6-1.6,3.3c-0.2,0.9-0.8,1.8-0.3,2.8c0.4,0,0.8,0.1,1.3,0.1
		c0.3-1.7,0.7-3.3,0.9-4.9C45.7,99.8,45.5,99.4,45.4,98.9z M57.2,100.2c-1.4-0.1-1.6,0.1-1.3,1.2c0.4,1.2,0.7,2.4,1.1,3.6
		c0.1,0.4,0.3,0.8,0.8,0.7c0.4-0.1,0.7-0.4,0.4-1.1c-0.2-0.6-0.3-1.3-0.4-1.9C57.6,101.9,57.4,101,57.2,100.2z M43.9,98.2
		c-1.1-0.2-1.2-0.2-1.3,0.5c-0.4,1.4-0.8,2.9-1.2,4.3c-0.1,0.2-0.1,0.5,0,0.7c0.1,0.2,0.3,0.5,0.6,0.5c0.1,0,0.4-0.2,0.5-0.4
		c0.1-0.2,0.2-0.5,0.2-0.7c0.3-1.3,0.7-2.6,1-3.9C43.8,99,43.8,98.6,43.9,98.2z M60.4,105.4c-0.5-1.7-0.9-3.3-1.4-5
		c-0.4,0-0.8,0.1-1.2,0.1c0.4,1.7,0.7,3.2,1.1,4.8C59.1,105.8,59.4,105.9,60.4,105.4z M58.6,112.6c0.2-1.7-0.3-4.6-0.8-5.4
		c-0.5,0.1-0.9,0.2-0.8,0.9c0.1,1.2,0.3,2.4,0.4,3.6C57.4,112.5,57.4,112.5,58.6,112.6z M60.6,107.4c-1,0.1-1.2,0.2-1.1,0.9
		c0.2,1.2,0.3,2.4,0.6,3.5c0.1,0.7,0.5,0.8,1.4,0.5C61.4,110.6,61.1,109,60.6,107.4z M43.3,111.5c0.2-1.2,0.4-2.3,0.6-3.3
		c0-0.3,0.1-0.6,0.1-0.9c-0.1-0.2-0.3-0.4-0.5-0.6c-0.2,0.1-0.4,0.3-0.5,0.4c-0.3,0.7-0.5,1.5-0.7,2.2c-0.2,0.6-0.2,1.2-0.4,1.9
		C42.4,111.3,42.8,111.4,43.3,111.5z M61.8,100.2c-1,0-1.3,0.2-1.1,0.8c0.3,1.2,0.7,2.4,1.1,3.6c0.1,0.2,0.4,0.5,0.6,0.4
		c0.4,0,0.4-0.4,0.4-0.8C62.4,103,62.1,101.6,61.8,100.2z M63.1,106.5c-0.2,0.2-0.4,0.3-0.4,0.4c0.1,1.3,0.1,2.7,0.3,4
		c0.1,0.9,0.5,0.9,1.4,0.5C64.4,110.1,63.6,107.3,63.1,106.5z M41,110.7c0.3-1.3,0.6-2.5,0.9-3.8c0.1-0.3,0-0.7-0.4-0.8
		c-0.4-0.1-0.6,0.2-0.7,0.5c-0.3,1-0.6,2-0.8,3C39.7,110.5,39.9,110.6,41,110.7z M61,98.7c0.1-0.2,0.2-0.4,0.2-0.6
		c0.2-1.2-0.3-2.4-0.6-3.5c-0.1-0.4-0.5-0.5-0.8-0.4c-0.4,0.1-0.4,0.4-0.4,0.8c0.3,1,0.5,2,0.8,3C60.3,98.3,60.4,98.7,61,98.7z
		 M66.7,104.9c0-0.4,0-0.8-0.1-1.2c-0.3-1.3-0.6-2.6-1-3.8c0-0.2-0.1-0.3-0.2-0.5c-0.1-0.1-0.3-0.3-0.4-0.2
		c-0.2,0.1-0.3,0.2-0.4,0.4c-0.1,0.1,0,0.3,0,0.5c0.3,1.4,0.7,2.8,1.1,4.2C66,104.5,66,104.9,66.7,104.9z M56,98.5
		c0.1-0.1,0.2-0.2,0.2-0.2c-0.1-1.2-0.1-2.4-0.2-3.6c0-0.6-0.2-0.6-1.2-0.4c0.1,1.2,0.2,2.4,0.4,3.6C55.2,98.4,55.6,98.5,56,98.5z
		 M41.6,97.3c-0.1,0-0.2,0-0.4,0c-0.6,1.8-1.1,3.6-1.7,5.4c0,0.1-0.1,0.2,0,0.2c0.2,0.2,0.3,0.3,0.6,0.6c0.6-2,1.2-3.9,1.7-5.7
		C41.9,97.7,41.7,97.5,41.6,97.3z M45,96.5c0.2,0.2,0.3,0.5,0.6,0.6c0.5,0.2,0.7-0.2,0.7-0.6c0.2-0.9,0.4-1.9,0.5-2.8
		c0.1-0.3-0.1-0.6-0.5-0.6c-0.2,0-0.6,0.2-0.7,0.3C45.4,94.4,45.2,95.4,45,96.5z M71.2,62.2c2.1-1.9,4.6-6.2,4.5-8
		c-0.5,1-1,1.9-1.4,2.7c-0.5,0.9-1,1.8-1.5,2.7C72.3,60.5,71.3,61,71.2,62.2z M56.9,94.6c0.2,1.1,0.3,2,0.5,2.9
		c0.1,0.5,0.2,0.9,0.8,1c0.4-0.9,0.2-3.8-0.4-4.2C57.6,94.5,57.3,94.5,56.9,94.6z M43.9,96.8c0.3-0.2,0.5-0.4,0.6-0.5
		c0.3-0.9,0.5-1.9,0.7-2.9c0-0.2-0.2-0.6-0.4-0.7c-0.3-0.2-0.7-0.1-0.8,0.3c-0.3,1-0.5,2.1-0.7,3.1C43.4,96.3,43.7,96.5,43.9,96.8z
		 M66.4,111.4c-0.2-0.8-0.3-1.4-0.5-2c-0.2-0.8-0.4-1.7-0.7-2.5c0-0.1-0.3-0.3-0.4-0.3c-0.1,0-0.3,0.3-0.3,0.4c0,0.1,0,0.2,0,0.4
		c0.3,1.4,0.6,2.7,0.9,4.1C65.8,111.5,66.1,111.4,66.4,111.4z M38,101.7c0.9-0.2,0.9-0.1,1-0.6c0.3-0.9,0.6-1.8,0.9-2.7
		c0.1-0.5,0.3-0.9,0.5-1.4c0-0.2-0.1-0.4-0.1-0.5c-0.2,0.1-0.4,0.1-0.6,0.3c-0.1,0.1-0.2,0.4-0.2,0.6c-0.3,1-0.7,2-1,3.1
		C38.3,100.8,38.2,101.2,38,101.7z M44.7,107.8c-0.4,1.2-0.6,2.4-0.7,3.6c-0.1,0.5,0.3,0.6,1.1,0.5c0.1-1.1,0.2-2.3,0.3-3.4
		C45.5,108.1,45.4,107.8,44.7,107.8z M67.8,110.9c0.1-0.1,0.2-0.1,0.4-0.2c-0.1-0.5-0.1-1.1-0.2-1.6c-0.2-0.8-0.4-1.7-0.7-2.5
		c0-0.1-0.4-0.2-0.6-0.3c-0.1,0.2-0.2,0.3-0.2,0.5c0,0.1,0,0.2,0,0.2c0.2,1.1,0.5,2.2,0.8,3.3C67.3,110.6,67.6,110.7,67.8,110.9z
		 M64.4,105.1c0-0.2,0.1-0.4,0.1-0.5c-0.3-1.4-0.6-2.7-0.9-4.1c-0.1-0.3-0.4-0.4-0.8-0.1c0.2,1.5,0.7,3.1,1.2,4.6
		C64,105,64.2,105,64.4,105.1 M62.9,99c0.2-0.3,0.3-0.4,0.3-0.5c-0.2-1.4-0.4-2.7-0.7-4.1c0-0.1-0.1-0.2-0.1-0.2
		C62.2,94.1,62,94,61.9,94c-0.1,0-0.2,0.2-0.3,0.3c0,0.1,0,0.2,0,0.2c0.2,1.2,0.5,2.5,0.7,3.7C62.4,98.6,62.6,98.7,62.9,99z
		 M64.6,98.5c0.4-0.7,0.2-1.2,0.1-1.8c-0.1-0.8-0.3-1.6-0.5-2.4c0-0.1-0.1-0.3-0.1-0.3c-0.1-0.1-0.3-0.2-0.5-0.2
		c-0.1,0-0.2,0.2-0.3,0.3c0,0.1,0,0.2,0,0.4c0.3,1.2,0.5,2.3,0.8,3.5C64.1,98.1,64.4,98.3,64.6,98.5z M37.5,103.7
		c-0.4,1.2-0.7,2.3-1,3.4c0,0.1,0,0.2,0,0.2c0.1,0.2,0.3,0.3,0.5,0.5c0.1-0.1,0.3-0.2,0.4-0.4c0.3-0.8,0.5-1.7,0.7-2.5
		C38.2,104.5,38.1,104.2,37.5,103.7z M66.9,97.2c0.4-1-0.2-1.7-0.5-2.4c-0.3-0.8-0.3-1.7-1-2.3c-0.5,0.6-0.5,1.2-0.2,1.8
		c0.4,0.8,0.8,1.6,1.2,2.4C66.6,96.8,66.7,96.9,66.9,97.2z M40.2,105.8c-0.4-0.3-0.7-0.2-0.9,0.2c-0.5,0.9-0.6,1.9-0.6,2.8
		c0,0.1,0.2,0.4,0.4,0.4c0.1,0,0.4-0.2,0.4-0.3C39.6,107.8,39.9,106.8,40.2,105.8z M43.4,91.8c-0.2,0.1-0.3,0.1-0.4,0.1
		c-0.7,0.8-0.8,1.9-1,2.9c0,0.1,0.3,0.2,0.7,0.4C42.8,93.9,43.7,93,43.4,91.8z M69,97.9c-0.1,1.6,0.5,2.9,1.4,4.2
		C70.4,100.6,69.7,98.5,69,97.9z M67.3,99c-0.2,1,0.4,1.7,0.7,2.4c0.3,0.7,0.2,1.6,1,2.3c-0.1-1.7-0.7-3-1.2-4.3
		C67.8,99.3,67.6,99.2,67.3,99z M41.6,91c-0.4,0.6-0.9,1.6-0.9,2c0,0.2,0.2,0.4,0.3,0.4c0.1,0,0.3-0.1,0.4-0.2
		c0.3-0.5,0.5-1,0.7-1.6C42.2,91.3,42,91.1,41.6,91z M72.1,107.9c0.2-1.1-0.3-2.7-0.9-3.3C71,105.7,71.4,107.1,72.1,107.9z
		 M70,109.5c0.3-1.3,0-2.3-0.8-3.1c-0.4,0.2-0.4,0.5-0.2,0.8C69.3,108,69.6,108.6,70,109.5z M67.9,95.2c0.2-1.6,0-2.8-0.8-3.8
		c-0.1,0.1-0.2,0.2-0.2,0.3C67.2,92.9,67.5,93.9,67.9,95.2z M42,72.1c-0.4-1.3-1.6-2.1-2.8-1.9C40.2,70.9,41.1,71.5,42,72.1z
		 M71.6,34.3c-0.5,0.8-0.5,1.3,0,2C71.9,35.6,72,35,71.6,34.3z"/>
	<path d="M69,41.3c0,0.6,0.1,1.2,0.1,1.8c0,0.7,0.1,1.3,0,2c-0.1,2,0.5,3.8,0.8,5.8c0.1,0.5,0.7,1,0.2,1.8c-0.9-1.3-1.1-2.8-1.9-4.4
		c0,0.5-0.1,0.8,0,1c0.1,1.1,0.3,2.3,0.5,3.4c0.2,0.8,0.5,1.5,0.8,2.3c0.2,0.5,0.1,0.5-0.2,1.3c-0.3-0.6-0.6-1.1-0.8-1.7
		c-0.5-1.6-1.1-3.2-1.5-4.8c-0.2-0.7-0.1-1.5-0.1-2.2c0-0.6,0.2-1.1,0.3-1.8c0.2,0,0.4,0,0.6,0C68.3,44.3,68,42.6,69,41.3z"/>
	<path d="M80.7,20.5c0.2-0.4,0.4-0.8,0.7-1.1c0.4-0.3,1-0.5,1.4-0.8c0.4-0.3,0.6-0.7,0.9-1.1c0.1,0.1,0.2,0.1,0.2,0.2
		c0,0.2,0.1,0.4,0.1,0.6c-0.3,1.1-0.3,2.2-0.5,3.2c0,0.3-0.2,0.7-0.4,0.9c-1.1,1.3-2.2,2.7-3.4,4c-0.3,0.3-0.7,0.4-1.1,0.7
		c0.2-1,1-2.3,2.2-3.8c-0.3-0.1-0.5-0.2-0.8-0.3c0.5-1,1.1-2,1.7-3.2C81.4,20.1,81,20.3,80.7,20.5L80.7,20.5z"/>
	<path d="M40.9,65.7c-0.9-1.1-1.8-2.1-2.5-3.1c-0.3-0.5-0.4-1.2-0.5-1.8c-0.3-2.5-0.6-5.1-0.8-7.5c0.5,0.3,0.5,0.3,0.7,1.1
		c0.4,2.3,0.8,4.6,1.3,7c0.2,0.8,0.4,1.6,0.8,2.3c0.3-0.6-0.1-1.2-0.1-1.8c-0.1-0.6-0.2-1.2-0.2-1.8c0-0.7,0-1.3,0.1-2
		C40.2,60.5,40.7,63,40.9,65.7z"/>
	<path d="M22.5,39.5c0.6,0,0.8,0.3,1,0.7c0.3,0.5,0.6,1,0.7,1.6c0.3,1.9,0.5,3.9,0.7,5.8c0,0.1,0,0.1-0.1,0.2
		c-1.1-0.7-1.5-1.7-1.6-3c-0.1-1.5-0.4-3-0.7-4.5C22.5,39.9,22.5,39.7,22.5,39.5z"/>
	<path d="M12.4,47.5c-0.2-0.6-0.1-1,0.3-1.1c0.6-0.2,1.2-0.4,1.8-0.4c1.1,0,2.2-0.1,3.3,0.2c1,0.2,2,0.6,2.7,1.4
		C17.8,47.5,15.2,47.5,12.4,47.5z"/>
	<path d="M30,45.8c1.3,1.1,1.5,2.7,2.1,4.1c0.6,1.4,0.8,2.9,0.8,4.5c-0.3,0.3-0.5,0.6-0.8,1c-0.4-0.7-0.4-1.4-0.4-2.2
		c0-0.7-0.2-1.3-0.4-1.9c-0.5-1.6-0.9-3.3-1.4-5C29.9,46.1,30,45.9,30,45.8z"/>
	<path d="M77.8,30.8c-0.2-0.2-0.3-0.4-0.4-0.5c0-0.1-0.1-0.1-0.1-0.2c0.9-1.4,4.4-5.5,6-6.8c0.1,0.7,0.2,1.4-0.4,1.8
		c-1.1,0.8-1.8,2-2.6,3C79.6,29,78.8,29.8,77.8,30.8z"/>
	<path d="M82.5,29.4c0,1.2-0.9,1.7-1.7,2.2c-0.3,0.2-0.8,0.3-1.1,0.5c-0.4,0.2-0.7,0.4-1,0.7c-0.9,0.8-1.7,1.6-2.6,2.5
		c-0.1-0.6,0-1.1,0.4-1.4c1.2-0.9,2-2,2.9-3.2C80.3,29.4,80.6,29.3,82.5,29.4z"/>
	<path d="M75,40.9c0.1-0.1,0.1-0.3,0.2-0.4c1-0.6,1.5-1.5,2.2-2.3c0.9-1.2,1.8-2.4,2.7-3.5c0.1-0.1,0.3-0.2,0.5-0.3
		c0.2,0.7,0,1.2-0.3,1.7c-0.7,1.1-1.4,2.1-2.2,3.1c-0.4,0.5-0.9,0.9-1.4,1.3c-0.1,0.1-0.3,0.2-0.4,0.2C75.6,40.3,75.4,40.9,75,40.9z
		"/>
	<path d="M70.2,46c-0.1-1.2-0.3-2.5-0.4-3.7c0-0.3,0-0.6-0.1-0.8c-0.7-1.2-0.4-2.4-0.2-3.6c0.1-0.7,0.2-1.3,0.6-2
		c0.1,0.4,0.2,0.8,0.2,1.2c0.2,1.8,0.3,3.6,0.4,5.4c0,0.1,0.1,0.3,0,0.4c-0.7,0.9-0.4,1.9-0.4,2.8C70.2,45.7,70.2,45.9,70.2,46z"/>
	<path d="M28.8,44.8c1.1,3.2,1.9,6.4,2.3,9.7c-0.6,0-0.7-0.4-0.8-0.7c-0.3-1.2-0.6-2.5-0.9-3.7c-0.3-1.3-0.7-2.6-1-4
		C28.3,45.4,28.2,45.4,28.8,44.8z"/>
	<path d="M27.9,51c-0.2-0.3-0.4-0.5-0.4-0.8c-0.4-1.6-0.8-3.3-1.3-4.9c-0.2-0.8-0.4-1.5-0.6-2.3c-0.1-0.4-0.1-0.7,0.3-0.8
		C26.6,43.1,26.7,43.4,27.9,51z"/>
	<path d="M77.2,10.3c0.3,0.9,0.6,1.7,0.6,2.6c-0.1,2.1-0.2,4.1,0.2,6.2c0,0.1-0.1,0.2-0.2,0.5c-0.5-0.9-0.9-1.7-0.9-2.6
		c0-2.2,0.1-4.3,0.1-6.5C77,10.6,77,10.5,77.2,10.3z"/>
	<path d="M84.4,12.4c0,0.9,0,1.6,0,2.2c-0.8,0-0.8,0-1.2,0.5c-0.9,1.1-1.8,2.2-2.8,3.4c0-0.7,0.4-1.5,1.6-3.2
		C82.7,14.3,83.5,13.5,84.4,12.4z"/>
	<path d="M76.5,37.7c-0.2-0.4-0.1-0.7,0.2-1c1-1.3,2.1-2.7,3.2-4c0.2-0.3,0.6-0.5,1-0.2c-0.3,1-1.1,1.7-1.8,2.4
		C78.3,35.9,77.4,36.8,76.5,37.7z"/>
	<path d="M78.2,16.3c0.1-0.9,0.1-1.7,0.2-2.6c0.2-1.6,0.3-3.2,0.5-4.8c0.1-0.6,0.3-1.1,1-1.5c-0.3,1.1-0.5,2.1-0.7,3
		c-0.2,1-0.2,2-0.4,2.9C78.7,14.4,78.9,15.4,78.2,16.3z"/>
	<path d="M75.9,43.9c-0.4-1.1,0.4-1.6,0.8-2.2c1.4-2.1,2.3-2.8,3.6-3.2c-0.5,1.1-1.6,1.7-2.3,2.6C77.3,42,76.6,42.9,75.9,43.9z"/>
	<path d="M84.4,15.1c-0.2,0.8-1.5,2.6-2.3,3.3c-0.2-0.1-0.3-0.3-0.5-0.4c0-0.1,0-0.2,0.1-0.2c0.4-0.5,0.9-1,1.3-1.5
		C83.3,15.8,83.7,15.3,84.4,15.1z"/>
	<path d="M43.6,69.7c-0.7-0.6-1.3-1.2-1-2.3c0.1-0.5,0.1-1,0.1-1.6c0.5,0.6,0.4,1.3,0.6,1.9c0.2,0.7,0.4,1.3,0.6,1.9
		C43.8,69.6,43.7,69.7,43.6,69.7z"/>
	<path d="M41.6,63c0.7,0.5,0.7,1.3,0.5,1.8c-0.3,0.7-0.2,1.4-0.2,2.1c0,0.1-0.1,0.2-0.1,0.4C41.3,66.4,41.2,64.7,41.6,63z"/>
	<path d="M83,26.2c-0.1,0.6-0.1,1-0.2,1.5c-0.2,0.8-0.9,0.6-1.6,0.8C81.7,27.5,81.9,27.2,83,26.2z"/>
	<path d="M80,40.2c-0.2,1.2-1,2-1.7,3C78.1,41.6,79.2,41,80,40.2z"/>
	<path d="M18.9,49.3c1-0.3,1.9,0,2.8,0.3c0,0.1,0,0.2,0,0.2c-0.9-0.1-1.9-0.1-2.8-0.2C18.8,49.5,18.9,49.4,18.9,49.3z"/>
	<path d="M75.2,46.3c-0.1,0.4-0.2,0.8-0.3,1.2c-0.3-0.2-0.5-0.3-0.8-0.6C74.3,46.5,74.5,46.1,75.2,46.3z"/>
	<path d="M80.7,20.5c-0.3,0.5-0.5,0.9-0.8,1.4C79.8,21.2,80.3,20.9,80.7,20.5L80.7,20.5z"/>
	<path d="M45.6,88.1c-0.5,0.4-0.9,0.7-1.3,0.9c-0.3,0.2-0.6,0.3-0.9,0.3c-0.4,0-1,0-1-0.5c-0.1-0.4,0.1-0.9,0.3-1.4
		c0.1-0.1,0.5-0.2,0.8-0.2C44.1,87.5,44.8,87.8,45.6,88.1z"/>
	<path d="M53.6,91.5c0.8-0.3,1.6-0.3,2.3,0c-0.1,0.8-0.5,1.2-1.2,1.2C53.9,92.6,53.7,92.4,53.6,91.5z"/>
	<path d="M48.3,90.7c1.6,0.2,1.7,0.4,1.5,1.6c-0.3,0-0.5,0-0.8,0C47.8,92.1,47.7,91.9,48.3,90.7z"/>
	<path d="M61.9,91c0.1,0.3,0.2,0.5,0.3,0.7c-0.3,0.6-0.9,0.6-1.4,0.7c-0.3,0-0.6,0-0.7-0.4c-0.1-0.4,0.1-0.7,0.4-0.8
		C61,91.2,61.4,91.1,61.9,91z"/>
	<path d="M48.4,85.2c0.1,0.5,0.2,1.1-0.5,1.2C47.3,85.5,47.3,85.4,48.4,85.2z"/>
	<path d="M52.8,101.5c0.4-0.1,0.8-0.6,1.3,0C53.6,101.8,53.2,101.6,52.8,101.5z"/>
	<path d="M48.8,111.5c0-0.2-0.1-0.3-0.1-0.3c0.1-0.3,0-0.8,0.5-0.7c0.1,0,0.3,0.3,0.3,0.5C49.7,111.5,49.4,111.6,48.8,111.5z"/>
	<path d="M52.2,110.6c-0.1,0.7-0.4,0.8-0.7,0.7c-0.2,0-0.3-0.2-0.4-0.4c0-0.1,0.2-0.3,0.3-0.3C51.7,110.6,51.9,110.6,52.2,110.6z"/>
	<path d="M53.6,111.1c0-0.3,0-0.7,0.1-1C54.1,110.5,54.1,110.8,53.6,111.1z"/>
	<path d="M49.5,94.7c0.1,0.2,0.3,0.3,0.3,0.4c0,0.2-0.1,0.4-0.2,0.6c0,0-0.3,0-0.3,0c-0.1-0.2-0.1-0.4-0.1-0.7
		C49.2,95,49.3,94.9,49.5,94.7z"/>
	<path d="M54.9,85.4c-0.4,0.4-0.9,0.5-1.3,0.4c-0.2,0-0.4-0.3-0.5-0.5c0-0.1,0.3-0.4,0.4-0.5C54.1,84.6,54.6,84.8,54.9,85.4z"/>
	<path d="M60.8,86.4c-0.5-0.1-1-0.1-1.5-0.2c-0.1,0-0.2-0.3-0.4-0.4c0.1-0.1,0.3-0.4,0.4-0.3c0.5,0.2,1,0.5,1.5,0.8
		C60.9,86.3,60.9,86.3,60.8,86.4z"/>
</g>
</svg>
