<?xml version="1.0" encoding="utf-8"?>
<!-- Generator: Adobe Illustrator 17.1.0, SVG Export Plug-In . SVG Version: 6.00 Build 0)  -->
<!DOCTYPE svg PUBLIC "-//W3C//DTD SVG 1.1//EN" "http://www.w3.org/Graphics/SVG/1.1/DTD/svg11.dtd">
<svg version="1.1" id="Capa_1" xmlns="http://www.w3.org/2000/svg" xmlns:xlink="http://www.w3.org/1999/xlink" x="0px" y="0px"
	 viewBox="0 0 24.6 23.7" enable-background="new 0 0 24.6 23.7" xml:space="preserve">
<circle fill="none" stroke="#434142" stroke-miterlimit="10" cx="12.3" cy="12" r="10.5"/>
<g>
	<circle fill="#434142" cx="8.3" cy="9.4" r="1.3"/>
	<circle fill="#434142" cx="17.3" cy="9.4" r="1.3"/>
</g>
<g>
	<path fill="#434142" d="M7.6,16.9c0.1-0.2,0.3-0.7,0.9-1.4c0.3-0.3,0.6-0.7,1-1c0.7-0.6,1.9-1.1,3-1.1c1.2,0,2.4,0.5,3.1,1.1
		c1.1,1,1.8,2.2,1.8,2.3c-0.1-0.1-0.2-0.2-0.8-0.6c-0.3-0.2-0.6-0.4-1-0.5c-0.7-0.3-1.9-0.6-3.1-0.6c-0.9,0-1.8,0.1-2.6,0.4
		c-0.8,0.3-1.4,0.6-1.8,0.9L7.6,16.9z"/>
</g>
</svg>
